<svg xmlns="http://www.w3.org/2000/svg" viewBox="0 0 401.82 320.93"><defs><style>.cls-1{fill:#fff;}.cls-2{fill:#ebebeb;}.cls-3{fill:#455a64;}.cls-4,.cls-7{fill:#263238;}.cls-5{fill:#eb9481;}.cls-6{fill:#37474f;}.cls-18,.cls-7{opacity:0.2;}.cls-8{fill:#e09230;}.cls-9{fill:#a6a6a6;}.cls-10{fill:#ffc727;}.cls-11{fill:#ad6359;}.cls-12{fill:#c7c7c7;}.cls-13{fill:#dbdbdb;}.cls-14{fill:#d3766a;}.cls-15{fill:#ff9cbd;}.cls-16{fill:#f7a9a0;}.cls-17{opacity:0.1;}</style></defs><title>aboutUs</title><g id="Window"><path class="cls-1" d="M107,243.89v-4.76h.47v4.35h2.75v.41Z" transform="translate(-9.03 -10.42)"/><path class="cls-1" d="M114.07,243.48v.41h-3.21v-4.76H114v.41h-2.68v1.72h2.33v.4h-2.33v1.82Z" transform="translate(-9.03 -10.42)"/><path class="cls-1" d="M116.43,239.13h.4l2,4.76h-.5l-.62-1.49h-2.14l-.61,1.49h-.5Zm1.16,2.9-1-2.35-1,2.35Z" transform="translate(-9.03 -10.42)"/></g><g id="Character_4" data-name="Character 4"><path class="cls-2" d="M365.77,268.71v39.42H405.2V268.71Zm3,36.44V271.68h33.47v33.47Z" transform="translate(-9.03 -10.42)"/><rect class="cls-3" x="259.48" y="189.37" width="115.36" height="115.36"/><path class="cls-4" d="M290.74,315.15h64.18c.27-2.45-9.56-54.6-21.11-71.37-1.31-1.9-12.53-3.29-16.65,1.45C295.33,270.29,290.21,314.55,290.74,315.15Z" transform="translate(-9.03 -10.42)"/><path class="cls-5" d="M335.33,248.11c1.82,4.72,8.7,21.27,12.43,33.14,2.51,8,3.46,14.66,4,16.42,0,0-18.95-6.09-23.22-6.1-6.57,0-17.11,13.71-14.52,15.43,4.06,2.7,23.44,11.9,38.91,14.78,8.41,1.57,24.26-9.12,23-17.62-1.76-11.93-23.31-43.37-31.52-52.29C340.18,247.24,333.11,242.36,335.33,248.11Z" transform="translate(-9.03 -10.42)"/><path class="cls-4" d="M377.1,306.68c-.39,8.6-11.14,15.83-17.38,16.21-10.75.65-43-8.74-43-8.74L329.26,290s21.94,7.45,22.5,7.66h0c-.19-.64-5.6-21-8-27.7-.13-.37-.28-.75-.42-1.15-.69-1.87-1.65-4.33-2.7-7v0l-1.81-4.53h0c-2.65-6.59-5.23-12.85-5.23-12.85,3.69.6,7.34,2.54,13.33,8.83S377.76,292.51,377.1,306.68Z" transform="translate(-9.03 -10.42)"/><path class="cls-6" d="M325.08,308.92c.89-1.71,1.8-3.41,2.7-5.12s1.77-3.33,2.67-5a57.24,57.24,0,0,0,2.66-5.24,0,0,0,0,0-.06,0,41.46,41.46,0,0,0-3,4.74q-1.44,2.52-2.83,5.06c-.91,1.66-1.78,3.34-2.64,5a42.45,42.45,0,0,0-2.43,5.37c0,.07.08.14.13.07A51.88,51.88,0,0,0,325.08,308.92Z" transform="translate(-9.03 -10.42)"/><path class="cls-6" d="M358.47,301.22l-6.7-3.55h0c-.19-.64-5.6-21-8-27.7-.13-.37-.28-.75-.42-1.15-.69-1.87-1.65-4.33-2.7-7Z" transform="translate(-9.03 -10.42)"/><path class="cls-6" d="M364,304.17a55.06,55.06,0,0,0-5.89-3.78c-1-.57-2-1.1-3.1-1.57s-2.32-.87-3.43-1.37c-.09,0-.15.09-.07.13,1.05.47,2,1.13,3.05,1.68s2.11,1.14,3.17,1.68c2.09,1.08,4.14,2.22,6.22,3.31C364,304.28,364.07,304.2,364,304.17Z" transform="translate(-9.03 -10.42)"/><path class="cls-5" d="M359.14,299c-1.68,0-11.83-2.69-13.31-1.29-9,8.5-11.87,6.78-13.78,7.89-14.86,8.55-34.69,18.58-41.77,18.65-10.73.08-15-8.93-13.22-17.44,3.52-16.83,26.22-49.64,36.49-58.36,5.44-4.61,5,2.35,2.76,9.92-1.32,4.43-3.63,11-6,17.51-2.08,5.76-7.62,20.5-7.71,20.85h0l0,0s0,.05.12,0c.47-.08,13.17-6.07,25.94-9.36,4.51-1.16,13.88-2.81,17.24-1.31,2,.89,2,2.09,2,2.09a5,5,0,0,1,4.76,3.47,5.12,5.12,0,0,1,2.67,1.26,4.67,4.67,0,0,1,1.18,2.5C358.89,296,359.14,299,359.14,299Z" transform="translate(-9.03 -10.42)"/><path class="cls-4" d="M344.14,287.82a25.77,25.77,0,0,0-4,.45c-.09,0-.08.16,0,.15,1.31-.15,2.63-.18,3.95-.22s2.63-.07,3.93-.05c0,0,0,0,0,0A21,21,0,0,0,344.14,287.82Z" transform="translate(-9.03 -10.42)"/><path class="cls-4" d="M352.64,291.57a16.31,16.31,0,0,0-7.1-.63c-.09,0-.08.16,0,.15a27.82,27.82,0,0,1,7.09.53S352.67,291.58,352.64,291.57Z" transform="translate(-9.03 -10.42)"/><path class="cls-4" d="M356.5,295.33a15.86,15.86,0,0,0-6.71-1.26c-.09,0-.12.13,0,.14a40.2,40.2,0,0,1,6.71,1.22C356.53,295.45,356.56,295.35,356.5,295.33Z" transform="translate(-9.03 -10.42)"/><path class="cls-4" d="M328,287.55a29.41,29.41,0,0,0-3.32.74c-1.16.29-2.32.6-3.46,1a63.82,63.82,0,0,0-6.67,2.65.07.07,0,1,0,.05.13c2.22-.77,4.46-1.5,6.71-2.21,1.11-.35,2.21-.72,3.31-1.08s2.3-.65,3.41-1.07A.07.07,0,0,0,328,287.55Z" transform="translate(-9.03 -10.42)"/><path class="cls-4" d="M319.15,290a12.24,12.24,0,0,1,3.41-.8l13.36,22.56s-36.8,13.25-44.36,14a15.08,15.08,0,0,1-16.3-14.67c-.2-13.33,21.54-45.35,32.48-57.73,5-5.68,10.86-9.8,12.35-8.87,1.76,1.1-1.44,8.23-3.12,13.56-3.11,9.82-14.26,38.72-14.26,38.72S316.35,290.91,319.15,290Z" transform="translate(-9.03 -10.42)"/><path class="cls-6" d="M322.44,289.14c-2.07.12-11,3.24-15.43,5.13a75.58,75.58,0,0,0-12.55,6.78c-2.24,1.51-4.36,3.15-6.46,4.85a.08.08,0,0,0,.09.12,132.32,132.32,0,0,1,25-13.58c2.51-1,6.82-2.45,9.27-3.09C323,289.17,322.51,289.14,322.44,289.14Z" transform="translate(-9.03 -10.42)"/><path class="cls-6" d="M313.62,269.41c-.56.9-1.13,1.8-1.61,2.75a.91.91,0,0,1-.07.14c.72-2.17,1.39-4.34,2-6.52a.12.12,0,0,0-.23-.08c-3.17,8-6.1,16.12-8.95,24.24-.8,2.28-1.49,4.57-2.22,6.87a.07.07,0,0,0,.14,0c.87-2,1.74-3.92,2.54-5.92s1.53-4,2.28-6.05c1.31-3.53,2.55-7.08,3.75-10.65.38-.62.76-1.24,1.11-1.88.52-.93.94-1.9,1.38-2.87A.09.09,0,0,0,313.62,269.41Z" transform="translate(-9.03 -10.42)"/><path class="cls-6" d="M327,306.81c-1-1.67-1.94-3.34-2.92-5s-1.9-3.27-2.83-4.91-1.92-3.43-3.05-5c0,0-.08,0-.06,0a45.19,45.19,0,0,0,2.45,5.05c.92,1.7,1.86,3.38,2.81,5.07s1.89,3.27,2.86,4.89a42.26,42.26,0,0,0,3.28,4.9c0,.06.16,0,.12-.07A52,52,0,0,0,327,306.81Z" transform="translate(-9.03 -10.42)"/><path class="cls-6" d="M336.46,311.77c-1.11-2.19-2.84-4.33-4.11-6.41-.05-.08-.17,0-.12.08,1.16,1.95,2.22,4.05,3.33,6-5.06,2.08-10.42,3.94-15.58,5.77s-10.61,3.65-16,5.21c-3,.87-6,1.81-9.08,2.61-.18.05-.14.2.06.17A138,138,0,0,0,311.06,321c5.39-1.71,10.71-3.62,16-5.6C330.05,314.24,336.55,312,336.46,311.77Z" transform="translate(-9.03 -10.42)"/><path class="cls-5" d="M327.69,287.56a177.13,177.13,0,0,0-18.53,6.12l-.26.09c-3.16,1.24-5.12,2.16-5.59,2.24l-.09-.06h0a4.17,4.17,0,0,0-1-.54c-.89-.32-9.44-1.39-9.23-4s3.7-2.46,4.21-2.43c-.56-.12-5.2-1.2-3.68-3.52,1.06-1.65,5.66-1.4,6.12-1.39-.47-.15-4.73-1.54-3.26-3.91,1.05-1.69,6.18-1.47,6.77-1.37-.48-.18-4.28-.82-2.51-2.86,1.24-1.42,10.9,0,15.19,2.17C322.24,281.25,327.69,287.56,327.69,287.56Z" transform="translate(-9.03 -10.42)"/><path class="cls-4" d="M309.16,293.68l-.26.09a31,31,0,0,0-11.51-4.69c-.27,0-.29-.19,0-.17A21.13,21.13,0,0,1,309.16,293.68Z" transform="translate(-9.03 -10.42)"/><path class="cls-4" d="M299.87,284.21c6.09,1.21,8.84,2.55,14.07,5.88.08,0,.16-.07.09-.12-4.88-3.65-7.92-5.46-14.11-5.92C299.64,284,299.59,284.15,299.87,284.21Z" transform="translate(-9.03 -10.42)"/><path class="cls-4" d="M303.36,278.88c5.84,1.55,8.91,2.89,13.62,6.7a.1.1,0,1,0,.14-.15,21.86,21.86,0,0,0-13.71-6.71C303,278.67,303,278.78,303.36,278.88Z" transform="translate(-9.03 -10.42)"/><path class="cls-5" d="M332.59,255.46c-3.46,1.25-10.17-3.49-13.08-7.62-.2-.28-.1-3.52-.16-7.45-.05-2.39-.15-5-.43-7.46l15.58,2a38.52,38.52,0,0,0-.41,9.45,5,5,0,0,0,.22,1s0,.1,0,.16C334.87,247.33,335.93,254.26,332.59,255.46Z" transform="translate(-9.03 -10.42)"/><path class="cls-4" d="M334.35,245.48a2.44,2.44,0,0,1,.08.34c-9.33-.4-12.87-4.5-15.17-8.43-.07-1.5-.17-3-.34-4.46l15.58,2a38.52,38.52,0,0,0-.41,9.45,5,5,0,0,0,.22,1S334.33,245.42,334.35,245.48Z" transform="translate(-9.03 -10.42)"/><path class="cls-5" d="M312.54,216.59c-.85,5.59,4.25,20.64,8.57,23.52,6.25,4.19,15.36,3.34,18.63-3.92,3.17-7-3.83-26.53-8.54-29C324.25,203.46,313.78,208.33,312.54,216.59Z" transform="translate(-9.03 -10.42)"/><path class="cls-4" d="M326.94,223.36s-.06.07-.05.11c.37,1,.63,2.22-.18,2.86,0,0,0,.07,0,.06C327.81,225.85,327.45,224.25,326.94,223.36Z" transform="translate(-9.03 -10.42)"/><path class="cls-4" d="M325.68,222.6c-1.67.42-.71,3.74.84,3.35S327.08,222.25,325.68,222.6Z" transform="translate(-9.03 -10.42)"/><path class="cls-4" d="M333.19,221.47s.1,0,.11.07c.26,1,.74,2.18,1.77,2.25,0,0,.05.06,0,.06C333.9,224,333.28,222.5,333.19,221.47Z" transform="translate(-9.03 -10.42)"/><path class="cls-4" d="M333.8,220.13c1.61-.6,2.71,2.67,1.21,3.24S332.44,220.64,333.8,220.13Z" transform="translate(-9.03 -10.42)"/><path class="cls-4" d="M323.93,221.46a13.31,13.31,0,0,0,1.15-.82c.44-.33.82-.54,1-1.07a.74.74,0,0,0-.36-.82,1.85,1.85,0,0,0-1.81.33,2.7,2.7,0,0,0-1.15,1.54A.78.78,0,0,0,323.93,221.46Z" transform="translate(-9.03 -10.42)"/><path class="cls-4" d="M334.59,218.09a13.28,13.28,0,0,1-1.41,0,2.29,2.29,0,0,1-1.46-.23.74.74,0,0,1-.21-.87,1.82,1.82,0,0,1,1.64-.83,2.68,2.68,0,0,1,1.84.52A.78.78,0,0,1,334.59,218.09Z" transform="translate(-9.03 -10.42)"/><path class="cls-4" d="M329.32,232.88a1.6,1.6,0,0,0,1,.35,2.71,2.71,0,0,0,1-.58,0,0,0,0,1,.06,0,1.43,1.43,0,0,1-1.15.94,1.16,1.16,0,0,1-1.07-.67C329.2,232.9,329.27,232.86,329.32,232.88Z" transform="translate(-9.03 -10.42)"/><path class="cls-4" d="M329.5,229.49a3.63,3.63,0,0,0,2.79.88,4.79,4.79,0,0,0,1.28-.31l.23-.1.21-.1a.25.25,0,0,0,.14-.29h0l0-.1h0l0-.08c-.21-.8-.64-2-.64-2,.34.06,2,.29,1.86-.12a55.08,55.08,0,0,0-4.44-10.19.1.1,0,0,0-.18.08c1,3.28,2.62,6.35,3.7,9.63a6.35,6.35,0,0,0-1.79,0c-.11.06.86,2.27.93,2.63v0a5,5,0,0,1-3.95-.07C329.48,229.33,329.42,229.43,329.5,229.49Z" transform="translate(-9.03 -10.42)"/><path class="cls-7" d="M314.18,227.19c.88-.72,2-4.42,2.51-5.95s-1.06-8-1.58-9.94a10.6,10.6,0,0,0-2.57,5.35C312.17,219,312.89,223.11,314.18,227.19Z" transform="translate(-9.03 -10.42)"/><path class="cls-4" d="M328.91,213.15a5.2,5.2,0,0,1-4,3,5.3,5.3,0,0,1-4.76-1.9s-.1,0-.06.05a5.19,5.19,0,0,0,4.86,2.26A5.28,5.28,0,0,0,329,213.2C329.05,213.12,328.94,213.07,328.91,213.15Z" transform="translate(-9.03 -10.42)"/><path class="cls-4" d="M320.27,202.4a8.13,8.13,0,0,0-5.52,5.49,5.84,5.84,0,0,0,.5,3.77c0,.05.12,0,.11,0a6.34,6.34,0,0,1,1.29-6.34,8.19,8.19,0,0,1,6.71-2.83,5.17,5.17,0,0,1,3.29,1.38c.08.08.28-.05.2-.14C325.56,202.12,322.85,201.6,320.27,202.4Z" transform="translate(-9.03 -10.42)"/><path class="cls-4" d="M338.72,203.83a6.61,6.61,0,0,0-3.67-2.63c-2.08-.58-4,.15-5.94.92-.05,0,0,.1,0,.08a9.06,9.06,0,0,1,5.11-.86,6.41,6.41,0,0,1,3.74,2.2,6.31,6.31,0,0,1-.34,8.25,6.47,6.47,0,0,1-4.72,1.89c-.07,0-.09.1,0,.1a6.44,6.44,0,0,0,5.81-9.95Z" transform="translate(-9.03 -10.42)"/><path class="cls-4" d="M312.5,219.79s-4.18-4.37-2.74-8c.82-2.05,5.17-3,5.17-3a8,8,0,0,1,4-4.67c3.36-1.83,8.22-.94,8.22-.94s2.86-2.92,6.57-2c5.17,1.29,6.52,8.23,2.66,11.68-2.72,2.41-7.77.84-7.77.84-.4.17-3.89,3.89-8.13,1,0,0-1.94,3-4.71,2.07A3.9,3.9,0,0,1,312.5,219.79Z" transform="translate(-9.03 -10.42)"/><path class="cls-5" d="M317.7,228.7s-4.33-4.4-6.38-2.77,1.78,8.4,4.6,8.95a2.75,2.75,0,0,0,3.38-2.06Z" transform="translate(-9.03 -10.42)"/><path class="cls-4" d="M312.47,227.84a0,0,0,0,0,0,.08c2,.44,3.25,2,4.24,3.68a1.51,1.51,0,0,0-2.3,0,.06.06,0,0,0,.07.09,1.69,1.69,0,0,1,1.93.28,8.48,8.48,0,0,1,1.12,1.33c.11.15.4,0,.3-.17l0,0C317.46,230.67,315.06,227.65,312.47,227.84Z" transform="translate(-9.03 -10.42)"/><path class="cls-2" d="M334.3,245.15,331,254.32l-11.6-10.94-3,3.76S328,264.79,328,264l3.41-7.88,5.55,5.18-1-13.51Z" transform="translate(-9.03 -10.42)"/><path class="cls-4" d="M336.88,254.57c-.23-2.23-.4-4.48-.74-6.69,0-.08-.14-.11-.15,0-.37,2.18.56,10.68.63,12.73l0,0c-.23-.22-5.14-4.55-5.18-4.47-.76,1.26-3.26,7-3.43,7.52-1.83-2.8-8.85-13-11-15.62a.08.08,0,0,0-.13.09c1.64,3,10.94,16.68,11.07,16.63a84.34,84.34,0,0,0,3.56-8.33c.84.95,5.81,5.86,5.81,5.52A69,69,0,0,0,336.88,254.57Z" transform="translate(-9.03 -10.42)"/></g><g id="Character_3" data-name="Character 3"><rect class="cls-8" x="133.54" y="131.78" width="117.98" height="121.81"/><path class="cls-9" d="M113.8,178.58v62.64h62.64V178.58Zm4.73,57.91V183.31h53.18v53.18Z" transform="translate(-9.03 -10.42)"/><path class="cls-4" d="M220.39,176.47c3.1-.74,11.14,1.36,13.88,5.47s2.63,10.85,1.26,11.52-7.31.27-11.41-1.92S218.86,176.83,220.39,176.47Z" transform="translate(-9.03 -10.42)"/><path class="cls-4" d="M220.38,176.48c-.11,0-.12-.19,0-.19,2.72-.11,5.66.76,8.26,1.47a15.64,15.64,0,0,1,6,2.66,7.31,7.31,0,0,1,2.74,5.47,15,15,0,0,1-1.32,7.46c0,.06-.16.05-.13,0,1.18-4.56,2.2-10.13-2.36-13.15C229.69,177.6,224.78,177.37,220.38,176.48Z" transform="translate(-9.03 -10.42)"/><path class="cls-4" d="M235.06,192.29c2.73.31,9.88,5.38,11.15,10.54s-2.82,12.88-4.15,13.45-7.42-4.29-9.43-7.91c-1.35-2.41-.36-5.27.19-8.1C233.64,196.08,234.63,192.24,235.06,192.29Z" transform="translate(-9.03 -10.42)"/><path class="cls-4" d="M231,207.75c-.89-5.27,2-10.54,3.75-15.33,0,0,.1,0,.09,0-.93,4.59-3.62,8.74-3.62,13.52a8.76,8.76,0,0,0,3.4,7.32c2.05,1.47,4.6,2.12,7,2.92.15.05.05.28-.1.24C236.76,215,231.9,213.18,231,207.75Z" transform="translate(-9.03 -10.42)"/><path class="cls-4" d="M235.65,192.77c-.13-.07-.05-.29.09-.22,3.9,1.77,8.61,4.37,10.74,8.27,2.31,4.21.13,8.69-1.81,12.56,0,.05-.1,0-.08,0,1.91-3.93,3.92-8.79,1.3-12.89C243.64,196.93,239.33,194.5,235.65,192.77Z" transform="translate(-9.03 -10.42)"/><path class="cls-4" d="M241.75,216.15a11.62,11.62,0,0,0-4.27,8.18c-.41,6.32-2.87,5.33-9.5,7.67-5.59,2-6.16,8.53-2.78,11.39,0,0-2.18-3.78,1.49-6.11,4.39-2.79,15.45,1,20.06-6.07C252.72,222.07,241.75,216.15,241.75,216.15Z" transform="translate(-9.03 -10.42)"/><path class="cls-4" d="M239.6,219.27c.07-.09-.09-.21-.16-.12a9,9,0,0,0-1.59,2.9c-.45,1.37-.33,2.8-.68,4.19-.89,3.53-5,3.83-8,4.35-4,.69-6.94,3.46-6.76,7.69,0,.07.1.06.1,0a7.15,7.15,0,0,1,3.63-6.47c2.24-1.23,4.93-1,7.3-1.8,1.62-.57,3.2-1.45,3.81-3.14a13.75,13.75,0,0,0,.45-2.93A10.13,10.13,0,0,1,239.6,219.27Z" transform="translate(-9.03 -10.42)"/><path class="cls-4" d="M242.88,216.8s-.09,0,0,.07c2.49,2,5.12,4,6.1,7.21,1.06,3.45-.39,7.16-3,9.57-2.85,2.7-6.29,1.9-9.82,1.57a14.43,14.43,0,0,0-7.51.83.07.07,0,0,0,.06.13c3.86-1.32,7.6-.51,11.56-.27a7.86,7.86,0,0,0,7.41-3.84C251.63,226.17,248.24,220.24,242.88,216.8Z" transform="translate(-9.03 -10.42)"/><path class="cls-10" d="M222.73,173.58c.85-1.12,2.56.22,1.71,1.34A1.09,1.09,0,0,1,222.73,173.58Z" transform="translate(-9.03 -10.42)"/><path class="cls-10" d="M221.91,175.43c.85-1.12,2.56.22,1.71,1.34S221.07,176.54,221.91,175.43Z" transform="translate(-9.03 -10.42)"/><path class="cls-10" d="M220.78,177.12a1.09,1.09,0,0,1,1.71,1.34C221.64,179.58,219.93,178.24,220.78,177.12Z" transform="translate(-9.03 -10.42)"/><path class="cls-10" d="M219.48,178.61c.84-1.11,2.55.23,1.7,1.35S218.63,179.73,219.48,178.61Z" transform="translate(-9.03 -10.42)"/><path class="cls-10" d="M217.9,179.89c.84-1.11,2.55.22,1.71,1.34A1.09,1.09,0,0,1,217.9,179.89Z" transform="translate(-9.03 -10.42)"/><path class="cls-10" d="M216.18,180.82a1.09,1.09,0,0,1,1.71,1.34A1.09,1.09,0,0,1,216.18,180.82Z" transform="translate(-9.03 -10.42)"/><path class="cls-11" d="M214.55,201c-4.7,5.77-29.8,24-51,23.63-7.19-.11-27.2-30.84-30.89-42.52-2.66-8.39,15.16-12.63,20.19-11.41,6.28,1.51,18.53,27.86,20.95,28,7.19.5,19.55-3.83,34.72-5.37C216.32,192.55,218.16,196.53,214.55,201Z" transform="translate(-9.03 -10.42)"/><path class="cls-11" d="M133.36,184c-1.34-2.92-7.63-19.14-8.14-23.32s-1.11-16.31,2-17,3.62,2.82,3.62,2.82.56-5.16,3.81-5.59,3.77,5.09,3.77,5.09,1-5.26,4.23-5.45,2.88,5.44,2.88,5.44.65-4.85,3.41-3.87c3.32,1.16,1.11,10,2,14.53.2,1,5.68,20.74,5.68,20.74Z" transform="translate(-9.03 -10.42)"/><path class="cls-4" d="M145.6,145.51c-1.61,6.48-1.2,9.59.86,15.83,0,.12-.13.21-.19.09-2.57-5.93-3.65-9.76-1-16C145.42,145.11,145.68,145.2,145.6,145.51Z" transform="translate(-9.03 -10.42)"/><path class="cls-4" d="M138.61,145.49c-1.09,6.87-.67,10.25,1,16.95,0,.09-.14.14-.17.05-2.19-6.43-3.18-10.28-1.19-17C138.35,145.18,138.66,145.18,138.61,145.49Z" transform="translate(-9.03 -10.42)"/><path class="cls-4" d="M131,146.84c-.58,6.73-.28,10.45,2.18,16.74a.12.12,0,0,1-.22.11c-3.14-6.17-3.54-10.82-2.17-16.85C130.87,146.43,131,146.41,131,146.84Z" transform="translate(-9.03 -10.42)"/><path class="cls-11" d="M161.12,180.45s.93-8.32.53-12.06-7-17.14-10-15.88c-3.84,1.64-1.55,10.12.12,14.13,0,0-8.89,3.77-8.56,10.22S161.12,180.45,161.12,180.45Z" transform="translate(-9.03 -10.42)"/><path class="cls-4" d="M150.76,153.31c-2.43,4,.1,9.14,1.42,13.15a.38.38,0,0,1-.35.52c-3.62,1.83-8.2,5.46-8.8,9.7,0,.12-.2.12-.19,0,0-4.63,4.23-8.57,8.32-10.32-1.43-4.09-3.73-9.34-.44-13.07C150.74,153.26,150.77,153.28,150.76,153.31Z" transform="translate(-9.03 -10.42)"/><path class="cls-2" d="M184.53,196.67l8.75,20.24s13.22-6.29,21.25-14.42-.89-10.86-8.68-9.67S184.53,196.67,184.53,196.67Z" transform="translate(-9.03 -10.42)"/><path class="cls-12" d="M214.54,202.49c-8,8.13-21.26,14.42-21.26,14.42l-2.66-6.15,26.63-15.44C218.23,196.94,217.69,199.3,214.54,202.49Z" transform="translate(-9.03 -10.42)"/><path class="cls-4" d="M196.58,214.07A151,151,0,0,1,189,196.7c0-.07.08-.12.11,0,.6,1.57,4.76,10.16,7.57,17.37C196.74,214.11,196.62,214.15,196.58,214.07Z" transform="translate(-9.03 -10.42)"/><path class="cls-2" d="M194.51,236.63,190.92,264h57.3s-7.58-51.34-19.81-67.11c-6.13-7.89-14.33-7.68-20.12-1.65-1.27,1.31-14.08,19.6-16.33,27.15C190,229.07,194.51,236.63,194.51,236.63Z" transform="translate(-9.03 -10.42)"/><path class="cls-4" d="M211.19,198l-3.62,9.7q-1.8,4.86-3.44,9.75c-1,3.28-2.25,6.56-1.76,9.91a25.16,25.16,0,0,0,3.25,9.54l.08.14,0,.13c-.49,4.36-1.08,8.7-1.62,13s-1.14,8.69-1.75,13q.56-6.56,1.19-13.09c.44-4.36.83-8.72,1.32-13.07l.06.28a26.2,26.2,0,0,1-3.5-9.9,14.13,14.13,0,0,1,.38-5.3c.44-1.7,1-3.35,1.53-5,1.11-3.28,2.42-6.49,3.73-9.68S209.73,201.12,211.19,198Z" transform="translate(-9.03 -10.42)"/><path class="cls-4" d="M203.19,210.63a.85.85,0,0,0,.63,1,.78.78,0,0,0,.89-.69.84.84,0,0,0-.63-1A.78.78,0,0,0,203.19,210.63Z" transform="translate(-9.03 -10.42)"/><path class="cls-4" d="M199.72,220.09a.86.86,0,0,0,.63,1,.78.78,0,0,0,.89-.7.86.86,0,0,0-.63-1A.78.78,0,0,0,199.72,220.09Z" transform="translate(-9.03 -10.42)"/><path class="cls-4" d="M199.28,229.73a.86.86,0,0,0,.63,1,.78.78,0,0,0,.89-.7.86.86,0,0,0-.63-1A.78.78,0,0,0,199.28,229.73Z" transform="translate(-9.03 -10.42)"/><path class="cls-4" d="M202,237.71a.86.86,0,0,0,.63,1,.78.78,0,0,0,.89-.7.86.86,0,0,0-.63-1A.78.78,0,0,0,202,237.71Z" transform="translate(-9.03 -10.42)"/><path class="cls-4" d="M200.92,246.42a.86.86,0,0,0,.63,1,.78.78,0,0,0,.89-.7.85.85,0,0,0-.63-1A.78.78,0,0,0,200.92,246.42Z" transform="translate(-9.03 -10.42)"/><path class="cls-4" d="M200,255a.85.85,0,0,0,.63,1,.78.78,0,0,0,.89-.69.85.85,0,0,0-.63-1A.78.78,0,0,0,200,255Z" transform="translate(-9.03 -10.42)"/><path class="cls-11" d="M211.45,294c2.88,2,7.75-6.68,9.4-8.54s2.36-1.79,2.27-.37l3.76-14.93c-1.95,1.51-6.09,4.76-8.28,6.9C215.65,279.93,208.56,292,211.45,294Z" transform="translate(-9.03 -10.42)"/><path class="cls-11" d="M233.06,199.09c12.24,9.87,27.67,27.23,30.81,38.46,2.43,8.66-9.75,38.74-13.38,45.77-1.58,3.06-22.54-6.26-23.47-9.83s13.69-29.48,13.84-32.23-9.41-20.91-15.93-33.19C217,193.19,222.65,190.7,233.06,199.09Z" transform="translate(-9.03 -10.42)"/><path class="cls-11" d="M213.51,302.57c1.93,2.1,5.83-.44,5.83-.44s-3.47,4.29-.75,6,6.43-2,6.43-2-3,4.12-.15,5.58,6.49-1.73,6.49-1.73-.2,1.59,2.27,1.72c3.53.2,8.58-5.54,10.51-9.15s6.32-18.32,7-20.58L228,269.35l-1.07.82-3.76,14.93c-.06.93-2.71,6.65-3.67,8.3C217.27,297.12,211.34,300.21,213.51,302.57Z" transform="translate(-9.03 -10.42)"/><path class="cls-4" d="M219.46,301.92c5.19-3.93,6.78-6.55,9-12.55a.1.1,0,0,1,.19.05c-1.67,6.07-3.19,9.64-9.05,12.76C219.35,302.33,219.22,302.1,219.46,301.92Z" transform="translate(-9.03 -10.42)"/><path class="cls-4" d="M224.76,306.21c5-4.56,6.78-7.38,9.6-13.49,0-.09.19,0,.16.06-2.27,6.23-3.87,9.76-9.49,13.65C224.77,306.6,224.53,306.42,224.76,306.21Z" transform="translate(-9.03 -10.42)"/><path class="cls-4" d="M231.37,309.85c4.56-4.76,6.61-7.77,8.59-14.06a.12.12,0,0,1,.23.06c-1.39,6.61-3.92,10.38-8.66,14.12C231.21,310.23,231.09,310.15,231.37,309.85Z" transform="translate(-9.03 -10.42)"/><path class="cls-2" d="M230.76,226.1l17.66-13.18s-9.17-11.41-18.95-17.35-10.35,3.39-7.4,10.69S230.76,226.1,230.76,226.1Z" transform="translate(-9.03 -10.42)"/><path class="cls-4" d="M244.9,210.36a153.12,153.12,0,0,1-15.15,11.37c-.07.05-.14-.06-.07-.11,1.39-.94,8.78-7,15.14-11.38C244.9,210.19,245,210.3,244.9,210.36Z" transform="translate(-9.03 -10.42)"/><path class="cls-4" d="M227.65,218.62c-1.08-2.41-2.55-5.92-3.76-8.27,0,0-.07,0-.06,0,.48,1.38,1,2.74,1.59,4.09a2.39,2.39,0,0,1-.13-.21c-.45-.63-.9-1.25-1.39-1.85a0,0,0,0,0,0,0c.37.69.77,1.36,1.2,2,.27.41.56.8.85,1.19.3.71,1,2.48,1.33,3.18.52,1.19,3.06,7.89,3.17,7.82s1.11-.76,1.78-1.34c.08-.07,0-.23-.14-.16-.31.27-1.11.8-1.24.9-.58-1.21-1-2.49-1.58-3.72S228.2,219.84,227.65,218.62Z" transform="translate(-9.03 -10.42)"/><path class="cls-11" d="M220.21,193.1c-.29,1-5.56,7.44-10.26,7-1.52-.15-1-8.54-1-8.54l-.1-.62-1.48-8.78,10.53-6,1.52-.79s.25,2.43.53,5.45l0,.43c0,.18,0,.34.06.5,0,.45.09.91.13,1.37s.06.69.07,1.06.05.73.07,1.1A56.19,56.19,0,0,1,220.21,193.1Z" transform="translate(-9.03 -10.42)"/><path class="cls-4" d="M219.9,180.8a17.92,17.92,0,0,1-11.1,10.11l-1.48-8.78,10.53-6,1.52-.79S219.62,177.78,219.9,180.8Z" transform="translate(-9.03 -10.42)"/><path class="cls-11" d="M196.32,166.68c-3.17,15.29,5.63,18.92,8.93,19.6,3,.62,13.27,2.34,18-12.54s-1.37-21.2-8.14-23S199.5,151.38,196.32,166.68Z" transform="translate(-9.03 -10.42)"/><path class="cls-4" d="M201.48,163.08a9.65,9.65,0,0,0,1.08-.05,1.7,1.7,0,0,0,1.09-.25.56.56,0,0,0,.12-.67,1.38,1.38,0,0,0-1.29-.54,2,2,0,0,0-1.37.49A.6.6,0,0,0,201.48,163.08Z" transform="translate(-9.03 -10.42)"/><path class="cls-4" d="M212,165.42c-.35-.11-.66-.26-1-.4a1.68,1.68,0,0,1-.95-.6.55.55,0,0,1,.11-.66,1.4,1.4,0,0,1,1.4-.1,2.06,2.06,0,0,1,1.13.92A.6.6,0,0,1,212,165.42Z" transform="translate(-9.03 -10.42)"/><path class="cls-4" d="M209.29,168.73s.07.06.06.11c-.23,1-.32,2.26.55,2.79,0,0,0,.07,0,.06C208.76,171.3,208.9,169.67,209.29,168.73Z" transform="translate(-9.03 -10.42)"/><path class="cls-4" d="M210.44,167.82c1.7.19,1.18,3.59-.4,3.41S209,167.65,210.44,167.82Z" transform="translate(-9.03 -10.42)"/><path class="cls-4" d="M211.07,168.1c.27.24.51.62.86.71s.78-.2,1.1-.5c0,0,.06,0,.05,0-.09.66-.44,1.28-1.15,1.27s-1-.65-1.08-1.33C210.83,168.17,211,168,211.07,168.1Z" transform="translate(-9.03 -10.42)"/><path class="cls-4" d="M202.87,167.26s-.09,0-.1.08c-.12,1.06-.43,2.25-1.43,2.46,0,0,0,.06,0,.06C202.52,169.86,202.92,168.28,202.87,167.26Z" transform="translate(-9.03 -10.42)"/><path class="cls-4" d="M202.09,166c-1.68-.37-2.3,3-.75,3.35S203.49,166.34,202.09,166Z" transform="translate(-9.03 -10.42)"/><path class="cls-4" d="M201.34,166.11c-.3.13-.62.41-.94.37s-.58-.46-.76-.85c0,0,0,0,0,0-.14.64-.05,1.35.54,1.59s1.07-.26,1.34-.88C201.52,166.26,201.46,166.06,201.34,166.11Z" transform="translate(-9.03 -10.42)"/><path class="cls-4" d="M206.91,176.74c-.28.22-.57.53-1,.52a2.79,2.79,0,0,1-1.11-.39s-.07,0-.05,0a1.43,1.43,0,0,0,1.28.72,1.12,1.12,0,0,0,.93-.85C207,176.73,207,176.7,206.91,176.74Z" transform="translate(-9.03 -10.42)"/><path class="cls-4" d="M203.14,172.22s-.47,1.53-.59,2.27c0,.07.16.13.41.19h0a3.55,3.55,0,0,0,3.63-.75c.06-.06,0-.15-.1-.12a5.34,5.34,0,0,1-3.36.39c0-.21.9-2.59.79-2.62a6.59,6.59,0,0,0-1.74.1c.89-3.22,2.3-6.26,3.14-9.48a.1.1,0,0,0-.18-.08,54.61,54.61,0,0,0-3.83,10.07C201.21,172.6,202.83,172.3,203.14,172.22Z" transform="translate(-9.03 -10.42)"/><path class="cls-4" d="M208,152.7a6.87,6.87,0,0,0-.2,4c1.32,3.6,5.57,3.09,6.86,4.59s.5,4,1.58,5.41c1.5,1.94,3.84,1.47,4,2.69s.6,5.09,2.07,5.72,10.87-24-9.09-25.08c0,0-2.62-1.37-7.06.36-4.9,1.9-7.66,9.39-7.66,9.39s.11-.1.85-.63c1-.75,1.48-1.5,2.24-2,1.18-.76,1.76-.37,3-1.1A13.15,13.15,0,0,0,208,152.7Z" transform="translate(-9.03 -10.42)"/><path class="cls-4" d="M208.37,151.63a13.65,13.65,0,0,0-.87,3,5.7,5.7,0,0,0,.14,3,4.18,4.18,0,0,0,2.12,2c.91.43,1.94.63,2.92,1.14a3.1,3.1,0,0,1,1.24,1.12,4.26,4.26,0,0,1,.44,1.59,5.51,5.51,0,0,0,.84,2.86,3.45,3.45,0,0,0,2.56,1.37,7.47,7.47,0,0,1,3.07.45,7.44,7.44,0,0,0-3.09-.21,3.75,3.75,0,0,1-2.84-1.38,5.63,5.63,0,0,1-1-3,3.73,3.73,0,0,0-.4-1.41,2.67,2.67,0,0,0-1.06-.93c-.88-.47-1.92-.69-2.89-1.17a5.76,5.76,0,0,1-1.34-.91,3.35,3.35,0,0,1-.93-1.35,5.92,5.92,0,0,1,0-3.18A14.25,14.25,0,0,1,208.37,151.63Z" transform="translate(-9.03 -10.42)"/><path class="cls-4" d="M207.91,152.5a10.63,10.63,0,0,1-1.23,2.65,5.2,5.2,0,0,1-2.2,2,6.85,6.85,0,0,1-1.43.4,2.4,2.4,0,0,0-1.14.62,7,7,0,0,1-1,1.09,3.19,3.19,0,0,1-1.33.62,3.58,3.58,0,0,0,1.17-.8,7.25,7.25,0,0,0,.84-1.15,2.51,2.51,0,0,1,1.32-.82,8.23,8.23,0,0,0,1.35-.41,5.45,5.45,0,0,0,2.08-1.78A22.16,22.16,0,0,0,207.91,152.5Z" transform="translate(-9.03 -10.42)"/><path class="cls-11" d="M219.16,173s4.1-4.31,6.11-2.77-1.59,8.13-4.31,8.7a2.64,2.64,0,0,1-3.28-1.94Z" transform="translate(-9.03 -10.42)"/><path class="cls-4" d="M224.19,172a0,0,0,0,1,0,.07c-1.91.46-3.11,2-4,3.61a1.47,1.47,0,0,1,2.22-.06.06.06,0,0,1-.06.09,1.63,1.63,0,0,0-1.86.29,8.35,8.35,0,0,0-1.06,1.3c-.11.15-.39,0-.3-.16l0,0C219.42,174.84,221.69,171.9,224.19,172Z" transform="translate(-9.03 -10.42)"/><path class="cls-2" d="M208.79,192.22l2.21,7.12,9.27-8,2.21,3S213,207.49,213,206.86l-2.36-6.18-4.44,3.81,1.18-10.36Z" transform="translate(-9.03 -10.42)"/><path class="cls-4" d="M206.46,199.34c.25-1.71.46-3.43.79-5.12,0-.06.11-.08.12,0,.21,1.68-.79,8.19-.91,9.76h0c.19-.17,4.1-3.33,4.13-3.28.54,1,2.27,5.49,2.39,5.9,1.5-2.1,7.23-9.69,9-11.64,0-.06.14,0,.1.06-1.36,2.23-8.95,12.47-9.05,12.43a66,66,0,0,1-2.47-6.52c-.67.7-4.65,4.31-4.64,4.05A52.94,52.94,0,0,1,206.46,199.34Z" transform="translate(-9.03 -10.42)"/></g><g id="Character_2" data-name="Character 2"><rect class="cls-13" x="259.48" y="51.82" width="129.39" height="129.39"/><path class="cls-4" d="M323.68,29.45v87.17h87.17V29.45Zm82.44,82.44H328.41V34.18h77.71Z" transform="translate(-9.03 -10.42)"/><path class="cls-4" d="M311.29,139.12l7,.49a21.54,21.54,0,0,0,2.82-12.77c-.07-1,2.06,4.91.73,13,7.4.52,17.45,1.21,26.24,1.74.33-3.43.79-6.59.79-6.59a37.35,37.35,0,0,0,1.12,6.71c1.2.08,2.38.14,3.51.2a135,135,0,0,1,1.32-14.59,46.87,46.87,0,0,0,3.68,14.86c5.58.28,9.26.36,9,.08-8-10.07-1.57-15.36-3.58-24-2.41-10.36-11.15-12.38-10.54-20,.48-6.24,1.78-17.53-6-20.32A15.22,15.22,0,0,0,331.08,74c-12.69,4.21-8.64,23.7-9.67,27.57-1.46,5.55-4.22,7.4-6.5,13.69s.42,10.79.56,15.18S309.89,139.05,311.29,139.12Z" transform="translate(-9.03 -10.42)"/><path class="cls-4" d="M367.86,140.9a21.65,21.65,0,0,1-2.46-5.59,11.41,11.41,0,0,1,.29-5.87,61.33,61.33,0,0,0,1.31-6.12,16.4,16.4,0,0,0-.32-6.46,14.27,14.27,0,0,0-3.11-5.69,37.91,37.91,0,0,0-4.61-4.3,23.11,23.11,0,0,1-4.25-4.31,11.09,11.09,0,0,1-2-5.68,10.44,10.44,0,0,0,1.34,6.08,21.3,21.3,0,0,0,4.07,4.83,48.43,48.43,0,0,1,4.27,4.34,13.77,13.77,0,0,1,2.69,5.15,15.92,15.92,0,0,1,.31,5.85c-.2,2-.67,4-1,6.05a21.81,21.81,0,0,0-.35,3.17,9.33,9.33,0,0,0,.56,3.2A17.69,17.69,0,0,0,367.86,140.9Z" transform="translate(-9.03 -10.42)"/><path class="cls-4" d="M323.7,80.83a31.45,31.45,0,0,0-2,7.38c-.43,2.52-.74,5.05-1,7.58l-.45,3.77a18,18,0,0,1-.74,3.58,20.08,20.08,0,0,1-3.7,6.3,30.1,30.1,0,0,0-2.19,3.24,18.2,18.2,0,0,0-1.55,3.67,26.1,26.1,0,0,0-.73,3.87,15.9,15.9,0,0,0,0,4c.16,1.31.47,2.56.73,3.78a20,20,0,0,1,.41,3.69A7.8,7.8,0,0,1,309.1,138a7.94,7.94,0,0,0,4.15-6.28,18.69,18.69,0,0,0-.15-3.89c-.16-1.29-.42-2.52-.51-3.74a20.3,20.3,0,0,1,.92-7.25,17.44,17.44,0,0,1,1.46-3.31,27.28,27.28,0,0,1,2.11-3c.75-1,1.54-2,2.23-3.19a15.92,15.92,0,0,0,1.64-3.64,19.72,19.72,0,0,0,.68-3.89c.13-1.28.21-2.55.29-3.82.17-2.53.31-5.07.54-7.59A36.64,36.64,0,0,1,323.7,80.83Z" transform="translate(-9.03 -10.42)"/><path class="cls-10" d="M384.75,188.08c0-.15-.06-.29-.08-.45,0,.19.07.37.09.56A.37.37,0,0,1,384.75,188.08Z" transform="translate(-9.03 -10.42)"/><path class="cls-10" d="M359.7,192.51a1.3,1.3,0,0,0,.26.14l0-.06h0l-.27-.06Z" transform="translate(-9.03 -10.42)"/><path class="cls-14" d="M323.93,122.51c-15.72,17.68-34.75,54.15-30.49,61.12,4.75,7.77,27.43-17.42,26.65-18.56-.66-1,6.71-22.78,12.06-38.73S327.81,118.14,323.93,122.51Z" transform="translate(-9.03 -10.42)"/><path class="cls-3" d="M323.93,122.51c-15.72,17.68-34.75,54.15-30.49,61.12,4.75,7.77,27.43-17.42,26.65-18.56-.66-1,6.71-22.78,12.06-38.73S327.81,118.14,323.93,122.51Z" transform="translate(-9.03 -10.42)"/><path class="cls-2" d="M326,144.64c-1.53,4.65-2.94,9-4,12.5-2.43.11-9.53-.28-16.91-7.37,2.22-3.94,4.62-7.89,7.1-11.67A22,22,0,0,0,326,144.64Z" transform="translate(-9.03 -10.42)"/><path class="cls-3" d="M308.76,191.69,312.71,165s-6.33-11-2.66-19c1.86-4,14.56-23.64,21.41-28.61,6.42-4.66,15.21-.41,18.21,3.65,8.6,11.65,12.79,32.63,17.59,70.68Z" transform="translate(-9.03 -10.42)"/><path class="cls-4" d="M320.28,129.7c-1.3,1.78-2.56,3.59-3.8,5.41.34-.71.68-1.42,1-2.13a0,0,0,0,0-.08,0c-.46.89-.88,1.79-1.3,2.7q-2.48,3.69-4.81,7.46a19.13,19.13,0,0,0-1.71,3.34,14.93,14.93,0,0,0-.84,3.55,19.24,19.24,0,0,0-.06,3.64,25.7,25.7,0,0,0,.53,3.71,24,24,0,0,0,1.31,4.06c.28.64.57,1.28.88,1.9s.88,1.72.87,1.77c-.12.64-.24,1.09-.32,1.63l-.24,1.64c-.17,1.1-1.6,11.78-1.76,12.88-.32,2.18-.59,4.37-.86,6.55-.16,1.26-.24,2.52-.42,3.78,0,0,.07.07.08,0,.18-1.1.45-2.17.65-3.26L310,185c.42-2.19,2-14,2.35-16.21.1-.61.19-1.22.29-1.83a12.87,12.87,0,0,0,.23-2,49.51,49.51,0,0,1-2.72-6.85,23.83,23.83,0,0,1-.78-3.64,18.93,18.93,0,0,1,0-3.61,15.82,15.82,0,0,1,.69-3.55,18.39,18.39,0,0,1,1.54-3.38c1.28-2.27,2.64-4.5,4-6.71q2.35-3.76,4.76-7.49S320.31,129.66,320.28,129.7Z" transform="translate(-9.03 -10.42)"/><path class="cls-14" d="M293.44,183.63c4,5.15,14.23,5.64,39.85,9.29,3.55.5,13.84-23.56,10.08-24.29-4.73-.92-23.3-3.48-24.68-3.5C307,165,290.72,180.14,293.44,183.63Z" transform="translate(-9.03 -10.42)"/><path class="cls-14" d="M338.24,167.74s10.83,1.06,16.34,3.38a38.53,38.53,0,0,1,14.48,11.36c4.15,5.27,10.56,20.9,6.38,23.53-3.79,2.38-9.53-13.92-9.53-13.92s8.6,15.66,3.52,17.68-10.67-17.27-10.67-17.27,8.47,16.28,2.9,17.55c-4.22.95-10.26-16.25-10.26-16.25s7.18,14,2.9,15.22c-4.74,1.29-11.32-14.24-11.32-14.24-11.4,1.13-17.29-3-21.13-6.42C320.92,187.52,338.24,167.74,338.24,167.74Z" transform="translate(-9.03 -10.42)"/><path class="cls-4" d="M363.29,186.48c1.07,1.8,2.18,3.62,3.09,5.51s1.76,3.82,2.49,5.79a36.68,36.68,0,0,1,2.12,7.93c-1.07-4.77-4.23-11.59-5.14-13.49s-1.73-3.82-2.63-5.71C363.19,186.46,363.26,186.44,363.29,186.48Z" transform="translate(-9.03 -10.42)"/><path class="cls-4" d="M356.4,189.65c1.27,2.36,2.62,4.66,3.79,7.08s2.06,4.79,3.06,7.27c.07.19-.05.17-.14,0-1.09-2.44-2.29-4.61-3.42-7s-2.15-4.9-3.35-7.28C356.32,189.64,356.38,189.61,356.4,189.65Z" transform="translate(-9.03 -10.42)"/><path class="cls-4" d="M350,191.3a60.64,60.64,0,0,1,5,11.27c.06.19-.1.15-.18,0-1.58-3.78-2.8-6.75-4.92-11.15C349.83,191.31,350,191.23,350,191.3Z" transform="translate(-9.03 -10.42)"/><path class="cls-3" d="M346.42,167.92l-21.09,24.82s-28.81-2-32.13-9.59,18.62-18.65,25.45-18.06S346.42,167.92,346.42,167.92Z" transform="translate(-9.03 -10.42)"/><path class="cls-4" d="M307.56,168.38c1.65-1.13,6.35-3.82,11.09-3.29.06,0,.06.08,0,.08-3.88.12-9.36,2.31-11,3.28C307.55,168.47,307.51,168.41,307.56,168.38Z" transform="translate(-9.03 -10.42)"/><path class="cls-4" d="M320.87,188.45c8.29-8.78,15.67-19.26,17.08-21,.07-.08-.07-.18-.13-.09-1.3,1.77-11,12.84-17.1,21C320.65,188.44,320.79,188.54,320.87,188.45Z" transform="translate(-9.03 -10.42)"/><rect class="cls-8" x="288.54" y="142.81" width="46.73" height="35.89" transform="translate(82.99 423.78) rotate(-78.46)"/><rect class="cls-2" x="308.18" y="135.49" width="17.01" height="5.16" transform="translate(25.21 -71.29) rotate(11.6)"/><polygon class="cls-2" points="312.73 126.06 310.68 125.64 311.15 123.31 306.17 122.28 305.69 124.61 303.64 124.19 304.51 119.95 313.63 121.82 312.73 126.06"/><path class="cls-14" d="M353.88,126.55c16.94,21.55,23.33,60.27,13.93,63.29-8.59,2.76-43.93-6.08-54.45-9.66-3.09-1.05,6.45-25.08,9.76-24,4,1.35,25.85,6.53,26.27,6.54.91,0-3.94-23.82-6-34.62C340.46,113.09,347.52,118.45,353.88,126.55Z" transform="translate(-9.03 -10.42)"/><path class="cls-14" d="M294.87,147.19a3.89,3.89,0,0,0-.34,4.42,5.81,5.81,0,0,0-3.15,2.34c-1.21,2.05,1.45,4.85,1.45,4.85a7.14,7.14,0,0,0-2.93,3c-1,2.07,1.32,5.28,1.32,5.28a6.25,6.25,0,0,0-.91,4.26c.73,3.94,6.43,6.17,10,7.63s15.21,2.21,17.4,2.58l9.56-23.07S313,147.35,308.5,146.24C304.72,145.3,296.88,144.91,294.87,147.19Z" transform="translate(-9.03 -10.42)"/><path class="cls-4" d="M294.85,151.31c4.25,0,8.27,1.32,12.34,2.38a.07.07,0,1,1,0,.14c-4.05-1.1-8.26-1.38-12.34-2.32C294.71,151.49,294.73,151.31,294.85,151.31Z" transform="translate(-9.03 -10.42)"/><path class="cls-4" d="M293,158.53a11,11,0,0,1,2.82.67c1,.31,2,.64,2.93,1,1.94.68,3.87,1.4,5.77,2.18.09,0,.06.17,0,.14-1.94-.67-3.89-1.32-5.85-1.91l-3-.87a13.07,13.07,0,0,1-2.75-.92A.15.15,0,0,1,293,158.53Z" transform="translate(-9.03 -10.42)"/><path class="cls-4" d="M291.31,167.11a7.49,7.49,0,0,1,2.5.74l2.64,1c1.77.64,3.53,1.27,5.32,1.85.09,0,.05.17,0,.14-1.82-.58-3.64-1.13-5.45-1.72l-2.67-.88a7.31,7.31,0,0,1-2.34-1A0,0,0,0,1,291.31,167.11Z" transform="translate(-9.03 -10.42)"/><path class="cls-3" d="M349.08,161.78c.27-.16-4.81-23.17-6.51-35.18s3.66-10.85,11.38-.59c8.26,11,23,40.76,17.88,62.8C370.18,196,319.05,186,319.05,186l6.89-29.39S348.65,162,349.08,161.78Z" transform="translate(-9.03 -10.42)"/><path class="cls-2" d="M369.91,159.6c-8.34,2.45-17.38,1.2-21.07.51-.53-2.89-1.83-9.15-3.15-15.91,8.76,1,14.71-.28,18-1.37A113.58,113.58,0,0,1,369.91,159.6Z" transform="translate(-9.03 -10.42)"/><path class="cls-4" d="M325.74,182.93c3.11-10.23,4.83-21.46,5.27-23.39,0-.1-.13-.12-.15,0-.33,1.92-3.68,14.54-5.27,23.39C325.57,183,325.71,183,325.74,182.93Z" transform="translate(-9.03 -10.42)"/><path class="cls-4" d="M358.69,165.18c-1-.17-27.09-7.52-32.8-8.4-.09,0,0-.32.09-.3a240.26,240.26,0,0,1,33,8.22C360.34,165.22,360.53,165.5,358.69,165.18Z" transform="translate(-9.03 -10.42)"/><path class="cls-4" d="M348.82,162c0-.05-1.72-8.86-2-9.41s-1-1.84-1.28-2.43c-.57-1.19-1.06-2.41-1.58-3.61,0-.1.11-.18.15-.08.56,1.17,1.23,2.28,1.89,3.39.34.54.67,1.09,1,1.63,0,0-1.6-8.61-1.83-10.13,0-.11.1-.14.14,0,.49,1.53,3.91,18.85,4.38,20.76A7.06,7.06,0,0,1,348.82,162Z" transform="translate(-9.03 -10.42)"/><path class="cls-4" d="M329.58,187.78c-1.7-.48-8.53-1.58-10.2-1.82a21.62,21.62,0,0,0,.61-3.74c0-.06-.1-.1-.14,0a30.09,30.09,0,0,0-1.26,4.29c0,.13,9.21,1.29,11,1.38A0,0,0,1,0,329.58,187.78Z" transform="translate(-9.03 -10.42)"/><path class="cls-14" d="M327.3,119.5s.68,6.76,6.29,7.82S349.67,121,349.67,121a15.61,15.61,0,0,0-11.81-5.68C330.55,115.31,327.3,119.5,327.3,119.5Z" transform="translate(-9.03 -10.42)"/><path class="cls-14" d="M343.39,117.61c-.3,1-5.6,7.42-10.29,6.93-1.53-.16-1-8.54-1-8.54l-.11-.63-1.44-8.78,10.56-6,1.52-.78s.23,2.43.5,5.46c0,.14,0,.28,0,.43s0,.33,0,.49c0,.45.09.92.12,1.38s.06.69.07,1.06.05.73.07,1.1A57.53,57.53,0,0,1,343.39,117.61Z" transform="translate(-9.03 -10.42)"/><path class="cls-4" d="M343.12,105.31A17.84,17.84,0,0,1,332,115.37l-1.44-8.78,10.56-6,1.52-.78S342.85,102.28,343.12,105.31Z" transform="translate(-9.03 -10.42)"/><path class="cls-14" d="M320.39,90.2c-4.11,15.07,4.45,19.23,7.7,20.11,3,.8,13.1,3.15,18.74-11.41s-.06-21.23-6.71-23.42S324.5,75.13,320.39,90.2Z" transform="translate(-9.03 -10.42)"/><path class="cls-4" d="M325.82,87.25c.36,0,.71,0,1.07,0A1.69,1.69,0,0,0,328,87.1a.55.55,0,0,0,.16-.66,1.4,1.4,0,0,0-1.25-.63,2,2,0,0,0-1.4.4A.59.59,0,0,0,325.82,87.25Z" transform="translate(-9.03 -10.42)"/><path class="cls-4" d="M336.56,88.75c-.35-.12-.65-.29-1-.44a1.77,1.77,0,0,1-.91-.65.55.55,0,0,1,.15-.66,1.38,1.38,0,0,1,1.39,0,2.07,2.07,0,0,1,1.09,1A.59.59,0,0,1,336.56,88.75Z" transform="translate(-9.03 -10.42)"/><path class="cls-4" d="M333.11,93.57s.07.07.06.11c-.29,1-.45,2.25.4,2.82,0,0,0,.07,0,.06C332.45,96.11,332.68,94.5,333.11,93.57Z" transform="translate(-9.03 -10.42)"/><path class="cls-4" d="M334.3,92.72c1.69.29,1,3.65-.57,3.38S332.88,92.48,334.3,92.72Z" transform="translate(-9.03 -10.42)"/><path class="cls-4" d="M334.92,93c.26.26.48.65.82.76a1.26,1.26,0,0,0,1.12-.45s.06,0,.05,0c-.12.65-.5,1.26-1.21,1.21s-1-.7-1-1.38C334.68,93.09,334.82,92.93,334.92,93Z" transform="translate(-9.03 -10.42)"/><path class="cls-4" d="M326.91,91.52s-.09,0-.1.07c-.19,1-.59,2.21-1.6,2.36a0,0,0,0,0,0,.06C326.39,94.09,326.89,92.54,326.91,91.52Z" transform="translate(-9.03 -10.42)"/><path class="cls-4" d="M326.21,90.23c-1.64-.49-2.5,2.84-1,3.29S327.59,90.64,326.21,90.23Z" transform="translate(-9.03 -10.42)"/><path class="cls-4" d="M325.46,90.27c-.3.11-.65.36-1,.3s-.55-.5-.69-.9c0,0-.05,0-.07,0-.18.63-.14,1.35.44,1.63s1.08-.19,1.39-.78C325.63,90.43,325.59,90.23,325.46,90.27Z" transform="translate(-9.03 -10.42)"/><path class="cls-4" d="M330.45,101.45c-.29.2-.59.5-1,.47a2.79,2.79,0,0,1-1.09-.44,0,0,0,0,0-.05,0,1.44,1.44,0,0,0,1.24.78,1.12,1.12,0,0,0,1-.8C330.57,101.45,330.49,101.42,330.45,101.45Z" transform="translate(-9.03 -10.42)"/><path class="cls-4" d="M326.93,96.74s-.56,1.51-.72,2.24c0,.07.16.14.4.21h0a3.59,3.59,0,0,0,3.67-.56.08.08,0,0,0-.09-.13,5.37,5.37,0,0,1-3.38.22c0-.22,1-2.55.92-2.58a6,6,0,0,0-1.74,0c1.06-3.17,2.62-6.14,3.63-9.31a.1.1,0,0,0-.18-.09,54.63,54.63,0,0,0-4.34,9.86C325,97,326.61,96.8,326.93,96.74Z" transform="translate(-9.03 -10.42)"/><path class="cls-4" d="M326.9,99a4.32,4.32,0,0,0,1.3,1.7,1.89,1.89,0,0,0,1.1.37c.86,0,1.08-.73,1.1-1.41a4.52,4.52,0,0,0-.1-1.06A5.48,5.48,0,0,1,326.9,99Z" transform="translate(-9.03 -10.42)"/><path class="cls-15" d="M328.2,100.66a1.89,1.89,0,0,0,1.1.37c.86,0,1.08-.73,1.1-1.41A2,2,0,0,0,328.2,100.66Z" transform="translate(-9.03 -10.42)"/><path class="cls-4" d="M346,98.65c-1.6-.57-4.57-6.28-2.44-14.22,0,0-1.42,7.26-1.18,8.45s-1.66-3.21,0-9.63a26.79,26.79,0,0,1-7.5,1.51c-3.25,0-5.08-.57-5.23-.85s4.67-.41,6.26-1.44c0,0-9.06,1.42-12.83.64-.43-.09,1.57-9,8.34-11.09s14.64,4.52,16.39,7.56c0,0,2.74,1.23,4.62,6.33S347.72,99.26,346,98.65Z" transform="translate(-9.03 -10.42)"/><path class="cls-14" d="M343.66,99s4.23-4.19,6.19-2.6-1.83,8.09-4.56,8.58a2.65,2.65,0,0,1-3.23-2Z" transform="translate(-9.03 -10.42)"/><path class="cls-4" d="M348.71,98.22c.05,0,0,.06,0,.07-1.93.4-3.17,1.89-4.15,3.49a1.46,1.46,0,0,1,2.22,0s0,.11-.06.09a1.62,1.62,0,0,0-1.86.24,7.83,7.83,0,0,0-1.11,1.26c-.11.15-.38,0-.29-.16l0,0C343.86,100.88,346.22,98,348.71,98.22Z" transform="translate(-9.03 -10.42)"/><path class="cls-14" d="M359.74,192.52l.26.07h0Z" transform="translate(-9.03 -10.42)"/><path class="cls-10" d="M384.67,187.63c0,.19.07.37.09.56a.37.37,0,0,1,0-.11C384.72,187.93,384.69,187.79,384.67,187.63Z" transform="translate(-9.03 -10.42)"/><path class="cls-10" d="M384.67,187.63c0,.19.07.37.09.56a.37.37,0,0,1,0-.11C384.72,187.93,384.69,187.79,384.67,187.63Z" transform="translate(-9.03 -10.42)"/><path class="cls-10" d="M358.56,195.24h0l.81.18Z" transform="translate(-9.03 -10.42)"/><path class="cls-13" d="M384.67,187.63c0,.19.07.37.09.56a.37.37,0,0,1,0-.11C384.72,187.93,384.69,187.79,384.67,187.63Z" transform="translate(-9.03 -10.42)"/></g><g id="Character_1" data-name="Character 1"><path class="cls-2" d="M98.76,20.49V59.91h39.42V20.49Zm3,36.44V23.47H135.2V56.93Z" transform="translate(-9.03 -10.42)"/><rect class="cls-6" x="117.75" width="133.77" height="123.19"/><path class="cls-16" d="M217.56,71.51c16.29,16.52,36.8,51.28,33,58.32-4.26,7.85-27-15.31-26.87-16.66.07-1-7.92-22.14-14-37.49S213.53,67.43,217.56,71.51Z" transform="translate(-9.03 -10.42)"/><path class="cls-8" d="M223.52,113.19c-.7-2.26-11.56-30.09-14.67-38.89s-.22-11.53,8.65-3.47,28.31,35,32.74,49.29c4.28,13.77-2.81,13.77-12.17,7.42C230.41,122.35,223.52,113.19,223.52,113.19Z" transform="translate(-9.03 -10.42)"/><path class="cls-17" d="M216,71.74a7.16,7.16,0,0,1-1.54,3.37,6.42,6.42,0,0,1,.55-1.79A7,7,0,0,1,216,71.74ZM242.83,110a7,7,0,0,0-.55,1.78,6.25,6.25,0,0,0,1-1.58,6.6,6.6,0,0,0,.56-1.78A6.58,6.58,0,0,0,242.83,110Zm-9.6-14.62a6.6,6.6,0,0,0-.56,1.78,6.78,6.78,0,0,0,1-1.58,7.16,7.16,0,0,0,.55-1.79A6.48,6.48,0,0,0,233.23,95.4Zm-10-3.68a6.77,6.77,0,0,0-1.79-.55,6.62,6.62,0,0,0,1.58,1,6.79,6.79,0,0,0,1.79.56A6.78,6.78,0,0,0,223.25,91.72Zm9,14.79a6.25,6.25,0,0,0-1.78-.55,6.25,6.25,0,0,0,1.58,1,6.46,6.46,0,0,0,1.78.55A6.54,6.54,0,0,0,232.24,106.51Zm-7.31-25.33a6.81,6.81,0,0,0-1.78-.55,7.19,7.19,0,0,0,3.36,1.54A7.08,7.08,0,0,0,224.93,81.18Zm-5.58,19.75a6.54,6.54,0,0,0,.87,1.65,6.44,6.44,0,0,0-.42-1.82,6.37,6.37,0,0,0-.87-1.65A6.52,6.52,0,0,0,219.35,100.93Zm18.82,17.62a6.69,6.69,0,0,0,.87,1.65,6.51,6.51,0,0,0-.41-1.82,6.87,6.87,0,0,0-.87-1.65A6.43,6.43,0,0,0,238.17,118.55Zm-12.67-3h0l.32.39a6,6,0,0,0,1.54-.82A6.19,6.19,0,0,0,225.5,115.59Zm22.31,10.51a6.71,6.71,0,0,0,1.65-.87,6.44,6.44,0,0,0-1.82.42,6.37,6.37,0,0,0-1.65.87A6.61,6.61,0,0,0,247.81,126.1ZM214.33,85.31a7.93,7.93,0,0,0-1.18.56l.09.24a7.54,7.54,0,0,0,1.26-.34,6.69,6.69,0,0,0,1.65-.87A6.51,6.51,0,0,0,214.33,85.31Z" transform="translate(-9.03 -10.42)"/><path class="cls-8" d="M221.57,133.64h-62S169.45,85,193.22,64c2.93-2.6,9.56-2,13.88.13,1.55.77,7.09,8.52,8.67,15.85S221.74,133.42,221.57,133.64Z" transform="translate(-9.03 -10.42)"/><path class="cls-4" d="M216.31,83c.48,1.64.88,3.34,1.21,5a1.27,1.27,0,0,0,0-.2c0-1,0-1.93.14-2.88,0,0,.08-.07.09,0a14.89,14.89,0,0,1,.08,2.91c0,.45-.05.91-.09,1.37.13.77.24,1.53.34,2.29.18,1.45.67,6.83.71,7.9,0,.23-.25.26-.31,0-.3-1.08-1.07-6.63-1.31-8.06a76.26,76.26,0,0,1-1-8.38C216.19,83,216.29,83,216.31,83Z" transform="translate(-9.03 -10.42)"/><path class="cls-17" d="M197.1,76.69a6.42,6.42,0,0,1-.55,1.79,6.62,6.62,0,0,1-1,1.58,6.77,6.77,0,0,1,.55-1.79A7.08,7.08,0,0,1,197.1,76.69Zm-8.39,24.68a6.72,6.72,0,0,0-.56,1.78,6.58,6.58,0,0,0,1-1.58,7,7,0,0,0,.55-1.78A6.25,6.25,0,0,0,188.71,101.37Zm-20.13,8.84A6.25,6.25,0,0,0,168,112a7.08,7.08,0,0,0,1-1.58,7.16,7.16,0,0,0,.55-1.79A6.48,6.48,0,0,0,168.58,110.21ZM183.37,126a6.59,6.59,0,0,0-.55,1.78,6.25,6.25,0,0,0,1-1.58,6.72,6.72,0,0,0,.56-1.78A6.58,6.58,0,0,0,183.37,126Zm25.84-30.57a6.25,6.25,0,0,0-.55,1.78,7.16,7.16,0,0,0,1.54-3.37A6.48,6.48,0,0,0,209.21,95.46Zm8.14,16.79a6.25,6.25,0,0,0-.55,1.78,6.86,6.86,0,0,0,1-1.58,7.21,7.21,0,0,0,.55-1.78A6.25,6.25,0,0,0,217.35,112.25Zm-19.7,12.1a6.25,6.25,0,0,0-.55,1.78,6.74,6.74,0,0,0,1-1.58,6.42,6.42,0,0,0,.55-1.79A6.8,6.8,0,0,0,197.65,124.35ZM178.77,91.61a6.77,6.77,0,0,0-.55,1.79A7.16,7.16,0,0,0,179.76,90,7.08,7.08,0,0,0,178.77,91.61Zm23.43-5.52a6.35,6.35,0,0,0-1.78-.55,7.19,7.19,0,0,0,3.36,1.54A6.54,6.54,0,0,0,202.2,86.09ZM206.11,106a6.42,6.42,0,0,0-1.79-.55,6.8,6.8,0,0,0,1.59,1,6.25,6.25,0,0,0,1.78.55A6.74,6.74,0,0,0,206.11,106Zm-36.44,21.13a6.25,6.25,0,0,0-1.78-.55,6.86,6.86,0,0,0,1.58,1,6.59,6.59,0,0,0,1.78.55A6.25,6.25,0,0,0,169.67,127.16Zm37.08,4a6.79,6.79,0,0,0-1.79-.56,6.74,6.74,0,0,0,1.58,1l.38.17,1,.06A7.05,7.05,0,0,0,206.75,131.2ZM183.6,111a6.72,6.72,0,0,0-1.78-.56,6.25,6.25,0,0,0,1.58,1,6.6,6.6,0,0,0,1.78.56A6.25,6.25,0,0,0,183.6,111Zm18.6-42.58a6.35,6.35,0,0,0-1.78-.55,7.19,7.19,0,0,0,3.36,1.54A6.54,6.54,0,0,0,202.2,68.44Zm4,9.25a6.54,6.54,0,0,0,.87,1.65,6.52,6.52,0,0,0-.42-1.82,6.23,6.23,0,0,0-.87-1.65A6.9,6.9,0,0,0,206.21,77.69Zm9.84,46.12a6.69,6.69,0,0,0,.87,1.65,6.51,6.51,0,0,0-.41-1.82,6.87,6.87,0,0,0-.87-1.65A6.43,6.43,0,0,0,216.05,123.81ZM189.47,89.28a6.37,6.37,0,0,0,.87,1.65,6.61,6.61,0,0,0-.42-1.82,6.71,6.71,0,0,0-.87-1.65A6.81,6.81,0,0,0,189.47,89.28Zm7.65,20.3a6.94,6.94,0,0,0,.87,1.66,6.43,6.43,0,0,0-.41-1.82,6.94,6.94,0,0,0-.87-1.66A6.8,6.8,0,0,0,197.12,109.58Zm-35.51,23.81c0,.08,0,.17,0,.25h.16A2,2,0,0,0,161.61,133.39Zm17.45-.08a6.94,6.94,0,0,0-.87-1.66,6.8,6.8,0,0,0,.41,1.82c0,.06.05.12.07.17h.5ZM175.5,119a6.23,6.23,0,0,0,.87,1.65,7.24,7.24,0,0,0-1.29-3.47A6.52,6.52,0,0,0,175.5,119Zm15-47.78a6.94,6.94,0,0,0,.87,1.66,6.43,6.43,0,0,0-.41-1.82,6.69,6.69,0,0,0-.87-1.65A6.44,6.44,0,0,0,190.5,71.22Zm16.59,46.83a6.71,6.71,0,0,0,1.65-.87,6.44,6.44,0,0,0-1.82.42,6.37,6.37,0,0,0-1.65.87A7,7,0,0,0,207.09,118.05ZM190.86,133a6.59,6.59,0,0,0,1.66-.87,6.44,6.44,0,0,0-1.82.42,6.37,6.37,0,0,0-1.65.87A6.46,6.46,0,0,0,190.86,133Zm-27.59-13.51-.12.42a4.88,4.88,0,0,0,.84-.52A5.93,5.93,0,0,0,163.27,119.46Zm14.15-17.19a6.37,6.37,0,0,0,1.65-.87,7.24,7.24,0,0,0-3.47,1.29A6.52,6.52,0,0,0,177.42,102.27Zm13,16.42a6.71,6.71,0,0,0,1.65-.87,6.44,6.44,0,0,0-1.82.42,6.37,6.37,0,0,0-1.65.87A6.61,6.61,0,0,0,190.43,118.69Zm7.72-23.55a6.37,6.37,0,0,0,1.65-.87,7.24,7.24,0,0,0-3.47,1.29A6.81,6.81,0,0,0,198.15,95.14Zm16.35-9.37a6.69,6.69,0,0,0,1.65-.87,6.51,6.51,0,0,0-1.82.41,6.87,6.87,0,0,0-1.65.87A6.8,6.8,0,0,0,214.5,85.77Zm-29.24-5.49a6.29,6.29,0,0,0,1.66-.87,6.44,6.44,0,0,0-1.82.42,6.37,6.37,0,0,0-1.65.87A6.46,6.46,0,0,0,185.26,80.28Z" transform="translate(-9.03 -10.42)"/><path class="cls-16" d="M139.56,44.9c-.13-3,.47-16.67,1.49-20.44s4.74-14.42,7.71-13.93,2.13,3.69,2.13,3.69,2.28-4.25,5.22-3.48,1.48,5.7,1.48,5.7,2.66-4.19,5.54-3.22.57,5.69.57,5.69S166,15,168,16.77c2.45,2.16-2.53,9-3.35,13.22-.18,1-2.35,19.83-2.35,19.83Z" transform="translate(-9.03 -10.42)"/><path class="cls-4" d="M163.89,18.51c-3.65,5-4.38,7.83-4.79,13.92a.1.1,0,0,1-.19,0c-.14-6,.26-9.67,4.75-14.12C163.88,18.1,164.07,18.27,163.89,18.51Z" transform="translate(-9.03 -10.42)"/><path class="cls-4" d="M157.88,16.05c-3.33,5.53-4.15,8.59-5,14.94,0,.09-.16.07-.16,0,.36-6.3.85-9.95,4.91-15C157.76,15.69,158,15.8,157.88,16.05Z" transform="translate(-9.03 -10.42)"/><path class="cls-4" d="M150.85,14.54c-2.84,5.6-3.89,8.91-4,15.18a.12.12,0,0,1-.23,0c-.55-6.4.72-10.54,4-15.25C150.9,14.15,151,14.19,150.85,14.54Z" transform="translate(-9.03 -10.42)"/><path class="cls-16" d="M162.11,53.71s5.66-5.33,7.63-8.21,5.35-16.35,2.48-17.25c-3.7-1.15-7.18,6.24-8.41,10.08,0,0-8.56-2.68-12.21,2.08S162.11,53.71,162.11,53.71Z" transform="translate(-9.03 -10.42)"/><path class="cls-4" d="M171.1,28.27c-4.14,1.38-5.43,6.53-6.9,10.16a.36.36,0,0,1-.57.16c-3.66-.88-9.08-1.07-12.06,1.57a.09.09,0,1,1-.13-.12c2.81-3.26,8.15-3.52,12.1-2.3,1.45-3.75,3-8.85,7.55-9.51C171.11,28.23,171.13,28.26,171.1,28.27Z" transform="translate(-9.03 -10.42)"/><path class="cls-16" d="M196.64,71.25c-3.72,6.44-25.23,26.29-44,29.73-2.54.46-12.23-1.58-14.25-8-3.61-11.44-.73-35.06,1.12-49.27.36-2.78,26.14,2.92,25.47,7.17-.74,4.69-3.5,21.94-3.08,22.14,1.55.71,18-6.4,28.84-8.73C198.44,62.62,199.5,66.29,196.64,71.25Z" transform="translate(-9.03 -10.42)"/><path class="cls-3" d="M135.9,50.73l29.38,6.36s-2.68,15-2.15,14.92,21.13-7.6,29.08-8.39,7.95,2.7,3.92,9.26-30.43,28.53-43.44,28.52c-6.62,0-12.79-4.24-14-6.27C135,88.84,135.9,50.73,135.9,50.73Z" transform="translate(-9.03 -10.42)"/><path class="cls-8" d="M135.9,50.73l29.38,6.36s-2.68,15-2.15,14.92,21.13-7.6,29.08-8.39,7.95,2.7,3.92,9.26-30.43,28.53-43.44,28.52c-6.62,0-12.79-4.24-14-6.27C135,88.84,135.9,50.73,135.9,50.73Z" transform="translate(-9.03 -10.42)"/><path class="cls-17" d="M178,71.64a6.25,6.25,0,0,0-.55,1.78,6.68,6.68,0,0,0,1-1.57,6.42,6.42,0,0,0,.55-1.79A6.74,6.74,0,0,0,178,71.64ZM154.65,97.86a7.21,7.21,0,0,0-.55,1.78,6.94,6.94,0,0,0,1.54-3.36A7.08,7.08,0,0,0,154.65,97.86Zm-17.3-18a6.46,6.46,0,0,0-.55,1.78,7.19,7.19,0,0,0,1.54-3.36A7.32,7.32,0,0,0,137.35,79.88Zm25.58.08a6.25,6.25,0,0,0-.55,1.78,7.08,7.08,0,0,0,1-1.58,6.77,6.77,0,0,0,.55-1.79A6.48,6.48,0,0,0,162.93,80Zm-12.87,7.4a6.42,6.42,0,0,0-.55,1.79,6.6,6.6,0,0,0,1-1.59,6.25,6.25,0,0,0,.55-1.78A6.25,6.25,0,0,0,150.06,87.36Zm1.13-18.06a6.75,6.75,0,0,0-.54,1.79,7.08,7.08,0,0,0,1-1.58,7.16,7.16,0,0,0,.55-1.79A6.78,6.78,0,0,0,151.19,69.3ZM138.12,55.88a7.21,7.21,0,0,0-.55,1.78,7.07,7.07,0,0,0,1.54-3.36A7.08,7.08,0,0,0,138.12,55.88ZM191,71.06a6.37,6.37,0,0,0-.87-1.65,6.82,6.82,0,0,0,.42,1.81,6.69,6.69,0,0,0,.87,1.65A6.46,6.46,0,0,0,191,71.06Zm-17.39,12a6.87,6.87,0,0,0-.87-1.65A7.1,7.1,0,0,0,174,84.88,7,7,0,0,0,173.56,83.06ZM160.49,69.53a6.71,6.71,0,0,0-.87-1.65A6.52,6.52,0,0,0,160,69.7a6.37,6.37,0,0,0,.87,1.65A6.61,6.61,0,0,0,160.49,69.53ZM158.8,89.11a6.71,6.71,0,0,0-.87-1.65,6.43,6.43,0,0,0,.41,1.82,6.69,6.69,0,0,0,.87,1.65A6.51,6.51,0,0,0,158.8,89.11ZM142,87a6.54,6.54,0,0,0-.87-1.65,6.61,6.61,0,0,0,.42,1.82,6.54,6.54,0,0,0,.87,1.65A6.52,6.52,0,0,0,142,87Zm5.28-27.68a6.59,6.59,0,0,0-.87-1.66,7,7,0,0,0,.42,1.83,7.07,7.07,0,0,0,.87,1.65A6.44,6.44,0,0,0,147.32,59.32Zm-2,15.71a6.94,6.94,0,0,0-.87-1.66,6.51,6.51,0,0,0,.41,1.82,6.37,6.37,0,0,0,.87,1.65A6.44,6.44,0,0,0,145.35,75Zm39.75,4.8a6.69,6.69,0,0,0-1.65.87,6.61,6.61,0,0,0,1.82-.42,6.71,6.71,0,0,0,1.65-.87A6.44,6.44,0,0,0,185.1,79.83ZM154,79.11a6.87,6.87,0,0,0-1.65.87,6.59,6.59,0,0,0,1.82-.41,6.87,6.87,0,0,0,1.65-.87A6.51,6.51,0,0,0,154,79.11ZM157,60.65a6.87,6.87,0,0,0-1.65.87,6.51,6.51,0,0,0,1.82-.41,6.69,6.69,0,0,0,1.65-.87A6.51,6.51,0,0,0,157,60.65Zm-16.68,5.8a6.71,6.71,0,0,0-1.65.87,6.44,6.44,0,0,0,1.82-.42,6.37,6.37,0,0,0,1.65-.87A6.61,6.61,0,0,0,140.27,66.45Zm27.74,25a6.37,6.37,0,0,0-1.65.87,6.61,6.61,0,0,0,1.82-.42,6.54,6.54,0,0,0,1.65-.87A6.44,6.44,0,0,0,168,91.49Zm-22.33,4.88a6.37,6.37,0,0,0-1.65.87A7.24,7.24,0,0,0,147.5,96,6.44,6.44,0,0,0,145.68,96.37Zm24.06-24.86a6.87,6.87,0,0,0-1.65.87,7.1,7.1,0,0,0,3.47-1.28A6.51,6.51,0,0,0,169.74,71.51Z" transform="translate(-9.03 -10.42)"/><path class="cls-4" d="M163.36,72.14a45.37,45.37,0,0,1-1.17,6.65c-.5,2.22-1.19,4.37-1.85,6.54,0,0-.09,0-.07,0,.56-2.18,1-4.41,1.45-6.61s.82-4.43,1.38-6.6C163.14,72,163.37,72,163.36,72.14Z" transform="translate(-9.03 -10.42)"/><path class="cls-4" d="M163.55,62.62c-3.4-.84-6.85-1.51-10.29-2.16s-6.9-1.32-10.37-1.89c-1.95-.32-3.91-.65-5.88-.9a0,0,0,0,0,0,.09c3.39.84,6.84,1.52,10.27,2.2s6.9,1.32,10.36,1.93c1.95.34,3.91.65,5.88.91C163.6,62.81,163.65,62.65,163.55,62.62Z" transform="translate(-9.03 -10.42)"/><path class="cls-4" d="M173.25,92.63c.54-.48,1.14-.88,1.7-1.33s1.11-.86,1.66-1.29L180,87.4c2.27-1.75,4.49-3.56,6.73-5.33,1.27-1,2.54-2,3.79-3.09.05,0,.13,0,.08.08-1.55,1.45-3.1,2.89-4.71,4.27l.61-.3c.61-.3,1.22-.63,1.82-1,0,0,.09,0,0,.08a15.93,15.93,0,0,1-1.75,1.09c-.3.16-.61.31-.91.45l-.45.19h0l-1.1.91q-3.32,2.71-6.79,5.23c-.64.46-1.29.92-2,1.35s-1.36,1-2.09,1.36C173.26,92.76,173.19,92.68,173.25,92.63Z" transform="translate(-9.03 -10.42)"/><polygon class="cls-4" points="193.38 68.42 196.81 63.2 200.04 67.59 198.72 71.47 195.06 71.55 193.38 68.42"/><polygon class="cls-4" points="195.06 71.55 188.98 111.99 195.15 126.23 200.72 111.54 198.72 71.47 195.06 71.55"/><path class="cls-16" d="M207.07,73.25c-3.57.87-9.74-4.56-12.2-9-.16-.31.28-3.51.64-7.43.21-2.38.38-5,.37-7.46L211.16,53a38.83,38.83,0,0,0-1.42,9.35,6.12,6.12,0,0,0,.11,1l0,.17C210.2,65.4,210.52,72.41,207.07,73.25Z" transform="translate(-9.03 -10.42)"/><path class="cls-4" d="M197,49.65c.46,3.21,2.65,13.81,11.36,14a9.7,9.7,0,0,0,1.57-.09,1.37,1.37,0,0,1,0-.16,5.37,5.37,0,0,1-.12-1A39,39,0,0,1,211.15,53Z" transform="translate(-9.03 -10.42)"/><path class="cls-16" d="M192.35,32.33c-1.16,5.53,3.06,20.85,7.2,24,6,4.54,15.15,4.22,18.83-2.84,3.57-6.85-2.29-26.71-6.85-29.48C204.81,19.9,194.08,24.15,192.35,32.33Z" transform="translate(-9.03 -10.42)"/><path class="cls-4" d="M206,41.41s-.06.07-.05.12c.31,1,.5,2.24-.35,2.84,0,0,0,.07,0,.06C206.72,44,206.45,42.33,206,41.41Z" transform="translate(-9.03 -10.42)"/><path class="cls-4" d="M204.78,40.58c-1.7.33-.93,3.69.65,3.39S206.2,40.31,204.78,40.58Z" transform="translate(-9.03 -10.42)"/><path class="cls-4" d="M212.21,39.86s.1,0,.1.07c.21,1,.62,2.22,1.65,2.35,0,0,0,.06,0,.06C212.77,42.44,212.24,40.89,212.21,39.86Z" transform="translate(-9.03 -10.42)"/><path class="cls-4" d="M212.89,38.56c1.65-.52,2.55,2.82,1,3.29S211.51,39,212.89,38.56Z" transform="translate(-9.03 -10.42)"/><path class="cls-9" d="M203.1,39.35c.43-.22.79-.5,1.2-.76s.85-.48,1.07-1a.72.72,0,0,0-.31-.83,1.82,1.82,0,0,0-1.82.22A2.68,2.68,0,0,0,202,38.44.78.78,0,0,0,203.1,39.35Z" transform="translate(-9.03 -10.42)"/><path class="cls-9" d="M213.81,36.56a13.39,13.39,0,0,1-1.42,0A2.26,2.26,0,0,1,211,36.2a.73.73,0,0,1-.16-.87,1.82,1.82,0,0,1,1.69-.74,2.65,2.65,0,0,1,1.81.63A.78.78,0,0,1,213.81,36.56Z" transform="translate(-9.03 -10.42)"/><path class="cls-4" d="M207.58,51a1.57,1.57,0,0,0,1,.41,2.82,2.82,0,0,0,1.06-.51s.07,0,.06,0a1.47,1.47,0,0,1-1.2.87,1.14,1.14,0,0,1-1-.74C207.46,51.05,207.53,51,207.58,51Z" transform="translate(-9.03 -10.42)"/><path class="cls-4" d="M208,47.66a3.65,3.65,0,0,0,2.73,1,4.67,4.67,0,0,0,1.29-.24l.24-.08.22-.09a.28.28,0,0,0,.16-.28h0a.3.3,0,0,0,0-.1h0l0-.09c-.17-.81-.52-2-.52-2,.32.08,2,.41,1.85,0A54.92,54.92,0,0,0,210,35.35a.1.1,0,0,0-.18.07c.83,3.33,2.25,6.49,3.14,9.82a6.29,6.29,0,0,0-1.8-.12c-.1.06.74,2.31.78,2.68a0,0,0,0,1,0,0,5,5,0,0,1-3.93-.3C207.94,47.5,207.88,47.59,208,47.66Z" transform="translate(-9.03 -10.42)"/><path class="cls-4" d="M211.42,48.3A4.32,4.32,0,0,1,210,49.93a2,2,0,0,1-1.15.28c-.88-.07-1-.83-1-1.52a4.94,4.94,0,0,1,.19-1.08A5.66,5.66,0,0,0,211.42,48.3Z" transform="translate(-9.03 -10.42)"/><path class="cls-15" d="M210,49.93a2,2,0,0,1-1.15.28c-.88-.07-1-.83-1-1.52A2,2,0,0,1,210,49.93Z" transform="translate(-9.03 -10.42)"/><g class="cls-18"><path d="M207.6,34.23a13.27,13.27,0,0,0,1.66-.24c.54-.15,1.06-.39,1.61-.52a9,9,0,0,1,3.19,0c.09,0,.09.07,0,.06a7.92,7.92,0,0,0-3.32.27,10.07,10.07,0,0,1-2.69.65,10,10,0,0,0-5.85,2s0,0,0,0A9.88,9.88,0,0,1,207.6,34.23Z" transform="translate(-9.03 -10.42)"/><path d="M207.25,32.78a12.13,12.13,0,0,0,1.57-.23c.52-.14,1-.37,1.53-.5a8.51,8.51,0,0,1,3,0c.09,0,.08.06,0,.06a7.3,7.3,0,0,0-3.15.26,9.78,9.78,0,0,1-2.55.61,9.4,9.4,0,0,0-5.54,1.84s0,0,0,0A9.46,9.46,0,0,1,207.25,32.78Z" transform="translate(-9.03 -10.42)"/></g><path class="cls-9" d="M193.87,45.53S188.52,36.7,189,31.59c.23-2.3,3.37-3.86,3.37-3.86A5.22,5.22,0,0,1,194,22.48c2.72-2.57,9.33-2,9.33-2s4.28-6.19,10.34-3.74,2.12,9.33,2.12,9.33,2.23,3.15-3.2,5.62-16.11,0-16.11,0a37.55,37.55,0,0,1-.16,11.2A3.42,3.42,0,0,1,193.87,45.53Z" transform="translate(-9.03 -10.42)"/><path class="cls-9" d="M204.41,20.57a10.72,10.72,0,0,0-4.27-.78,11.39,11.39,0,0,0-3.84.6,6.37,6.37,0,0,0-4.48,4.79,4.46,4.46,0,0,0,.85,3.35s.09,0,.06-.05c-1.41-1.73-.67-4.43.78-5.89a9.58,9.58,0,0,1,6.39-2.36,18.16,18.16,0,0,1,4.47.47A.07.07,0,0,0,204.41,20.57Z" transform="translate(-9.03 -10.42)"/><path class="cls-9" d="M218,19.66a5.18,5.18,0,0,0-3.59-3.3,8.89,8.89,0,0,0-5.74.2A11.17,11.17,0,0,0,204,20s0,.09.06.05a9.81,9.81,0,0,1,9.37-3.49,5.35,5.35,0,0,1,3.88,2.65,5.33,5.33,0,0,1-.13,4.5,10,10,0,0,1-3.9,3.91s0,.08,0,.06a10.38,10.38,0,0,0,3.88-3.32A5.81,5.81,0,0,0,218,19.66Z" transform="translate(-9.03 -10.42)"/><path class="cls-16" d="M196.8,44.72s-4.06-4.64-6.2-3.14,1.29,8.5,4.08,9.2a2.74,2.74,0,0,0,3.49-1.86Z" transform="translate(-9.03 -10.42)"/><path class="cls-4" d="M191.64,43.56s0,.06,0,.08c2,.55,3.14,2.18,4,3.91a1.51,1.51,0,0,0-2.29-.16.06.06,0,0,0,.06.09,1.69,1.69,0,0,1,1.91.39,7.41,7.41,0,0,1,1,1.39c.11.16.4,0,.32-.15l0,0C196.46,46.67,194.23,43.52,191.64,43.56Z" transform="translate(-9.03 -10.42)"/><path class="cls-3" d="M205.69,46.86a4.72,4.72,0,1,1,3.76-6.44h0a4.73,4.73,0,0,1-2.62,6.14A4.81,4.81,0,0,1,205.69,46.86Zm-1.16-8.73a3.84,3.84,0,0,0-1,.26,4.08,4.08,0,1,0,1-.26Z" transform="translate(-9.03 -10.42)"/><path class="cls-3" d="M216.17,44.14c-1.79.23-3.65-1.38-4.26-3.77a5.64,5.64,0,0,1,.15-3.44,3.14,3.14,0,0,1,2.09-2,3.1,3.1,0,0,1,2.79.76,5.68,5.68,0,0,1,1.78,3c.64,2.52-.37,5-2.24,5.44Zm-1.63-8.64-.23,0a2.52,2.52,0,0,0-1.66,1.62,5,5,0,0,0-.13,3.05c.56,2.19,2.26,3.65,3.8,3.26s2.34-2.49,1.79-4.68a5.08,5.08,0,0,0-1.57-2.62A2.6,2.6,0,0,0,214.54,35.5Z" transform="translate(-9.03 -10.42)"/><path class="cls-3" d="M209.43,41l-.51-.37c.55-.75,2-1.95,3.37-1l-.34.53C210.68,39.3,209.48,40.92,209.43,41Z" transform="translate(-9.03 -10.42)"/><path class="cls-3" d="M189.36,47.35l-.62-.15c.07-.28.69-2.81,2-3.38s9.61-1.84,10-1.9l.1.62c-2.41.38-8.87,1.45-9.82,1.86S189.52,46.65,189.36,47.35Z" transform="translate(-9.03 -10.42)"/><path class="cls-2" d="M209.87,63.18l-4.28,8.76L195.23,59.82l-3.41,3.43s9.66,18.78,9.79,18l4.23-7.48,5,5.75L211.3,66Z" transform="translate(-9.03 -10.42)"/><path class="cls-4" d="M211.43,72.81c0-2.23.07-4.49,0-6.72,0-.08-.13-.13-.15,0-.6,2.12-.58,10.67-.73,12.71l0,0c-.21-.25-4.62-5.08-4.67-5-.89,1.17-4,6.62-4.21,7.12-1.53-3-7.42-13.85-9.27-16.7-.06-.08-.18,0-.14.07,1.31,3.13,9.09,17.75,9.23,17.72A88.18,88.18,0,0,0,205.88,74c.73,1,5.15,6.44,5.19,6.11A71.86,71.86,0,0,0,211.43,72.81Z" transform="translate(-9.03 -10.42)"/><path class="cls-16" d="M250.54,129.83c-3.67,5.25-13.66,6.25-38.57,11.13-3.44.67-14.75-22.37-11.11-23.28,4.59-1.15,22.65-4.6,24-4.69C236.27,112.27,253,126.27,250.54,129.83Z" transform="translate(-9.03 -10.42)"/><path class="cls-16" d="M205.84,116.54s-10.55,1.6-15.83,4.15a37.65,37.65,0,0,0-13.6,11.87c-3.81,5.38-9.28,21-5,23.37,3.82,2.14,8.61-14.12,8.61-14.12s-7.62,15.78-2.53,17.5S187,141.84,187,141.84s-7.46,16.39-1.94,17.34c4.17.72,9.22-16.44,9.22-16.44s-6.32,14.13-2.06,15.06c4.71,1,10.35-14.53,10.35-14.53,11.23.53,16.79-3.81,20.38-7.36C223.82,135,205.84,116.54,205.84,116.54Z" transform="translate(-9.03 -10.42)"/><path class="cls-4" d="M182.26,136.18c-1,1.82-1.95,3.66-2.75,5.56s-1.52,3.83-2.14,5.8a34.82,34.82,0,0,0-1.67,7.87c.8-4.72,3.55-11.57,4.34-13.47s1.5-3.83,2.29-5.73C182.35,136.16,182.28,136.14,182.26,136.18Z" transform="translate(-9.03 -10.42)"/><path class="cls-4" d="M189.17,138.93c-1.12,2.38-2.33,4.7-3.35,7.13s-1.78,4.8-2.63,7.28c-.06.19.06.17.14,0,.94-2.45,2-4.64,3-7.07s1.86-4.91,2.92-7.29C189.25,138.92,189.19,138.9,189.17,138.93Z" transform="translate(-9.03 -10.42)"/><path class="cls-4" d="M195.53,140.23a59,59,0,0,0-4.3,11.29c0,.19.1.14.17-.05,1.36-3.78,2.4-6.76,4.26-11.17C195.69,140.23,195.57,140.16,195.53,140.23Z" transform="translate(-9.03 -10.42)"/><path class="cls-8" d="M203.64,116.54l21.83,24.31s22.06-5.07,25.31-10.73c2.14-3.73-14.47-18.82-27-17.06Z" transform="translate(-9.03 -10.42)"/><path class="cls-17" d="M223,131.71a7.19,7.19,0,0,1-1.54,3.36,7.19,7.19,0,0,1,1.54-3.36Zm15.16-1.36a6.25,6.25,0,0,0-.55,1.78,6.74,6.74,0,0,0,1-1.58,6.42,6.42,0,0,0,.55-1.79A6.8,6.8,0,0,0,238.18,130.35Zm-10.81-5.11a6.77,6.77,0,0,0-1.79-.55,6.48,6.48,0,0,0,1.59,1,6.25,6.25,0,0,0,1.78.55A7.08,7.08,0,0,0,227.37,125.24Zm10.8-6.69a6.69,6.69,0,0,0,.87,1.65,6.51,6.51,0,0,0-.41-1.82,6.87,6.87,0,0,0-.87-1.65A6.43,6.43,0,0,0,238.17,118.55Zm-22.12,5.26a6.69,6.69,0,0,0,.87,1.65,6.51,6.51,0,0,0-.41-1.82,6.87,6.87,0,0,0-.87-1.65A6.43,6.43,0,0,0,216.05,123.81Zm-9-5.76a6.71,6.71,0,0,0,1.65-.87,6.44,6.44,0,0,0-1.82.42,6.37,6.37,0,0,0-1.65.87A7,7,0,0,0,207.09,118.05Zm18.58-2a6.54,6.54,0,0,0,1.65-.87,6.52,6.52,0,0,0-1.82.42,6.23,6.23,0,0,0-1.65.87A6.9,6.9,0,0,0,225.67,116Zm6.87,21.36a6.34,6.34,0,0,0,1.65-.86,6.59,6.59,0,0,0-1.82.41,7.07,7.07,0,0,0-1.65.87A6.44,6.44,0,0,0,232.54,137.4ZM249,125.29a7.48,7.48,0,0,0-1.31.36,6.59,6.59,0,0,0-1.66.87,7,7,0,0,0,1.83-.42,7.27,7.27,0,0,0,1.29-.62Z" transform="translate(-9.03 -10.42)"/><path class="cls-4" d="M238.73,117a21.69,21.69,0,0,0-15-4c-.06,0-.07.12,0,.11,5.48-.15,12.87,2.71,14.93,4C238.74,117.14,238.78,117.05,238.73,117Z" transform="translate(-9.03 -10.42)"/><path class="cls-4" d="M231.43,136.78c-2.25-2.8-4.66-5.48-7.07-8.15s-4.82-5.35-7.3-8c-1.4-1.48-2.79-3-4.25-4.39,0,0-.11,0-.07.06,2.25,2.79,4.65,5.49,7,8.17s4.82,5.35,7.27,8c1.38,1.49,2.79,3,4.24,4.39C231.36,137,231.5,136.86,231.43,136.78Z" transform="translate(-9.03 -10.42)"/><path class="cls-4" d="M203.6,116.23a31.46,31.46,0,0,1,4.09-.93q2.07-.39,4.14-.72c2.76-.44,8.54-1.69,13.62-1.67.05,0-.24.27-.29.27-2.42-.13-19.76,3.31-21.18,3.42a1.51,1.51,0,0,1,.15.28c0,.07,0,.17-.11.12a4.6,4.6,0,0,1-.47-.41A.2.2,0,0,1,203.6,116.23Z" transform="translate(-9.03 -10.42)"/></g><g id="Plant"><path class="cls-8" d="M61.47,247.35a67,67,0,0,0-2.17,12.3c.11.21.09,1,0,.76,0,.68-1,.55-1-.11,0-.44,0-.87,0-1.29-2.4-3-5.89-4.88-8.72-7.47a16.31,16.31,0,0,1-4.77-7.61c-2.34-8.06-.15-16.61-3-24.66-2.43-6.93-6.78-13-10.47-19.25-3.88-6.65-6.75-13.63-7-21.42-.23-6,.48-13.9,5-18.37,4.81-4.74,10.78-1.18,14.47,3C54.46,175.53,59.4,191,61.4,206.87c1.1,8.77,2.25,17.6,2,26.45A70.6,70.6,0,0,1,61.47,247.35Z" transform="translate(-9.03 -10.42)"/><path class="cls-4" d="M59.34,262.87A150.36,150.36,0,0,0,59.05,238s0-.05,0-.09c.14-6.72.67-13.41.41-20.13a120.08,120.08,0,0,0-3-21.59c0-.08-.15-.06-.13,0a141.29,141.29,0,0,1,2.34,21.12c.13,3.79.1,7.59-.1,11.38-.06,1.23-.17,2.47-.26,3.72h0a132.9,132.9,0,0,0-20-52.88c-.14-.21-.53,0-.39.24A138,138,0,0,1,54.28,219c-5.13-9.52-12.89-17.35-18.65-26.5,0-.05-.12,0-.09.06,5.17,10.18,13.72,18.21,19.16,28.24Q56.13,227,57,233.19a139.22,139.22,0,0,1,1.24,17.18c-3.13-5.85-6.38-11.44-8.94-17.63-.07-.16-.3-.05-.25.11,2.18,6.43,5.11,13.35,9.21,18.83q0,6.1-.34,12.2c-.64,10.85-2.49,21.55-3.35,32.36a.25.25,0,0,0,.5.06A249.05,249.05,0,0,0,59.34,262.87Z" transform="translate(-9.03 -10.42)"/><path class="cls-4" d="M47.83,179.23a.07.07,0,1,0-.12.05c2,5.48,3.1,11,4.53,16.64a.21.21,0,0,0,.41-.06C52.06,190.16,50,184.48,47.83,179.23Z" transform="translate(-9.03 -10.42)"/><path class="cls-8" d="M98.13,202.19a84.15,84.15,0,0,1-4.55,9.36C90,218,86.29,224,85.61,231.5c-.3,3.37-.4,6.76-1.43,10a30.43,30.43,0,0,1-4,7.83c-3.87,5.63-8.7,10.48-12.29,16.33a69.1,69.1,0,0,0-8.16,19.67c-.09.38-.68.28-.59-.1l0-.08s0,0,0-.08c-.56-16.18.73-32.48,5.66-48a165.93,165.93,0,0,1,7.84-20c2.64-5.62,5.93-11,10.57-15.21,3-2.72,9.54-7.85,13.83-5.14C99.1,198.1,98.94,200.17,98.13,202.19Z" transform="translate(-9.03 -10.42)"/><path class="cls-4" d="M81.88,238.85a134.05,134.05,0,0,1-9.4,13.51c-1.57,2-3.16,4.08-4.72,6.12-.74,1-1.57,1.93-2.25,3,.43-1.7.85-3.4,1.28-5.1,2.09-8.17,4.1-16.42,7.2-24.27a164,164,0,0,1,11.23-22c.11-.19-.19-.32-.3-.14-3.42,5.62-6.89,11.23-9.76,17.16A91.56,91.56,0,0,0,71,237.26a157.46,157.46,0,0,1,5.51-21.75c0-.07-.07-.11-.09,0a74.47,74.47,0,0,0-5.73,22.63v0c-.7,2.11-1.34,4.23-1.94,6.36-2.55,9.05-4.79,18.2-6.86,27.37a97,97,0,0,1,1.56-18c0-.13-.18-.16-.21,0a56.6,56.6,0,0,0-1.56,19q-1.18,5.23-2.3,10.48c-1.59,7.45-3.54,15-4.47,22.61a.15.15,0,0,0,.3.05c1.11-4.08,1.78-8.31,2.69-12.44s1.84-8.28,2.81-12.42c1.4-6,2.87-12,4.37-18,1-2.2,2.94-4.15,4.39-6,1.59-2,3.19-4,4.74-6.11a91.27,91.27,0,0,0,7.78-12C82.07,238.83,81.93,238.77,81.88,238.85Z" transform="translate(-9.03 -10.42)"/><path class="cls-4" d="M82.57,231.94a83.7,83.7,0,0,0-9.2,14.61c0,.07.07.14.11.07,3.1-4.85,6.14-9.74,9.23-14.59C82.76,231.94,82.62,231.86,82.57,231.94Z" transform="translate(-9.03 -10.42)"/><path class="cls-8" d="M13.71,217.52c2.1,3.61,4.49,7.95,3.59,12.28-.57,2.74-2.58,5-2.94,7.77-.81,6.18,5.35,10.26,9.8,13.18C35.27,258,50.5,264.53,52.52,279.42c.08.52,1,.39.92-.13a.29.29,0,0,0,0-.09s0-.05,0-.09a56.86,56.86,0,0,0-.21-22.73c-1.65-7.67-5-14.56-8.95-21.3-6.68-11.4-13.76-23.08-23.87-31.81-2.8-2.42-8.53-6.76-10.75-1.31C7.52,207.26,11.15,213.12,13.71,217.52Z" transform="translate(-9.03 -10.42)"/><path class="cls-4" d="M23.88,241.7c7.36,8,19.07,12.44,25.41,21.37a89.42,89.42,0,0,0-19.53-36.69.29.29,0,0,1,.41-.4,72.3,72.3,0,0,1,15.95,23.11,102.56,102.56,0,0,0-6.87-17.57.19.19,0,0,1,.33-.19A67,67,0,0,1,47,251.08c8.36,20.22,9.13,43.93,7.38,65.24,0,.31-.49.31-.48,0,.48-16.79.21-33.88-3.82-50.28-.08-.34-.17-.68-.26-1-6.9-9.61-18.55-14.07-26-23.2C23.68,241.74,23.8,241.61,23.88,241.7Z" transform="translate(-9.03 -10.42)"/><path class="cls-4" d="M22.17,234.85C26,238.4,29.84,242,33.72,245.57c0,0,0,.1-.06.07a56.36,56.36,0,0,1-11.72-10.56A.16.16,0,0,1,22.17,234.85Z" transform="translate(-9.03 -10.42)"/><path class="cls-4" d="M21.56,219.49a120.86,120.86,0,0,0,11.57,15.9c0,.07,0,.16-.1.1a56.31,56.31,0,0,1-11.68-15.88C21.29,219.47,21.48,219.35,21.56,219.49Z" transform="translate(-9.03 -10.42)"/><polygon class="cls-3" points="29.94 320.93 63.8 320.93 59.23 275.38 35.15 275.38 29.94 320.93"/><polygon class="cls-4" points="34.3 282.78 59.98 282.78 59.24 275.38 35.15 275.38 34.3 282.78"/><rect class="cls-3" x="40.03" y="280.75" width="31.74" height="7.27" transform="translate(102.76 558.35) rotate(180)"/></g></svg>