<svg xmlns="http://www.w3.org/2000/svg" viewBox="0 0 420.81 372.06"><defs><style>.cls-1{fill:#ebebeb;}.cls-2{fill:#e6e6e6;}.cls-3{fill:#e0e0e0;}.cls-4{fill:#f0f0f0;}.cls-5{fill:#f5f5f5;}.cls-16,.cls-17,.cls-6,.cls-7{fill:#fff;}.cls-7{opacity:0.8;}.cls-14,.cls-22,.cls-23,.cls-25,.cls-8{fill:#f8931f;}.cls-9{opacity:0.5;}.cls-10,.cls-16,.cls-19,.cls-28{opacity:0.3;}.cls-11,.cls-14,.cls-15,.cls-17,.cls-18{opacity:0.4;}.cls-12,.cls-18{fill:#407bff;}.cls-13{fill:#ffb469;}.cls-20{opacity:0.71;}.cls-21{opacity:0.42;}.cls-22,.cls-30,.cls-34{opacity:0.2;}.cls-23{opacity:0.79;}.cls-24{opacity:0.52;}.cls-25{opacity:0.57;}.cls-26{fill:#ff8b7b;}.cls-27{fill:#c97520;}.cls-28,.cls-34{isolation:isolate;}.cls-29{fill:#263238;}.cls-31{opacity:0.1;}.cls-32{opacity:0.6;}.cls-33{fill:#cc6a12;}.cls-35{fill:#ff5652;}.cls-36{fill:#bf6a1d;}.cls-37{fill:#ffaf66;}.cls-38{fill:#f99f46;}</style></defs><title>investments</title><g id="Background_Complete" data-name="Background Complete"><rect class="cls-1" x="378.57" y="343.54" width="33.12" height="0.25"/><rect class="cls-1" x="284.32" y="346.26" width="8.69" height="0.25"/><rect class="cls-1" x="358.38" y="334.26" width="19.19" height="0.25"/><rect class="cls-1" x="14.25" y="335.94" width="43.19" height="0.25"/><rect class="cls-1" x="66.35" y="335.94" width="6.33" height="0.25"/><rect class="cls-1" x="93.26" y="340.16" width="93.68" height="0.25"/><path class="cls-1" d="M203.29,287.4H10.19a5.71,5.71,0,0,1-5.71-5.71V10.26a5.71,5.71,0,0,1,5.71-5.71h193.1A5.71,5.71,0,0,1,209,10.26V281.69A5.71,5.71,0,0,1,203.29,287.4ZM10.19,4.8a5.47,5.47,0,0,0-5.46,5.46V281.69a5.47,5.47,0,0,0,5.46,5.46h193.1a5.47,5.47,0,0,0,5.46-5.46V10.26a5.47,5.47,0,0,0-5.46-5.46Z" transform="translate(-4.48 -4.55)"/><path class="cls-1" d="M419.59,287.4H226.49a5.71,5.71,0,0,1-5.71-5.71V10.26a5.71,5.71,0,0,1,5.71-5.71h193.1a5.72,5.72,0,0,1,5.71,5.71V281.69A5.72,5.72,0,0,1,419.59,287.4ZM226.49,4.8A5.47,5.47,0,0,0,221,10.26V281.69a5.47,5.47,0,0,0,5.46,5.46h193.1a5.47,5.47,0,0,0,5.46-5.46V10.26a5.47,5.47,0,0,0-5.46-5.46Z" transform="translate(-4.48 -4.55)"/><rect class="cls-2" x="88.57" y="187.66" width="22.4" height="94.96"/><rect class="cls-3" x="125.91" y="155.28" width="22.4" height="127.34"/><rect class="cls-1" x="163.25" y="187.66" width="22.4" height="94.96"/><rect class="cls-4" x="13.9" y="220.04" width="22.4" height="62.58"/><rect class="cls-1" x="51.24" y="204.41" width="22.4" height="78.21"/><rect class="cls-5" x="200.59" y="220.04" width="22.4" height="62.58"/><rect class="cls-3" x="387.29" y="122.9" width="22.4" height="159.72"/><rect class="cls-4" x="237.93" y="187.66" width="22.4" height="94.96"/><rect class="cls-2" x="349.95" y="155.28" width="22.4" height="127.34"/><rect class="cls-1" x="312.61" y="172.03" width="22.4" height="110.59"/><rect class="cls-4" x="275.27" y="204.41" width="22.4" height="78.21"/><circle class="cls-3" cx="34.19" cy="162" r="15.63" transform="translate(-135.81 153.51) rotate(-76.72)"/><circle class="cls-2" cx="36.06" cy="162" r="15.63" transform="translate(-108.47 68.4) rotate(-45)"/><circle class="cls-4" cx="31.58" cy="157.45" r="11.7"/><path class="cls-6" d="M41.2,164.49c.45,2.58-1.32,4.31-4.52,4.59l-.06,2.13H34.68l0-2.13a10.82,10.82,0,0,1-4.73-1.5l.88-2.41a8.92,8.92,0,0,0,3.92,1.38l.08-3.29c-1.9-.54-4-1.26-4.42-3.61-.45-2.59,1.36-4.34,4.62-4.57l.06-2.14h1.94l0,2.16a9.63,9.63,0,0,1,3.77,1.1L40,158.62a7.58,7.58,0,0,0-3.08-1L36.88,161C38.76,161.55,40.81,162.25,41.2,164.49Zm-6.26-4,.07-2.8c-1.07.22-1.58.82-1.47,1.56S34.19,160.19,34.94,160.48Zm3.2,4.51c-.1-.56-.61-.91-1.33-1.16l-.06,2.66C37.76,166.28,38.27,165.73,38.14,165Z" transform="translate(-4.48 -4.55)"/><rect class="cls-4" x="312.96" y="25.53" width="96.37" height="45.74" rx="7.49"/><rect class="cls-6" x="330.48" y="31.76" width="8.22" height="33.92" rx="0.72"/><rect class="cls-6" x="385.98" y="31.76" width="8.22" height="33.92" rx="0.72"/><rect class="cls-6" x="359.2" y="42.94" width="8.22" height="22.74" rx="0.72"/><rect class="cls-6" x="344.96" y="48.4" width="8.22" height="17.28" rx="0.72"/><rect class="cls-6" x="372.59" y="61.68" width="8.22" height="4" rx="0.72"/><path class="cls-3" d="M394.7,36.11a.72.72,0,0,0-1,.37l-12,26.05a.72.72,0,0,1-1.29.09L369.25,45.67a.72.72,0,0,0-1-.23L354.31,51a.74.74,0,0,1-.76,0L338.3,35.68a.72.72,0,0,0-1,.33l0,.08a.73.73,0,0,0,.31.94l16.06,15.83a.74.74,0,0,0,.76,0l13.41-5.26a.73.73,0,0,1,1,.23l11.83,18.08a.72.72,0,0,0,1.29-.1L395.05,37A.73.73,0,0,0,394.7,36.11Z" transform="translate(-4.48 -4.55)"/><circle class="cls-3" cx="183" cy="53.83" r="16.31"/><circle class="cls-7" cx="182.8" cy="53.83" r="13.09"/><circle class="cls-3" cx="182.77" cy="54.91" r="1.33"/><polygon class="cls-3" points="182.61 55.4 176.98 50.1 177.53 49.52 182.63 54.32 191.78 46.25 192.3 46.84 182.61 55.4"/></g><g id="Shadow"><ellipse id="_Path_" data-name="&lt;Path&gt;" class="cls-5" cx="211.79" cy="360.74" rx="193.89" ry="11.32"/></g><g id="Chart_2" data-name="Chart 2"><rect class="cls-8" x="178.99" y="187.75" width="66.02" height="173.73"/><rect class="cls-9" x="195.99" y="187.75" width="49.23" height="173.73"/><rect class="cls-8" x="265.24" y="246.98" width="66.02" height="114.49"/><rect class="cls-10" x="282.03" y="246.7" width="49.23" height="114.77"/><rect class="cls-8" x="92.33" y="218.73" width="66.02" height="142.74"/><rect class="cls-11" x="109.12" y="218.38" width="49.23" height="143.09"/></g><g id="Coins"><path class="cls-8" d="M122.65,366.06c-.09,2.13,6.64,4.14,15,4.5S153,369.48,153,367.35s-6.64-4.13-15-4.49S122.74,363.94,122.65,366.06Z" transform="translate(-4.48 -4.55)"/><rect class="cls-8" x="136" y="349.58" width="3.85" height="30.42" transform="translate(-236.86 482.56) rotate(-87.57)"/><path class="cls-12" d="M122.67,362.36c-.09,2.13,6.64,4.14,15,4.49s15.27-1.07,15.36-3.2-6.64-4.14-15-4.49S122.76,360.23,122.67,362.36Z" transform="translate(-4.48 -4.55)"/><path class="cls-13" d="M122.67,362.36c-.09,2.13,6.64,4.14,15,4.49s15.27-1.07,15.36-3.2-6.64-4.14-15-4.49S122.76,360.23,122.67,362.36Z" transform="translate(-4.48 -4.55)"/><path class="cls-12" d="M124.61,362.29a.53.53,0,0,0,.13.38c1-1.25,6.57-2,13.21-1.7s12.13,1.49,13,2.82a.68.68,0,0,0,.16-.37c.06-1.44-5.82-2.88-13.15-3.19S124.67,360.85,124.61,362.29Z" transform="translate(-4.48 -4.55)"/><path class="cls-8" d="M124.61,362.29a.53.53,0,0,0,.13.38c1-1.25,6.57-2,13.21-1.7s12.13,1.49,13,2.82a.68.68,0,0,0,.16-.37c.06-1.44-5.82-2.88-13.15-3.19S124.67,360.85,124.61,362.29Z" transform="translate(-4.48 -4.55)"/><path class="cls-14" d="M124.88,362.53c.91,1.33,6.38,2.53,13,2.81s12.22-.45,13.21-1.7c-.89-1.33-6.36-2.53-13-2.82S125.9,361.28,124.88,362.53Z" transform="translate(-4.48 -4.55)"/><path class="cls-8" d="M119.31,360.38c-.09,2.13,6.64,4.14,15,4.5s15.27-1.08,15.36-3.21-6.64-4.14-15-4.49S119.4,358.25,119.31,360.38Z" transform="translate(-4.48 -4.55)"/><rect class="cls-8" x="132.66" y="343.89" width="3.85" height="30.42" transform="translate(-234.38 473.8) rotate(-87.57)"/><path class="cls-12" d="M119.48,356.53c-.09,2.13,6.64,4.14,15,4.5s15.27-1.08,15.36-3.21-6.64-4.14-15-4.49S119.57,354.41,119.48,356.53Z" transform="translate(-4.48 -4.55)"/><path class="cls-13" d="M119.48,356.53c-.09,2.13,6.64,4.14,15,4.5s15.27-1.08,15.36-3.21-6.64-4.14-15-4.49S119.57,354.41,119.48,356.53Z" transform="translate(-4.48 -4.55)"/><path class="cls-12" d="M121.42,356.47a.57.57,0,0,0,.12.37c1-1.25,6.58-2,13.22-1.7s12.13,1.49,13,2.82a.65.65,0,0,0,.16-.37c.06-1.44-5.82-2.88-13.15-3.19S121.48,355,121.42,356.47Z" transform="translate(-4.48 -4.55)"/><path class="cls-8" d="M121.42,356.47a.57.57,0,0,0,.12.37c1-1.25,6.58-2,13.22-1.7s12.13,1.49,13,2.82a.65.65,0,0,0,.16-.37c.06-1.44-5.82-2.88-13.15-3.19S121.48,355,121.42,356.47Z" transform="translate(-4.48 -4.55)"/><path class="cls-14" d="M121.54,356.84c.91,1.33,6.38,2.54,13,2.82s12.22-.45,13.22-1.7c-.89-1.33-6.37-2.54-13-2.82S122.56,355.59,121.54,356.84Z" transform="translate(-4.48 -4.55)"/><path class="cls-8" d="M119.73,353.36c-.09,2.13,6.64,4.14,15,4.49s15.27-1.07,15.36-3.2-6.64-4.14-15-4.49S119.82,351.23,119.73,353.36Z" transform="translate(-4.48 -4.55)"/><rect class="cls-8" x="133.08" y="336.87" width="3.85" height="30.42" transform="translate(-226.97 467.48) rotate(-87.57)"/><path class="cls-12" d="M119.89,349.51c-.09,2.13,6.64,4.14,15,4.5s15.27-1.08,15.36-3.21-6.64-4.14-15-4.49S120,347.38,119.89,349.51Z" transform="translate(-4.48 -4.55)"/><path class="cls-13" d="M119.89,349.51c-.09,2.13,6.64,4.14,15,4.5s15.27-1.08,15.36-3.21-6.64-4.14-15-4.49S120,347.38,119.89,349.51Z" transform="translate(-4.48 -4.55)"/><path class="cls-12" d="M121.83,349.44a.53.53,0,0,0,.13.38c1-1.25,6.57-2,13.21-1.7s12.13,1.49,13,2.82a.65.65,0,0,0,.16-.37c.06-1.44-5.82-2.88-13.15-3.19S121.89,348,121.83,349.44Z" transform="translate(-4.48 -4.55)"/><path class="cls-8" d="M121.83,349.44a.53.53,0,0,0,.13.38c1-1.25,6.57-2,13.21-1.7s12.13,1.49,13,2.82a.65.65,0,0,0,.16-.37c.06-1.44-5.82-2.88-13.15-3.19S121.89,348,121.83,349.44Z" transform="translate(-4.48 -4.55)"/><path class="cls-14" d="M122,349.82c.9,1.33,6.38,2.54,13,2.82s12.21-.45,13.21-1.7c-.89-1.33-6.36-2.54-13-2.82S123,348.57,122,349.82Z" transform="translate(-4.48 -4.55)"/><path class="cls-8" d="M116.53,347.53c-.09,2.13,6.64,4.14,15,4.5s15.27-1.08,15.36-3.21-6.64-4.14-15-4.49S116.62,345.41,116.53,347.53Z" transform="translate(-4.48 -4.55)"/><rect class="cls-8" x="129.88" y="331.04" width="3.85" height="30.42" transform="translate(-224.21 458.69) rotate(-87.57)"/><path class="cls-13" d="M116.7,343.68c-.09,2.13,6.64,4.14,15,4.5S147,347.1,147.09,345s-6.64-4.14-15-4.49S116.79,341.56,116.7,343.68Z" transform="translate(-4.48 -4.55)"/><path class="cls-8" d="M118.64,343.62a.57.57,0,0,0,.12.37c1-1.25,6.58-2,13.22-1.7s12.13,1.49,13,2.82a.65.65,0,0,0,.16-.37c.06-1.44-5.82-2.88-13.15-3.19S118.7,342.18,118.64,343.62Z" transform="translate(-4.48 -4.55)"/><path class="cls-14" d="M118.64,343.62a.57.57,0,0,0,.12.37c1-1.25,6.58-2,13.22-1.7s12.13,1.49,13,2.82a.65.65,0,0,0,.16-.37c.06-1.44-5.82-2.88-13.15-3.19S118.7,342.18,118.64,343.62Z" transform="translate(-4.48 -4.55)"/><path class="cls-14" d="M118.76,344c.91,1.34,6.39,2.54,13,2.82s12.22-.45,13.22-1.7c-.89-1.33-6.37-2.53-13-2.82S119.78,342.74,118.76,344Z" transform="translate(-4.48 -4.55)"/><path class="cls-8" d="M121.41,342.59c-.09,2.13,6.64,4.14,15,4.5s15.27-1.08,15.36-3.21-6.64-4.14-15-4.49S121.5,340.47,121.41,342.59Z" transform="translate(-4.48 -4.55)"/><rect class="cls-8" x="134.76" y="326.1" width="3.85" height="30.42" transform="translate(-214.6 458.85) rotate(-87.57)"/><path class="cls-13" d="M121.57,338.74c-.09,2.13,6.64,4.14,15,4.5S151.87,342.16,152,340s-6.64-4.14-15-4.49S121.66,336.62,121.57,338.74Z" transform="translate(-4.48 -4.55)"/><path class="cls-8" d="M123.51,338.68a.58.58,0,0,0,.13.37c1-1.25,6.57-2,13.21-1.7s12.13,1.49,13,2.82a.54.54,0,0,0,.16-.37c.06-1.44-5.82-2.88-13.15-3.19S123.57,337.24,123.51,338.68Z" transform="translate(-4.48 -4.55)"/><path class="cls-14" d="M123.64,339.05c.91,1.34,6.38,2.54,13,2.82s12.21-.45,13.21-1.7c-.89-1.33-6.36-2.53-13-2.82S124.66,337.8,123.64,339.05Z" transform="translate(-4.48 -4.55)"/><path class="cls-8" d="M118.22,336.76c-.09,2.13,6.64,4.14,15,4.5s15.27-1.08,15.36-3.21-6.64-4.13-15-4.49S118.31,334.64,118.22,336.76Z" transform="translate(-4.48 -4.55)"/><rect class="cls-8" x="131.57" y="320.28" width="3.85" height="30.42" transform="translate(-211.84 450.07) rotate(-87.57)"/><path class="cls-13" d="M118.38,332.91c-.09,2.13,6.64,4.14,15,4.5s15.27-1.08,15.36-3.21-6.64-4.13-15-4.49S118.47,330.79,118.38,332.91Z" transform="translate(-4.48 -4.55)"/><path class="cls-8" d="M120.32,332.85a.57.57,0,0,0,.13.38c1-1.25,6.57-2,13.21-1.71s12.13,1.49,13,2.82a.62.62,0,0,0,.16-.37c.06-1.44-5.82-2.88-13.15-3.19S120.38,331.41,120.32,332.85Z" transform="translate(-4.48 -4.55)"/><path class="cls-14" d="M120.45,333.23c.9,1.33,6.38,2.53,13,2.81s12.21-.45,13.21-1.7c-.89-1.33-6.36-2.53-13-2.82S121.46,332,120.45,333.23Z" transform="translate(-4.48 -4.55)"/><path class="cls-8" d="M77.18,364.35c-.09,2.12,6.64,4.13,15,4.49s15.27-1.08,15.36-3.2-6.64-4.14-15-4.5S77.27,362.22,77.18,364.35Z" transform="translate(-4.48 -4.55)"/><rect class="cls-8" x="90.53" y="347.86" width="3.85" height="30.42" transform="translate(-278.69 435.49) rotate(-87.57)"/><path class="cls-12" d="M77.35,360.5c-.1,2.12,6.63,4.13,15,4.49s15.26-1.08,15.35-3.2-6.63-4.14-15-4.5S77.44,358.37,77.35,360.5Z" transform="translate(-4.48 -4.55)"/><path class="cls-13" d="M77.35,360.5c-.1,2.12,6.63,4.13,15,4.49s15.26-1.08,15.35-3.2-6.63-4.14-15-4.5S77.44,358.37,77.35,360.5Z" transform="translate(-4.48 -4.55)"/><path class="cls-12" d="M79.28,360.43a.67.67,0,0,0,.13.38c1-1.25,6.57-2,13.21-1.7s12.14,1.48,13,2.81a.52.52,0,0,0,.16-.36c.07-1.44-5.82-2.89-13.14-3.2S79.34,359,79.28,360.43Z" transform="translate(-4.48 -4.55)"/><path class="cls-8" d="M79.28,360.43a.67.67,0,0,0,.13.38c1-1.25,6.57-2,13.21-1.7s12.14,1.48,13,2.81a.52.52,0,0,0,.16-.36c.07-1.44-5.82-2.89-13.14-3.2S79.34,359,79.28,360.43Z" transform="translate(-4.48 -4.55)"/><path class="cls-14" d="M79.41,360.81c.91,1.33,6.38,2.53,13,2.81s12.22-.45,13.21-1.7c-.88-1.33-6.36-2.53-13-2.81S80.43,359.56,79.41,360.81Z" transform="translate(-4.48 -4.55)"/><path class="cls-8" d="M90.4,360.59c-.49,2.07,5.74,5.33,13.91,7.27s15.19,1.84,15.68-.23-5.73-5.32-13.9-7.27S90.89,358.52,90.4,360.59Z" transform="translate(-4.48 -4.55)"/><rect class="cls-8" x="103.72" y="347.03" width="3.85" height="30.42" transform="translate(-275.69 376.66) rotate(-76.62)"/><path class="cls-13" d="M91.29,356.84c-.49,2.07,5.74,5.33,13.91,7.27s15.19,1.84,15.69-.23-5.74-5.32-13.91-7.27S91.79,354.77,91.29,356.84Z" transform="translate(-4.48 -4.55)"/><path class="cls-8" d="M93.21,357.15a.59.59,0,0,0,.05.39c1.24-1,6.83-.7,13.3.84s11.63,3.76,12.25,5.24a.56.56,0,0,0,.22-.33c.34-1.4-5.16-3.94-12.3-5.63S93.54,355.75,93.21,357.15Z" transform="translate(-4.48 -4.55)"/><g class="cls-15"><path class="cls-14" d="M93.26,357.54c.64,1.48,5.79,3.7,12.25,5.24s12.08,1.88,13.3.84c-.62-1.48-5.77-3.7-12.25-5.24S94.5,356.51,93.26,357.54Z" transform="translate(-4.48 -4.55)"/></g><circle class="cls-8" cx="124.49" cy="317.25" r="13.7"/><circle class="cls-13" cx="126.14" cy="317.25" r="13.7"/><circle class="cls-8" cx="130.62" cy="321.8" r="10.26" transform="translate(-193.77 182.07) rotate(-45)"/><path class="cls-16" d="M134.76,325.18a4.21,4.21,0,0,1-3.2,1.31,4.46,4.46,0,0,1-4.29-2.8h5.52v-1.18H127c0-.17,0-.35,0-.53s0-.37,0-.54h5.82v-1.18h-5.52a4.46,4.46,0,0,1,4.29-2.8,4.25,4.25,0,0,1,3.2,1.29l.16.17,1.11-1.09-.15-.17a5.77,5.77,0,0,0-4.39-1.74,6,6,0,0,0-6,4.34h-2v1.18h1.74a4.7,4.7,0,0,0,0,.54,4.61,4.61,0,0,0,0,.53h-1.74v1.18h2a6,6,0,0,0,6,4.34,5.78,5.78,0,0,0,4.39-1.76l.15-.16L134.92,325Z" transform="translate(-4.48 -4.55)"/><path class="cls-8" d="M322.55,368.08c-.08,2.13-6.95,3.61-15.34,3.31s-15.14-2.27-15.06-4.4,6.94-3.61,15.34-3.3S322.62,366,322.55,368.08Z" transform="translate(-4.48 -4.55)"/><rect class="cls-8" x="305.49" y="350.4" width="3.85" height="30.42" transform="translate(-73.46 655.18) rotate(-87.95)"/><path class="cls-12" d="M322.69,364.23c-.08,2.13-6.95,3.61-15.34,3.31s-15.14-2.27-15.06-4.4,6.94-3.61,15.34-3.3S322.76,362.11,322.69,364.23Z" transform="translate(-4.48 -4.55)"/><path class="cls-13" d="M322.69,364.23c-.08,2.13-6.95,3.61-15.34,3.31s-15.14-2.27-15.06-4.4,6.94-3.61,15.34-3.3S322.76,362.11,322.69,364.23Z" transform="translate(-4.48 -4.55)"/><path class="cls-12" d="M320.76,364a.62.62,0,0,1-.16.37c-.92-1.32-6.4-2.49-13-2.73s-12.21.53-13.2,1.79a.65.65,0,0,1-.13-.38c0-1.44,6-2.42,13.36-2.15S320.81,362.57,320.76,364Z" transform="translate(-4.48 -4.55)"/><path class="cls-8" d="M320.76,364a.62.62,0,0,1-.16.37c-.92-1.32-6.4-2.49-13-2.73s-12.21.53-13.2,1.79a.65.65,0,0,1-.13-.38c0-1.44,6-2.42,13.36-2.15S320.81,362.57,320.76,364Z" transform="translate(-4.48 -4.55)"/><g class="cls-15"><path class="cls-14" d="M320.6,364.38c-1,1.26-6.56,2-13.2,1.79s-12.14-1.41-13-2.73c1-1.26,6.54-2,13.2-1.79S319.68,363.06,320.6,364.38Z" transform="translate(-4.48 -4.55)"/></g><path class="cls-8" d="M326.19,362.52c-.08,2.13-6.95,3.61-15.34,3.31s-15.14-2.27-15.06-4.4,6.94-3.61,15.34-3.3S326.26,360.39,326.19,362.52Z" transform="translate(-4.48 -4.55)"/><rect class="cls-8" x="309.13" y="344.84" width="3.85" height="30.42" transform="translate(-64.41 653.44) rotate(-87.94)"/><path class="cls-12" d="M326.33,358.67c-.08,2.13-6.95,3.61-15.34,3.31s-15.14-2.27-15.06-4.4,6.94-3.61,15.33-3.3S326.4,356.54,326.33,358.67Z" transform="translate(-4.48 -4.55)"/><path class="cls-13" d="M326.33,358.67c-.08,2.13-6.95,3.61-15.34,3.31s-15.14-2.27-15.06-4.4,6.94-3.61,15.33-3.3S326.4,356.54,326.33,358.67Z" transform="translate(-4.48 -4.55)"/><path class="cls-12" d="M324.4,358.45a.65.65,0,0,1-.16.37c-.92-1.32-6.4-2.49-13-2.73s-12.21.53-13.2,1.79a.58.58,0,0,1-.13-.38c.05-1.44,6-2.42,13.36-2.15S324.45,357,324.4,358.45Z" transform="translate(-4.48 -4.55)"/><path class="cls-8" d="M324.4,358.45a.65.65,0,0,1-.16.37c-.92-1.32-6.4-2.49-13-2.73s-12.21.53-13.2,1.79a.58.58,0,0,1-.13-.38c.05-1.44,6-2.42,13.36-2.15S324.45,357,324.4,358.45Z" transform="translate(-4.48 -4.55)"/><g class="cls-15"><path class="cls-14" d="M324.24,358.82c-1,1.26-6.56,2-13.2,1.79s-12.14-1.41-13-2.73c1-1.26,6.54-2,13.2-1.79S323.32,357.5,324.24,358.82Z" transform="translate(-4.48 -4.55)"/></g><path class="cls-8" d="M326.32,355.49c-.07,2.13-6.94,3.61-15.33,3.3s-15.14-2.26-15.06-4.39,6.94-3.61,15.33-3.31S326.4,353.36,326.32,355.49Z" transform="translate(-4.48 -4.55)"/><rect class="cls-8" x="309.27" y="337.81" width="3.85" height="30.42" transform="translate(-57.25 646.79) rotate(-87.94)"/><path class="cls-12" d="M326.46,351.64c-.07,2.13-6.94,3.61-15.33,3.3s-15.14-2.26-15.07-4.39,6.95-3.61,15.34-3.31S326.54,349.51,326.46,351.64Z" transform="translate(-4.48 -4.55)"/><path class="cls-13" d="M326.46,351.64c-.07,2.13-6.94,3.61-15.33,3.3s-15.14-2.26-15.07-4.39,6.95-3.61,15.34-3.31S326.54,349.51,326.46,351.64Z" transform="translate(-4.48 -4.55)"/><path class="cls-12" d="M324.53,351.42a.58.58,0,0,1-.15.37c-.92-1.33-6.4-2.49-13-2.73s-12.21.53-13.2,1.79a.55.55,0,0,1-.13-.38c.05-1.44,6-2.42,13.36-2.16S324.59,350,324.53,351.42Z" transform="translate(-4.48 -4.55)"/><path class="cls-8" d="M324.53,351.42a.58.58,0,0,1-.15.37c-.92-1.33-6.4-2.49-13-2.73s-12.21.53-13.2,1.79a.55.55,0,0,1-.13-.38c.05-1.44,6-2.42,13.36-2.16S324.59,350,324.53,351.42Z" transform="translate(-4.48 -4.55)"/><g class="cls-15"><path class="cls-14" d="M324.38,351.79c-1,1.26-6.56,2-13.2,1.79s-12.14-1.41-13-2.73c1-1.26,6.54-2,13.2-1.79S323.46,350.46,324.38,351.79Z" transform="translate(-4.48 -4.55)"/></g><path class="cls-8" d="M330,349.93c-.07,2.13-6.94,3.6-15.33,3.3s-15.14-2.27-15.06-4.39,6.94-3.61,15.33-3.31S330,347.8,330,349.93Z" transform="translate(-4.48 -4.55)"/><rect class="cls-8" x="312.91" y="332.25" width="3.85" height="30.42" transform="translate(-48.17 645.09) rotate(-87.95)"/><path class="cls-12" d="M330.1,346.08c-.07,2.12-6.94,3.6-15.34,3.3s-15.13-2.27-15.06-4.39,6.95-3.61,15.34-3.31S330.18,344,330.1,346.08Z" transform="translate(-4.48 -4.55)"/><path class="cls-13" d="M330.1,346.08c-.07,2.12-6.94,3.6-15.34,3.3s-15.13-2.27-15.06-4.39,6.95-3.61,15.34-3.31S330.18,344,330.1,346.08Z" transform="translate(-4.48 -4.55)"/><path class="cls-12" d="M328.17,345.86a.58.58,0,0,1-.15.37c-.92-1.33-6.4-2.49-13-2.73s-12.21.53-13.2,1.79a.57.57,0,0,1-.13-.38c.05-1.44,6-2.42,13.35-2.16S328.23,344.42,328.17,345.86Z" transform="translate(-4.48 -4.55)"/><path class="cls-8" d="M328.17,345.86a.58.58,0,0,1-.15.37c-.92-1.33-6.4-2.49-13-2.73s-12.21.53-13.2,1.79a.57.57,0,0,1-.13-.38c.05-1.44,6-2.42,13.35-2.16S328.23,344.42,328.17,345.86Z" transform="translate(-4.48 -4.55)"/><g class="cls-15"><path class="cls-14" d="M328,346.23c-1,1.25-6.56,2-13.2,1.79s-12.15-1.41-13-2.73c1-1.26,6.54-2,13.2-1.79S327.1,344.9,328,346.23Z" transform="translate(-4.48 -4.55)"/></g><path class="cls-8" d="M209.24,363.81c-.09,2.12,6.64,4.13,15,4.49s15.27-1.08,15.36-3.2-6.64-4.14-15-4.5S209.33,361.68,209.24,363.81Z" transform="translate(-4.48 -4.55)"/><rect class="cls-8" x="222.59" y="347.32" width="3.85" height="30.42" transform="translate(-151.69 566.91) rotate(-87.57)"/><path class="cls-12" d="M209.41,360c-.09,2.12,6.64,4.14,15,4.49s15.26-1.08,15.36-3.2-6.64-4.14-15-4.5S209.5,357.83,209.41,360Z" transform="translate(-4.48 -4.55)"/><path class="cls-13" d="M209.41,360c-.09,2.12,6.64,4.14,15,4.49s15.26-1.08,15.36-3.2-6.64-4.14-15-4.5S209.5,357.83,209.41,360Z" transform="translate(-4.48 -4.55)"/><path class="cls-8" d="M211.34,359.89a.65.65,0,0,0,.13.38c1-1.25,6.58-2,13.21-1.7s12.14,1.48,13,2.81a.58.58,0,0,0,.17-.36c.06-1.44-5.83-2.88-13.15-3.2S211.41,358.45,211.34,359.89Z" transform="translate(-4.48 -4.55)"/><path class="cls-8" d="M211.34,359.89a.65.65,0,0,0,.13.38c1-1.25,6.58-2,13.21-1.7s12.14,1.48,13,2.81a.57.57,0,0,0,.16-.36c.1-.79-5.81-2.77-13.14-3.2S211.41,358.45,211.34,359.89Z" transform="translate(-4.48 -4.55)"/><path class="cls-14" d="M211.47,360.27c.91,1.33,6.38,2.53,13,2.82s12.22-.46,13.21-1.71c-.88-1.33-6.36-2.53-13-2.81S212.49,359,211.47,360.27Z" transform="translate(-4.48 -4.55)"/><path class="cls-8" d="M206.05,358c-.09,2.12,6.64,4.14,15,4.49s15.27-1.08,15.36-3.2-6.64-4.14-15-4.5S206.14,355.85,206.05,358Z" transform="translate(-4.48 -4.55)"/><rect class="cls-8" x="219.4" y="341.49" width="3.85" height="30.42" transform="translate(-148.92 558.16) rotate(-87.57)"/><path class="cls-12" d="M206.21,354.13c-.09,2.12,6.64,4.14,15,4.49s15.27-1.07,15.36-3.2-6.64-4.14-15-4.49S206.3,352,206.21,354.13Z" transform="translate(-4.48 -4.55)"/><path class="cls-13" d="M206.21,354.13c-.09,2.12,6.64,4.14,15,4.49s15.27-1.07,15.36-3.2-6.64-4.14-15-4.49S206.3,352,206.21,354.13Z" transform="translate(-4.48 -4.55)"/><path class="cls-12" d="M208.15,354.06a.58.58,0,0,0,.13.38c1-1.25,6.57-2,13.21-1.7s12.13,1.49,13,2.82a.56.56,0,0,0,.16-.37c.06-1.44-5.82-2.88-13.15-3.19S208.21,352.62,208.15,354.06Z" transform="translate(-4.48 -4.55)"/><path class="cls-8" d="M208.15,354.06a.58.58,0,0,0,.13.38c1-1.25,6.57-2,13.21-1.7s12.13,1.49,13,2.82a.56.56,0,0,0,.16-.37c.06-1.44-5.82-2.88-13.15-3.19S208.21,352.62,208.15,354.06Z" transform="translate(-4.48 -4.55)"/><path class="cls-14" d="M208.28,354.44c.91,1.33,6.38,2.54,13,2.82s12.21-.45,13.21-1.7c-.89-1.33-6.36-2.54-13-2.82S209.3,353.19,208.28,354.44Z" transform="translate(-4.48 -4.55)"/><path class="cls-8" d="M206.46,351c-.09,2.12,6.64,4.14,15,4.49s15.27-1.08,15.36-3.2-6.64-4.14-15-4.5S206.55,348.83,206.46,351Z" transform="translate(-4.48 -4.55)"/><rect class="cls-8" x="219.81" y="334.47" width="3.85" height="30.42" transform="translate(-141.51 551.84) rotate(-87.57)"/><path class="cls-12" d="M206.63,347.11c-.09,2.12,6.64,4.14,15,4.49s15.27-1.07,15.36-3.2-6.64-4.14-15-4.5S206.72,345,206.63,347.11Z" transform="translate(-4.48 -4.55)"/><path class="cls-13" d="M206.63,347.11c-.09,2.12,6.64,4.14,15,4.49s15.27-1.07,15.36-3.2-6.64-4.14-15-4.5S206.72,345,206.63,347.11Z" transform="translate(-4.48 -4.55)"/><path class="cls-12" d="M208.56,347a.65.65,0,0,0,.13.38c1-1.25,6.58-2,13.21-1.7s12.14,1.48,13,2.82a.63.63,0,0,0,.17-.37c.06-1.44-5.82-2.88-13.15-3.2S208.63,345.6,208.56,347Z" transform="translate(-4.48 -4.55)"/><path class="cls-8" d="M208.56,347a.65.65,0,0,0,.13.38c1-1.25,6.58-2,13.21-1.7s12.14,1.48,13,2.82a.63.63,0,0,0,.17-.37c.06-1.44-5.82-2.88-13.15-3.2S208.63,345.6,208.56,347Z" transform="translate(-4.48 -4.55)"/><path class="cls-14" d="M208.69,347.42c.91,1.33,6.38,2.53,13,2.82s12.22-.45,13.21-1.7c-.88-1.34-6.36-2.54-13-2.82S209.71,346.17,208.69,347.42Z" transform="translate(-4.48 -4.55)"/><path class="cls-8" d="M203.27,345.13c-.09,2.12,6.64,4.14,15,4.49s15.27-1.07,15.36-3.2-6.64-4.14-15-4.49S203.36,343,203.27,345.13Z" transform="translate(-4.48 -4.55)"/><rect class="cls-8" x="216.62" y="328.64" width="3.85" height="30.42" transform="translate(-138.76 543.05) rotate(-87.57)"/><path class="cls-12" d="M203.43,341.28c-.09,2.13,6.64,4.14,15,4.49s15.27-1.07,15.36-3.2-6.64-4.14-15-4.49S203.52,339.15,203.43,341.28Z" transform="translate(-4.48 -4.55)"/><path class="cls-13" d="M203.43,341.28c-.09,2.13,6.64,4.14,15,4.49s15.27-1.07,15.36-3.2-6.64-4.14-15-4.49S203.52,339.15,203.43,341.28Z" transform="translate(-4.48 -4.55)"/><path class="cls-12" d="M205.37,341.21a.58.58,0,0,0,.13.38c1-1.25,6.57-2,13.21-1.7s12.13,1.49,13,2.82a.56.56,0,0,0,.16-.37c.06-1.44-5.82-2.88-13.15-3.19S205.43,339.77,205.37,341.21Z" transform="translate(-4.48 -4.55)"/><path class="cls-8" d="M205.37,341.21a.58.58,0,0,0,.13.38c1-1.25,6.57-2,13.21-1.7s12.13,1.49,13,2.82a.56.56,0,0,0,.16-.37c.06-1.44-5.82-2.88-13.15-3.19S205.43,339.77,205.37,341.21Z" transform="translate(-4.48 -4.55)"/><path class="cls-14" d="M205.5,341.59c.91,1.33,6.38,2.54,13,2.82s12.21-.45,13.21-1.7c-.89-1.33-6.36-2.54-13-2.82S206.52,340.34,205.5,341.59Z" transform="translate(-4.48 -4.55)"/><path class="cls-8" d="M208.15,340.19c-.1,2.13,6.63,4.14,15,4.49s15.26-1.07,15.35-3.2-6.63-4.14-15-4.49S208.24,338.06,208.15,340.19Z" transform="translate(-4.48 -4.55)"/><rect class="cls-8" x="221.5" y="323.7" width="3.85" height="30.42" transform="translate(-129.14 543.21) rotate(-87.57)"/><path class="cls-12" d="M208.31,336.34c-.09,2.13,6.64,4.14,15,4.49s15.27-1.07,15.36-3.2-6.64-4.14-15-4.49S208.4,334.21,208.31,336.34Z" transform="translate(-4.48 -4.55)"/><path class="cls-13" d="M208.31,336.34c-.09,2.13,6.64,4.14,15,4.49s15.27-1.07,15.36-3.2-6.64-4.14-15-4.49S208.4,334.21,208.31,336.34Z" transform="translate(-4.48 -4.55)"/><path class="cls-12" d="M210.25,336.27a.53.53,0,0,0,.13.38c1-1.25,6.57-2,13.21-1.7s12.13,1.49,13,2.82a.68.68,0,0,0,.16-.37c.06-1.44-5.82-2.88-13.15-3.19S210.31,334.83,210.25,336.27Z" transform="translate(-4.48 -4.55)"/><path class="cls-8" d="M210.25,336.27a.53.53,0,0,0,.13.38c1-1.25,6.57-2,13.21-1.7s12.13,1.49,13,2.82a.68.68,0,0,0,.16-.37c.06-1.44-5.82-2.88-13.15-3.19S210.31,334.83,210.25,336.27Z" transform="translate(-4.48 -4.55)"/><path class="cls-14" d="M210.38,336.65c.9,1.33,6.38,2.54,13,2.82s12.21-.45,13.21-1.7c-.89-1.33-6.36-2.54-13-2.82S211.39,335.4,210.38,336.65Z" transform="translate(-4.48 -4.55)"/><path class="cls-8" d="M205,334.36c-.09,2.13,6.64,4.14,15,4.5s15.27-1.08,15.36-3.21-6.64-4.14-15-4.49S205,332.24,205,334.36Z" transform="translate(-4.48 -4.55)"/><rect class="cls-8" x="218.3" y="317.87" width="3.85" height="30.42" transform="translate(-126.38 534.43) rotate(-87.57)"/><path class="cls-12" d="M205.12,330.51c-.09,2.13,6.64,4.14,15,4.5s15.26-1.08,15.36-3.21-6.64-4.14-15-4.49S205.21,328.39,205.12,330.51Z" transform="translate(-4.48 -4.55)"/><path class="cls-13" d="M205.12,330.51c-.09,2.13,6.64,4.14,15,4.5s15.26-1.08,15.36-3.21-6.64-4.14-15-4.49S205.21,328.39,205.12,330.51Z" transform="translate(-4.48 -4.55)"/><path class="cls-12" d="M207.05,330.45a.64.64,0,0,0,.13.37c1-1.25,6.58-2,13.21-1.7s12.14,1.49,13,2.82a.6.6,0,0,0,.17-.37c.06-1.44-5.82-2.88-13.15-3.19S207.12,329,207.05,330.45Z" transform="translate(-4.48 -4.55)"/><path class="cls-8" d="M207.05,330.45a.64.64,0,0,0,.13.37c1-1.25,6.58-2,13.21-1.7s12.14,1.49,13,2.82a.6.6,0,0,0,.17-.37c.06-1.44-5.82-2.88-13.15-3.19S207.12,329,207.05,330.45Z" transform="translate(-4.48 -4.55)"/><g class="cls-15"><path class="cls-14" d="M207.18,330.82c.91,1.34,6.38,2.54,13,2.82s12.22-.45,13.21-1.7c-.88-1.33-6.36-2.53-13-2.82S208.2,329.57,207.18,330.82Z" transform="translate(-4.48 -4.55)"/></g><path class="cls-8" d="M238.52,330.22c.09,2.13-6.64,4.14-15,4.5s-15.27-1.08-15.36-3.21,6.64-4.13,15-4.49S238.43,328.1,238.52,330.22Z" transform="translate(-4.48 -4.55)"/><rect class="cls-8" x="208.04" y="327.02" width="30.42" height="3.85" transform="matrix(1, -0.04, 0.04, 1, -18.24, 5.22)"/><path class="cls-12" d="M238.36,326.37c.09,2.13-6.64,4.14-15,4.5s-15.27-1.08-15.36-3.21,6.64-4.13,15-4.49S238.27,324.25,238.36,326.37Z" transform="translate(-4.48 -4.55)"/><path class="cls-13" d="M238.36,326.37c.09,2.13-6.64,4.14-15,4.5s-15.27-1.08-15.36-3.21,6.64-4.13,15-4.49S238.27,324.25,238.36,326.37Z" transform="translate(-4.48 -4.55)"/><path class="cls-12" d="M236.42,326.31a.57.57,0,0,1-.13.38c-1-1.25-6.57-2-13.21-1.7s-12.13,1.48-13,2.81a.52.52,0,0,1-.16-.37c-.06-1.43,5.82-2.88,13.15-3.19S236.36,324.87,236.42,326.31Z" transform="translate(-4.48 -4.55)"/><path class="cls-8" d="M236.42,326.31a.57.57,0,0,1-.13.38c-1-1.25-6.57-2-13.21-1.7s-12.13,1.48-13,2.81a.52.52,0,0,1-.16-.37c-.06-1.43,5.82-2.88,13.15-3.19S236.36,324.87,236.42,326.31Z" transform="translate(-4.48 -4.55)"/><path class="cls-14" d="M236.29,326.69c-.91,1.33-6.38,2.53-13,2.81s-12.21-.45-13.21-1.7c.89-1.33,6.36-2.53,13-2.81S235.27,325.44,236.29,326.69Z" transform="translate(-4.48 -4.55)"/><path class="cls-8" d="M241.71,324.4c.1,2.12-6.63,4.13-15,4.49s-15.26-1.08-15.35-3.2,6.63-4.14,15-4.5S241.62,322.27,241.71,324.4Z" transform="translate(-4.48 -4.55)"/><rect class="cls-8" x="211.23" y="321.19" width="30.42" height="3.85" transform="translate(-17.98 5.34) rotate(-2.43)"/><path class="cls-12" d="M241.55,320.55c.09,2.12-6.64,4.13-15,4.49s-15.27-1.08-15.36-3.2,6.64-4.14,15-4.5S241.46,318.42,241.55,320.55Z" transform="translate(-4.48 -4.55)"/><path class="cls-13" d="M241.55,320.55c.09,2.12-6.64,4.13-15,4.49s-15.27-1.08-15.36-3.2,6.64-4.14,15-4.5S241.46,318.42,241.55,320.55Z" transform="translate(-4.48 -4.55)"/><path class="cls-12" d="M239.61,320.48a.55.55,0,0,1-.13.38c-1-1.25-6.57-2-13.21-1.7s-12.13,1.48-13,2.81a.62.62,0,0,1-.16-.36c-.06-1.44,5.82-2.89,13.15-3.2S239.55,319,239.61,320.48Z" transform="translate(-4.48 -4.55)"/><path class="cls-8" d="M239.61,320.48a.55.55,0,0,1-.13.38c-1-1.25-6.57-2-13.21-1.7s-12.13,1.48-13,2.81a.62.62,0,0,1-.16-.36c-.06-1.44,5.82-2.89,13.15-3.2S239.55,319,239.61,320.48Z" transform="translate(-4.48 -4.55)"/><path class="cls-14" d="M239.48,320.86c-.9,1.33-6.38,2.53-13,2.81s-12.21-.45-13.21-1.7c.89-1.33,6.36-2.53,13-2.81S238.47,319.61,239.48,320.86Z" transform="translate(-4.48 -4.55)"/><path class="cls-8" d="M241.3,317.37c.09,2.13-6.64,4.14-15,4.5s-15.27-1.08-15.36-3.2,6.64-4.14,15-4.5S241.21,315.25,241.3,317.37Z" transform="translate(-4.48 -4.55)"/><rect class="cls-8" x="210.82" y="314.17" width="30.42" height="3.85" transform="translate(-17.69 5.32) rotate(-2.43)"/><path class="cls-12" d="M241.14,313.53c.09,2.12-6.64,4.13-15,4.49s-15.27-1.08-15.36-3.2,6.64-4.14,15-4.5S241.05,311.4,241.14,313.53Z" transform="translate(-4.48 -4.55)"/><path class="cls-13" d="M241.14,313.53c.09,2.12-6.64,4.13-15,4.49s-15.27-1.08-15.36-3.2,6.64-4.14,15-4.5S241.05,311.4,241.14,313.53Z" transform="translate(-4.48 -4.55)"/><path class="cls-12" d="M239.2,313.46a.62.62,0,0,1-.13.38c-1-1.25-6.57-2-13.21-1.7s-12.13,1.48-13,2.81a.52.52,0,0,1-.16-.36c-.06-1.44,5.82-2.89,13.15-3.2S239.14,312,239.2,313.46Z" transform="translate(-4.48 -4.55)"/><path class="cls-8" d="M239.2,313.46a.62.62,0,0,1-.13.38c-1-1.25-6.57-2-13.21-1.7s-12.13,1.48-13,2.81a.52.52,0,0,1-.16-.36c-.06-1.44,5.82-2.89,13.15-3.2S239.14,312,239.2,313.46Z" transform="translate(-4.48 -4.55)"/><path class="cls-14" d="M239.07,313.84c-.91,1.33-6.38,2.53-13,2.81s-12.21-.45-13.21-1.7c.89-1.33,6.36-2.53,13-2.81S238.05,312.59,239.07,313.84Z" transform="translate(-4.48 -4.55)"/><path class="cls-8" d="M244.49,311.55c.09,2.12-6.64,4.13-15,4.49s-15.26-1.08-15.36-3.2,6.64-4.14,15-4.5S244.4,309.42,244.49,311.55Z" transform="translate(-4.48 -4.55)"/><rect class="cls-8" x="214.01" y="308.34" width="30.42" height="3.85" transform="translate(-17.45 5.46) rotate(-2.43)"/><path class="cls-12" d="M244.33,307.7c.09,2.12-6.64,4.14-15,4.49S214,311.11,213.94,309s6.64-4.14,15-4.5S244.24,305.57,244.33,307.7Z" transform="translate(-4.48 -4.55)"/><path class="cls-13" d="M244.33,307.7c.09,2.12-6.64,4.14-15,4.49S214,311.11,213.94,309s6.64-4.14,15-4.5S244.24,305.57,244.33,307.7Z" transform="translate(-4.48 -4.55)"/><path class="cls-8" d="M242.39,307.63a.53.53,0,0,1-.13.38c-1-1.25-6.57-2-13.21-1.7s-12.13,1.48-13,2.81a.62.62,0,0,1-.16-.36c-.06-1.44,5.82-2.89,13.15-3.2S242.33,306.19,242.39,307.63Z" transform="translate(-4.48 -4.55)"/><path class="cls-14" d="M242.39,307.63a.53.53,0,0,1-.13.38c-1-1.25-6.57-2-13.21-1.7s-12.13,1.48-13,2.81a.62.62,0,0,1-.16-.36c-.06-1.44,5.82-2.89,13.15-3.2" transform="translate(-4.48 -4.55)"/><g class="cls-15"><path class="cls-14" d="M242.26,308c-.9,1.33-6.38,2.53-13,2.82S217,310.37,216,309.12c.89-1.33,6.36-2.53,13-2.81S241.25,306.76,242.26,308Z" transform="translate(-4.48 -4.55)"/></g><path class="cls-8" d="M239.62,306.61c.09,2.12-6.64,4.13-15,4.49s-15.27-1.08-15.36-3.2,6.64-4.14,15-4.5S239.53,304.48,239.62,306.61Z" transform="translate(-4.48 -4.55)"/><rect class="cls-8" x="209.13" y="303.4" width="30.42" height="3.85" transform="translate(-17.22 5.23) rotate(-2.43)"/><path class="cls-12" d="M239.46,302.76c.09,2.12-6.64,4.14-15,4.49s-15.26-1.08-15.35-3.2,6.63-4.14,15-4.5S239.36,300.63,239.46,302.76Z" transform="translate(-4.48 -4.55)"/><path class="cls-13" d="M239.46,302.76c.09,2.12-6.64,4.14-15,4.49s-15.26-1.08-15.35-3.2,6.63-4.14,15-4.5S239.36,300.63,239.46,302.76Z" transform="translate(-4.48 -4.55)"/><path class="cls-12" d="M237.52,302.69a.65.65,0,0,1-.13.38c-1-1.25-6.57-2-13.21-1.7s-12.13,1.48-13,2.81a.52.52,0,0,1-.16-.36c-.07-1.44,5.82-2.89,13.14-3.2S237.46,301.25,237.52,302.69Z" transform="translate(-4.48 -4.55)"/><path class="cls-8" d="M237.52,302.69a.65.65,0,0,1-.13.38c-1-1.25-6.57-2-13.21-1.7s-12.13,1.48-13,2.81a.52.52,0,0,1-.16-.36c-.07-1.44,5.82-2.89,13.14-3.2S237.46,301.25,237.52,302.69Z" transform="translate(-4.48 -4.55)"/><path class="cls-14" d="M237.39,303.07c-.91,1.33-6.38,2.53-13,2.82s-12.22-.46-13.21-1.71c.89-1.33,6.36-2.53,13-2.81S236.37,301.82,237.39,303.07Z" transform="translate(-4.48 -4.55)"/><path class="cls-8" d="M242.81,300.78c.09,2.12-6.64,4.14-15,4.49s-15.27-1.08-15.36-3.2,6.64-4.14,15-4.5S242.72,298.65,242.81,300.78Z" transform="translate(-4.48 -4.55)"/><rect class="cls-8" x="212.33" y="297.57" width="30.42" height="3.85" transform="translate(-16.99 5.38) rotate(-2.43)"/><path class="cls-12" d="M242.65,296.93c.09,2.12-6.64,4.14-15,4.49s-15.27-1.07-15.36-3.2,6.64-4.14,15-4.5S242.56,294.8,242.65,296.93Z" transform="translate(-4.48 -4.55)"/><path class="cls-13" d="M242.65,296.93c.09,2.12-6.64,4.14-15,4.49s-15.27-1.07-15.36-3.2,6.64-4.14,15-4.5S242.56,294.8,242.65,296.93Z" transform="translate(-4.48 -4.55)"/><path class="cls-12" d="M240.71,296.86a.58.58,0,0,1-.13.38c-1-1.25-6.57-2-13.21-1.7s-12.13,1.49-13,2.82a.56.56,0,0,1-.16-.37c-.06-1.44,5.82-2.88,13.15-3.19S240.65,295.42,240.71,296.86Z" transform="translate(-4.48 -4.55)"/><path class="cls-8" d="M240.71,296.86a.58.58,0,0,1-.13.38c-1-1.25-6.57-2-13.21-1.7s-12.13,1.49-13,2.82a.56.56,0,0,1-.16-.37c-.06-1.44,5.82-2.88,13.15-3.19S240.65,295.42,240.71,296.86Z" transform="translate(-4.48 -4.55)"/><path class="cls-14" d="M240.58,297.24c-.91,1.33-6.38,2.54-13,2.82s-12.21-.45-13.21-1.7c.89-1.33,6.36-2.54,13-2.82S239.56,296,240.58,297.24Z" transform="translate(-4.48 -4.55)"/><circle class="cls-8" cx="225.36" cy="283.57" r="13.7" transform="translate(-89.69 92.62) rotate(-20.55)"/><circle class="cls-12" cx="226.86" cy="284.25" r="13.7" transform="translate(-141.12 268.25) rotate(-49.6)"/><circle class="cls-13" cx="226.86" cy="284.25" r="13.7" transform="translate(-141.12 268.25) rotate(-49.6)"/><path class="cls-8" d="M236.19,288.49a10.25,10.25,0,1,1-5.09-13.58A10.24,10.24,0,0,1,236.19,288.49Z" transform="translate(-4.48 -4.55)"/><path class="cls-16" d="M231.61,287.29a3.07,3.07,0,0,0-1-1.61,2.86,2.86,0,0,0,1.47-.48,2.77,2.77,0,0,0,1-1.21,2.53,2.53,0,0,0-.12-2.47,4.67,4.67,0,0,0-1.72-1.62l.35-.76-1.18-.54-.33.71-1.18-.53.33-.71-1.18-.54-.33.71-2.55-1.16-4.81,10.57,2.56,1.16-.34.75,1.18.54.34-.75,1.18.53-.34.75,1.18.54.35-.78a5.48,5.48,0,0,0,2.85.43,2.69,2.69,0,0,0,2.05-1.65A3,3,0,0,0,231.61,287.29ZM226.76,280l2.43,1.1a2.69,2.69,0,0,1,1.23.94,1.13,1.13,0,0,1,.05,1.14,1.16,1.16,0,0,1-.89.72,2.65,2.65,0,0,1-1.52-.31l-2.43-1.1Zm1.33,8.52a3,3,0,0,1-1.61-.34l-2.85-1.3,1.19-2.61,2.85,1.3c1.3.59,1.75,1.32,1.35,2.2A1.18,1.18,0,0,1,228.09,288.55Z" transform="translate(-4.48 -4.55)"/><path class="cls-12" d="M356,361.82c-.32,1.24-4.56,1.25-9.48,0s-8.65-3.24-8.34-4.49,4.55-1.25,9.47,0S356.29,360.57,356,361.82Z" transform="translate(-4.48 -4.55)"/><rect class="cls-12" x="346.19" y="349.27" width="2.33" height="18.37" transform="translate(-89.23 603.78) rotate(-75.94)"/><path class="cls-12" d="M356.54,359.56c-.31,1.25-4.55,1.26-9.47,0s-8.66-3.24-8.35-4.48,4.56-1.26,9.48,0S356.85,358.31,356.54,359.56Z" transform="translate(-4.48 -4.55)"/><path class="cls-17" d="M356.54,359.56c-.31,1.25-4.55,1.26-9.47,0s-8.66-3.24-8.35-4.48,4.56-1.26,9.48,0S356.85,358.31,356.54,359.56Z" transform="translate(-4.48 -4.55)"/><path class="cls-12" d="M355.43,359.19a.39.39,0,0,1-.14.2c-.37-.9-3.46-2.28-7.36-3.25s-7.28-1.22-8-.61a.33.33,0,0,1,0-.24c.21-.84,3.87-.67,8.16.41S355.64,358.34,355.43,359.19Z" transform="translate(-4.48 -4.55)"/><path class="cls-18" d="M355.43,359.19a.39.39,0,0,1-.14.2c-.37-.9-3.46-2.28-7.36-3.25s-7.28-1.22-8-.61a.33.33,0,0,1,0-.24c.21-.84,3.87-.67,8.16.41S355.64,358.34,355.43,359.19Z" transform="translate(-4.48 -4.55)"/><path class="cls-18" d="M355.29,359.39c-.75.61-4.13.37-8-.61s-7-2.35-7.36-3.25c.74-.61,4.12-.37,8,.61S354.92,358.49,355.29,359.39Z" transform="translate(-4.48 -4.55)"/><path class="cls-8" d="M364.54,365.91c0,1.29-4,2.5-9.08,2.72s-9.22-.65-9.27-1.94,4-2.5,9.07-2.71S364.48,364.63,364.54,365.91Z" transform="translate(-4.48 -4.55)"/><rect class="cls-8" x="346.13" y="363.98" width="18.37" height="2.33" transform="translate(-19.67 10.87) rotate(-2.43)"/><path class="cls-12" d="M364.44,363.59c.05,1.28-4,2.5-9.08,2.71s-9.22-.65-9.27-1.93,4-2.5,9.07-2.72S364.38,362.3,364.44,363.59Z" transform="translate(-4.48 -4.55)"/><path class="cls-13" d="M364.44,363.59c.05,1.28-4,2.5-9.08,2.71s-9.22-.65-9.27-1.93,4-2.5,9.07-2.72S364.38,362.3,364.44,363.59Z" transform="translate(-4.48 -4.55)"/><path class="cls-12" d="M363.27,363.55a.43.43,0,0,1-.08.23c-.61-.76-4-1.2-8-1s-7.32.9-7.86,1.7a.4.4,0,0,1-.1-.22c0-.87,3.52-1.74,7.94-1.93S363.23,362.68,363.27,363.55Z" transform="translate(-4.48 -4.55)"/><path class="cls-8" d="M363.27,363.55a.43.43,0,0,1-.08.23c-.61-.76-4-1.2-8-1s-7.32.9-7.86,1.7a.4.4,0,0,1-.1-.22c0-.87,3.52-1.74,7.94-1.93S363.23,362.68,363.27,363.55Z" transform="translate(-4.48 -4.55)"/><path class="cls-14" d="M363.19,363.78c-.55.8-3.85,1.53-7.86,1.7s-7.38-.28-8-1c.54-.8,3.84-1.53,7.86-1.7S362.58,363,363.19,363.78Z" transform="translate(-4.48 -4.55)"/><circle class="cls-8" cx="343.44" cy="353.87" r="13.7" transform="translate(-145.34 442.21) rotate(-56.72)"/><path class="cls-12" d="M354.89,364.08a13.71,13.71,0,1,1-1.11-19.35A13.7,13.7,0,0,1,354.89,364.08Z" transform="translate(-4.48 -4.55)"/><path class="cls-13" d="M354.89,364.08a13.71,13.71,0,1,1-1.11-19.35A13.7,13.7,0,0,1,354.89,364.08Z" transform="translate(-4.48 -4.55)"/><path class="cls-8" d="M352.66,361.53a10.26,10.26,0,1,1-.83-14.48A10.27,10.27,0,0,1,352.66,361.53Z" transform="translate(-4.48 -4.55)"/><g class="cls-19"><path class="cls-6" d="M346.57,359.59c-1.21,2-3.38,2.05-5.64.36l-1.28,1.37-1.27-1.14,1.28-1.37a9.48,9.48,0,0,1-2.22-3.74l2-1.06a7.83,7.83,0,0,0,1.76,3.19l2-2.1c-.93-1.47-1.89-3.17-.78-5,1.21-2,3.42-2,5.69-.29l1.28-1.37,1.27,1.13L349.32,351a8.47,8.47,0,0,1,1.82,2.92l-1.9,1.14a6.73,6.73,0,0,0-1.42-2.46l-2.05,2.19C346.69,356.24,347.62,357.9,346.57,359.59Zm-1.76-6.28,1.68-1.79c-.82-.48-1.51-.39-1.87.16S344.49,352.68,344.81,353.31Zm-.54,4.82a1.49,1.49,0,0,0-.19-1.54l-1.59,1.71C343.28,358.75,343.93,358.69,344.27,358.13Z" transform="translate(-4.48 -4.55)"/></g><path class="cls-8" d="M175.06,367.18c-.06,1.29,4,2.5,9.07,2.72s9.22-.65,9.28-1.94-4-2.5-9.08-2.71S175.11,365.9,175.06,367.18Z" transform="translate(-4.48 -4.55)"/><rect class="cls-8" x="183.12" y="357.23" width="2.33" height="18.37" transform="translate(-194.09 530.45) rotate(-87.57)"/><path class="cls-12" d="M175.16,364.86c-.06,1.28,4,2.5,9.07,2.71s9.22-.65,9.28-1.93-4-2.5-9.08-2.72S175.21,363.58,175.16,364.86Z" transform="translate(-4.48 -4.55)"/><path class="cls-13" d="M175.16,364.86c-.06,1.28,4,2.5,9.07,2.71s9.22-.65,9.28-1.93-4-2.5-9.08-2.72S175.21,363.58,175.16,364.86Z" transform="translate(-4.48 -4.55)"/><path class="cls-12" d="M176.33,364.82a.33.33,0,0,0,.07.23c.62-.76,4-1.2,8-1s7.33.9,7.87,1.7a.36.36,0,0,0,.09-.22c0-.87-3.51-1.74-7.94-1.93S176.36,364,176.33,364.82Z" transform="translate(-4.48 -4.55)"/><path class="cls-8" d="M176.33,364.82a.33.33,0,0,0,.07.23c.62-.76,4-1.2,8-1s7.33.9,7.87,1.7a.36.36,0,0,0,.09-.22c0-.87-3.51-1.74-7.94-1.93S176.36,364,176.33,364.82Z" transform="translate(-4.48 -4.55)"/><path class="cls-14" d="M176.4,365.05c.55.8,3.86,1.53,7.87,1.7s7.37-.27,8-1c-.54-.8-3.85-1.53-7.87-1.7S177,364.29,176.4,365.05Z" transform="translate(-4.48 -4.55)"/><path class="cls-8" d="M173.13,363.66c-.06,1.29,4,2.5,9.08,2.72s9.22-.65,9.27-1.94-4-2.5-9.08-2.71S173.18,362.38,173.13,363.66Z" transform="translate(-4.48 -4.55)"/><rect class="cls-8" x="181.19" y="353.71" width="2.33" height="18.37" transform="translate(-192.44 525.12) rotate(-87.57)"/><path class="cls-12" d="M173.23,361.34c-.06,1.28,4,2.5,9.08,2.71s9.22-.65,9.27-1.93-4-2.5-9.08-2.71S173.28,360.06,173.23,361.34Z" transform="translate(-4.48 -4.55)"/><path class="cls-13" d="M173.23,361.34c-.06,1.28,4,2.5,9.08,2.71s9.22-.65,9.27-1.93-4-2.5-9.08-2.71S173.28,360.06,173.23,361.34Z" transform="translate(-4.48 -4.55)"/><path class="cls-12" d="M174.4,361.3a.32.32,0,0,0,.08.23c.61-.76,4-1.2,8-1s7.33.9,7.87,1.7a.36.36,0,0,0,.09-.22c0-.87-3.51-1.74-7.94-1.93S174.44,360.43,174.4,361.3Z" transform="translate(-4.48 -4.55)"/><path class="cls-8" d="M174.4,361.3a.32.32,0,0,0,.08.23c.61-.76,4-1.2,8-1s7.33.9,7.87,1.7a.36.36,0,0,0,.09-.22c0-.87-3.51-1.74-7.94-1.93S174.44,360.43,174.4,361.3Z" transform="translate(-4.48 -4.55)"/><path class="cls-14" d="M174.48,361.53c.54.8,3.85,1.53,7.86,1.7s7.37-.27,8-1c-.54-.8-3.84-1.53-7.87-1.7S175.09,360.77,174.48,361.53Z" transform="translate(-4.48 -4.55)"/><path class="cls-8" d="M173.52,359.28c-.05,1.28,4,2.5,9.08,2.71s9.08-.5,9.13-1.79-4-2.49-9.08-2.71S173.58,358,173.52,359.28Z" transform="translate(-4.48 -4.55)"/><polygon class="cls-8" points="187.49 353.19 187.39 355.51 168.9 354.88 168.99 352.55 187.49 353.19"/><path class="cls-12" d="M173.48,357.1c-.06,1.28,4,2.5,9.07,2.71s9.22-.65,9.28-1.93-4-2.5-9.08-2.71S173.53,355.82,173.48,357.1Z" transform="translate(-4.48 -4.55)"/><path class="cls-13" d="M173.48,357.1c-.06,1.28,4,2.5,9.07,2.71s9.22-.65,9.28-1.93-4-2.5-9.08-2.71S173.53,355.82,173.48,357.1Z" transform="translate(-4.48 -4.55)"/><path class="cls-8" d="M174.65,357.06a.29.29,0,0,0,.08.23c.61-.76,4-1.2,8-1s7.33.9,7.87,1.7a.36.36,0,0,0,.09-.22c0-.87-3.51-1.74-7.94-1.93S174.69,356.19,174.65,357.06Z" transform="translate(-4.48 -4.55)"/><path class="cls-14" d="M174.87,357.14c.55.81,3.85,1.53,7.86,1.7s7.38-.27,8-1c-.53-.81-3.84-1.53-7.86-1.7S175.49,356.39,174.87,357.14Z" transform="translate(-4.48 -4.55)"/><path class="cls-8" d="M171.45,355.91c0,.88,4.38,2.51,9.08,2.71,5.07.21,9.22-.65,9.27-1.94s-4-2.49-9.07-2.71S171.51,354.62,171.45,355.91Z" transform="translate(-4.48 -4.55)"/><polygon class="cls-8" points="185.42 349.81 185.46 351.99 167.11 351.21 167.07 349.03 185.42 349.81"/><path class="cls-12" d="M171.55,353.58c-.06,1.28,4,2.5,9.08,2.72s9.22-.66,9.27-1.94-4-2.5-9.08-2.71S171.6,352.3,171.55,353.58Z" transform="translate(-4.48 -4.55)"/><path class="cls-13" d="M171.55,353.58c-.06,1.28,4,2.5,9.08,2.72s9.22-.66,9.27-1.94-4-2.5-9.08-2.71S171.6,352.3,171.55,353.58Z" transform="translate(-4.48 -4.55)"/><path class="cls-14" d="M172.72,353.54a.38.38,0,0,0,.08.23c.61-.76,4-1.2,8-1s7.32.9,7.86,1.7a.37.37,0,0,0,.1-.22c0-.87-3.52-1.74-7.94-1.93S172.76,352.67,172.72,353.54Z" transform="translate(-4.48 -4.55)"/><path class="cls-14" d="M172.72,353.54a.38.38,0,0,0,.08.23c.61-.76,4-1.2,8-1s7.32.9,7.86,1.7a.37.37,0,0,0,.1-.22c0-.87-3.52-1.74-7.94-1.93" transform="translate(-4.48 -4.55)"/><g class="cls-15"><path class="cls-14" d="M172.94,353.62c.55.81,3.86,1.53,7.87,1.7s7.37-.27,8-1c-.53-.81-3.84-1.53-7.86-1.7S173.56,352.87,172.94,353.62Z" transform="translate(-4.48 -4.55)"/></g><path class="cls-8" d="M174.39,352.92c0,1.29,4,2.5,9.08,2.72s9.22-.65,9.28-1.94-4-2.5-9.08-2.71S174.45,351.64,174.39,352.92Z" transform="translate(-4.48 -4.55)"/><rect class="cls-8" x="182.46" y="342.97" width="2.33" height="18.37" transform="translate(-180.49 516.1) rotate(-87.57)"/><path class="cls-12" d="M174.49,350.6c-.05,1.28,4,2.5,9.08,2.71s9.22-.65,9.28-1.93-4-2.5-9.08-2.72S174.55,349.31,174.49,350.6Z" transform="translate(-4.48 -4.55)"/><path class="cls-13" d="M174.49,350.6c-.05,1.28,4,2.5,9.08,2.71s9.22-.65,9.28-1.93-4-2.5-9.08-2.72S174.55,349.31,174.49,350.6Z" transform="translate(-4.48 -4.55)"/><path class="cls-12" d="M175.66,350.56a.43.43,0,0,0,.08.23c.62-.76,4-1.2,8-1s7.33.9,7.86,1.7a.34.34,0,0,0,.1-.22c0-.87-3.51-1.74-7.94-1.93S175.7,349.69,175.66,350.56Z" transform="translate(-4.48 -4.55)"/><path class="cls-8" d="M175.66,350.56a.43.43,0,0,0,.08.23c.62-.76,4-1.2,8-1s7.33.9,7.86,1.7a.34.34,0,0,0,.1-.22c0-.87-3.51-1.74-7.94-1.93S175.7,349.69,175.66,350.56Z" transform="translate(-4.48 -4.55)"/><g class="cls-15"><path class="cls-14" d="M175.74,350.79c.55.8,3.86,1.53,7.86,1.7s7.38-.28,8-1c-.53-.8-3.84-1.53-7.86-1.7S176.67,349.64,175.74,350.79Z" transform="translate(-4.48 -4.55)"/></g><path class="cls-8" d="M161.6,366.83c.32,1.25,4.56,1.26,9.48,0s8.65-3.24,8.34-4.49-4.55-1.26-9.47,0S161.29,365.59,161.6,366.83Z" transform="translate(-4.48 -4.55)"/><rect class="cls-8" x="161.05" y="362.31" width="18.37" height="2.33" transform="translate(-87.68 47.69) rotate(-14.06)"/><path class="cls-12" d="M160.89,364.72c.32,1.25,4.56,1.26,9.48,0s8.65-3.24,8.34-4.49-4.55-1.26-9.47,0S160.58,363.48,160.89,364.72Z" transform="translate(-4.48 -4.55)"/><path class="cls-13" d="M160.89,364.72c.32,1.25,4.56,1.26,9.48,0s8.65-3.24,8.34-4.49-4.55-1.26-9.47,0S160.58,363.48,160.89,364.72Z" transform="translate(-4.48 -4.55)"/><path class="cls-12" d="M162,364.35a.41.41,0,0,0,.14.2c.38-.9,3.47-2.28,7.36-3.25s7.28-1.22,8-.6a.34.34,0,0,0,0-.24c-.21-.85-3.86-.67-8.16.4S161.79,363.51,162,364.35Z" transform="translate(-4.48 -4.55)"/><path class="cls-8" d="M162,364.35a.41.41,0,0,0,.14.2c.38-.9,3.47-2.28,7.36-3.25s7.28-1.22,8-.6a.34.34,0,0,0,0-.24c-.21-.85-3.86-.67-8.16.4S161.79,363.51,162,364.35Z" transform="translate(-4.48 -4.55)"/><g class="cls-15"><path class="cls-14" d="M162.29,364.4c.75.62,4.13.38,8-.6s7-2.35,7.36-3.25c-.74-.61-4.12-.37-8,.6S162.66,363.51,162.29,364.4Z" transform="translate(-4.48 -4.55)"/></g><path class="cls-8" d="M153.09,367c-.05,1.28,4,2.5,9.08,2.71s9.22-.65,9.28-1.93-4-2.5-9.08-2.72S153.15,365.76,153.09,367Z" transform="translate(-4.48 -4.55)"/><rect class="cls-8" x="161.16" y="357.08" width="2.33" height="18.37" transform="translate(-214.99 508.34) rotate(-87.57)"/><path class="cls-12" d="M153.05,364.86c-.06,1.28,4,2.5,9.07,2.71s9.22-.65,9.28-1.93-4-2.5-9.08-2.72S153.1,363.58,153.05,364.86Z" transform="translate(-4.48 -4.55)"/><path class="cls-13" d="M153.05,364.86c-.06,1.28,4,2.5,9.07,2.71s9.22-.65,9.28-1.93-4-2.5-9.08-2.72S153.1,363.58,153.05,364.86Z" transform="translate(-4.48 -4.55)"/><path class="cls-12" d="M154.22,364.82a.3.3,0,0,0,.08.23c.61-.76,4-1.2,8-1s7.33.9,7.87,1.7a.36.36,0,0,0,.09-.22c0-.87-3.51-1.74-7.94-1.93S154.26,364,154.22,364.82Z" transform="translate(-4.48 -4.55)"/><path class="cls-8" d="M154.22,364.82a.3.3,0,0,0,.08.23c.61-.76,4-1.2,8-1s7.33.9,7.87,1.7a.36.36,0,0,0,.09-.22c0-.87-3.51-1.74-7.94-1.93S154.26,364,154.22,364.82Z" transform="translate(-4.48 -4.55)"/><path class="cls-14" d="M154.44,364.9c.55.81,3.85,1.53,7.86,1.7s7.38-.27,8-1c-.53-.81-3.84-1.53-7.86-1.7S155.06,364.15,154.44,364.9Z" transform="translate(-4.48 -4.55)"/><path class="cls-8" d="M247.73,367.08c0,1.32,4.13,2.57,9.34,2.79s9.48-.67,9.53-2-4.12-2.57-9.33-2.79S247.79,365.76,247.73,367.08Z" transform="translate(-4.48 -4.55)"/><rect class="cls-8" x="256.02" y="356.84" width="2.39" height="18.89" transform="translate(-124.14 603.17) rotate(-87.57)"/><path class="cls-12" d="M247.83,364.69c-.05,1.32,4.13,2.57,9.34,2.79s9.48-.67,9.53-2-4.12-2.57-9.33-2.79S247.89,363.37,247.83,364.69Z" transform="translate(-4.48 -4.55)"/><path class="cls-13" d="M247.83,364.69c-.05,1.32,4.13,2.57,9.34,2.79s9.48-.67,9.53-2-4.12-2.57-9.33-2.79S247.89,363.37,247.83,364.69Z" transform="translate(-4.48 -4.55)"/><path class="cls-12" d="M249,364.65a.38.38,0,0,0,.08.23c.63-.77,4.08-1.23,8.2-1.05s7.53.92,8.09,1.74a.37.37,0,0,0,.1-.22c0-.9-3.62-1.79-8.17-2S249.08,363.75,249,364.65Z" transform="translate(-4.48 -4.55)"/><path class="cls-18" d="M249,364.65a.38.38,0,0,0,.08.23c.63-.77,4.08-1.23,8.2-1.05s7.53.92,8.09,1.74a.37.37,0,0,0,.1-.22c0-.9-3.62-1.79-8.17-2S249.08,363.75,249,364.65Z" transform="translate(-4.48 -4.55)"/><path class="cls-14" d="M249.12,364.88c.56.83,4,1.58,8.08,1.75s7.59-.28,8.21-1.06c-.56-.82-4-1.57-8.09-1.74S249.75,364.11,249.12,364.88Z" transform="translate(-4.48 -4.55)"/><path class="cls-8" d="M245.75,363.46c-.06,1.32,4.12,2.57,9.33,2.79s9.48-.67,9.54-2-4.12-2.57-9.33-2.79S245.81,362.14,245.75,363.46Z" transform="translate(-4.48 -4.55)"/><rect class="cls-8" x="254.04" y="353.22" width="2.39" height="18.89" transform="translate(-122.42 597.74) rotate(-87.57)"/><path class="cls-12" d="M245.85,361.07c0,1.32,4.12,2.57,9.34,2.79s9.48-.67,9.53-2-4.12-2.57-9.33-2.79S245.91,359.75,245.85,361.07Z" transform="translate(-4.48 -4.55)"/><path class="cls-13" d="M245.85,361.07c0,1.32,4.12,2.57,9.34,2.79s9.48-.67,9.53-2-4.12-2.57-9.33-2.79S245.91,359.75,245.85,361.07Z" transform="translate(-4.48 -4.55)"/><path class="cls-12" d="M247.06,361a.29.29,0,0,0,.08.23c.63-.77,4.08-1.23,8.2-1.05s7.53.92,8.08,1.75a.34.34,0,0,0,.1-.23c0-.9-3.61-1.79-8.16-2S247.09,360.14,247.06,361Z" transform="translate(-4.48 -4.55)"/><path class="cls-8" d="M247.06,361a.29.29,0,0,0,.08.23c.63-.77,4.08-1.23,8.2-1.05s7.53.92,8.08,1.75a.34.34,0,0,0,.1-.23c0-.9-3.61-1.79-8.16-2S247.09,360.14,247.06,361Z" transform="translate(-4.48 -4.55)"/><path class="cls-14" d="M247.14,361.26c.56.83,4,1.58,8.08,1.75s7.58-.28,8.2-1.05c-.55-.83-3.95-1.58-8.08-1.75S247.77,360.49,247.14,361.26Z" transform="translate(-4.48 -4.55)"/><path class="cls-8" d="M250,360.78c-.05,1.32,4.12,2.57,9.34,2.79s9.48-.67,9.53-2-4.12-2.57-9.33-2.79S250.06,359.46,250,360.78Z" transform="translate(-4.48 -4.55)"/><rect class="cls-8" x="258.29" y="350.54" width="2.39" height="18.89" transform="translate(-115.68 599.4) rotate(-87.57)"/><path class="cls-12" d="M250.1,358.39c0,1.32,4.13,2.57,9.34,2.79s9.48-.67,9.53-2-4.12-2.57-9.33-2.79S250.16,357.07,250.1,358.39Z" transform="translate(-4.48 -4.55)"/><path class="cls-13" d="M250.1,358.39c0,1.32,4.13,2.57,9.34,2.79s9.48-.67,9.53-2-4.12-2.57-9.33-2.79S250.16,357.07,250.1,358.39Z" transform="translate(-4.48 -4.55)"/><path class="cls-12" d="M251.31,358.35a.29.29,0,0,0,.08.23c.63-.77,4.08-1.23,8.2-1.05s7.53.92,8.09,1.75a.39.39,0,0,0,.09-.23c0-.89-3.61-1.79-8.16-2S251.35,357.46,251.31,358.35Z" transform="translate(-4.48 -4.55)"/><path class="cls-8" d="M251.31,358.35a.29.29,0,0,0,.08.23c.63-.77,4.08-1.23,8.2-1.05s7.53.92,8.09,1.75a.39.39,0,0,0,.09-.23c0-.89-3.61-1.79-8.16-2S251.35,357.46,251.31,358.35Z" transform="translate(-4.48 -4.55)"/><path class="cls-14" d="M251.39,358.58c.56.83,4,1.58,8.08,1.75s7.59-.28,8.21-1.05c-.56-.83-4-1.58-8.09-1.75S252,357.81,251.39,358.58Z" transform="translate(-4.48 -4.55)"/><path class="cls-8" d="M250.05,357.16c-.05,1.32,4.13,2.57,9.34,2.79s9.48-.67,9.53-2-4.12-2.57-9.33-2.79S250.11,355.84,250.05,357.16Z" transform="translate(-4.48 -4.55)"/><rect class="cls-8" x="258.34" y="346.92" width="2.39" height="18.89" transform="matrix(0.04, -1, 1, 0.04, -112, 596.01)"/><path class="cls-12" d="M250.15,354.77c-.05,1.32,4.13,2.57,9.34,2.79s9.48-.67,9.53-2-4.12-2.57-9.33-2.79S250.21,353.45,250.15,354.77Z" transform="translate(-4.48 -4.55)"/><path class="cls-13" d="M250.15,354.77c-.05,1.32,4.13,2.57,9.34,2.79s9.48-.67,9.53-2-4.12-2.57-9.33-2.79S250.21,353.45,250.15,354.77Z" transform="translate(-4.48 -4.55)"/><path class="cls-12" d="M251.36,354.73a.32.32,0,0,0,.08.24c.63-.78,4.08-1.24,8.2-1.06s7.53.92,8.09,1.75a.48.48,0,0,0,.1-.23c0-.89-3.62-1.79-8.17-2S251.4,353.84,251.36,354.73Z" transform="translate(-4.48 -4.55)"/><path class="cls-8" d="M251.36,354.73a.32.32,0,0,0,.08.24c.63-.78,4.08-1.24,8.2-1.06s7.53.92,8.09,1.75a.48.48,0,0,0,.1-.23c0-.89-3.62-1.79-8.17-2S251.4,353.84,251.36,354.73Z" transform="translate(-4.48 -4.55)"/><path class="cls-14" d="M251.44,355c.56.82,4,1.57,8.08,1.74s7.59-.28,8.21-1c-.56-.83-4-1.58-8.09-1.75S252.07,354.19,251.44,355Z" transform="translate(-4.48 -4.55)"/><path class="cls-8" d="M246.18,354.2c-.06,1.32,4.12,2.57,9.33,2.8s9.48-.67,9.54-2-4.13-2.57-9.34-2.79S246.23,352.88,246.18,354.2Z" transform="translate(-4.48 -4.55)"/><rect class="cls-8" x="254.47" y="343.97" width="2.39" height="18.89" transform="translate(-112.78 589.27) rotate(-87.56)"/><path class="cls-12" d="M246.28,351.81c-.06,1.32,4.12,2.57,9.33,2.8s9.48-.67,9.54-2-4.13-2.57-9.34-2.8S246.33,350.49,246.28,351.81Z" transform="translate(-4.48 -4.55)"/><path class="cls-13" d="M246.28,351.81c-.06,1.32,4.12,2.57,9.33,2.8s9.48-.67,9.54-2-4.13-2.57-9.34-2.8S246.33,350.49,246.28,351.81Z" transform="translate(-4.48 -4.55)"/><path class="cls-12" d="M247.48,351.77a.43.43,0,0,0,.08.24c.63-.78,4.08-1.23,8.2-1.06s7.54.92,8.09,1.75a.34.34,0,0,0,.1-.23c0-.89-3.62-1.79-8.17-2S247.52,350.88,247.48,351.77Z" transform="translate(-4.48 -4.55)"/><path class="cls-8" d="M247.48,351.77a.43.43,0,0,0,.08.24c.63-.78,4.08-1.23,8.2-1.06s7.54.92,8.09,1.75a.34.34,0,0,0,.1-.23c0-.89-3.62-1.79-8.17-2S247.52,350.88,247.48,351.77Z" transform="translate(-4.48 -4.55)"/><path class="cls-14" d="M247.56,352c.56.83,4,1.57,8.09,1.75s7.58-.28,8.2-1.06c-.55-.83-4-1.57-8.09-1.75S248.19,351.23,247.56,352Z" transform="translate(-4.48 -4.55)"/><path class="cls-8" d="M270.53,361.41c-.54,1.16,2.74,3.85,7.33,6s8.75,3,9.3,1.8-2.73-3.85-7.32-6S271.08,360.25,270.53,361.41Z" transform="translate(-4.48 -4.55)"/><rect class="cls-8" x="278.18" y="355.08" width="2.33" height="18.37" transform="translate(-173.62 457.64) rotate(-64.83)"/><path class="cls-12" d="M271.52,359.3c-.54,1.17,2.74,3.86,7.33,6s8.75,3,9.3,1.8-2.73-3.85-7.32-6S272.07,358.14,271.52,359.3Z" transform="translate(-4.48 -4.55)"/><path class="cls-13" d="M271.52,359.3c-.54,1.17,2.74,3.86,7.33,6s8.75,3,9.3,1.8-2.73-3.85-7.32-6S272.07,358.14,271.52,359.3Z" transform="translate(-4.48 -4.55)"/><path class="cls-12" d="M272.62,359.72a.39.39,0,0,0,0,.24c.86-.46,4.13.43,7.76,2.14s6.41,3.65,6.59,4.6a.36.36,0,0,0,.18-.16c.37-.79-2.57-3-6.58-4.85S273,358.93,272.62,359.72Z" transform="translate(-4.48 -4.55)"/><path class="cls-8" d="M272.62,359.72a.39.39,0,0,0,0,.24c.86-.46,4.13.43,7.76,2.14s6.41,3.65,6.59,4.6a.36.36,0,0,0,.18-.16c.37-.79-2.57-3-6.58-4.85S273,358.93,272.62,359.72Z" transform="translate(-4.48 -4.55)"/><path class="cls-14" d="M272.6,360c.2,1,3,2.9,6.6,4.61s6.9,2.6,7.75,2.13c-.18-.95-2.95-2.89-6.59-4.6S273.46,359.5,272.6,360Z" transform="translate(-4.48 -4.55)"/><path class="cls-8" d="M260.89,365.53c-.05,1.28,4,2.5,9.08,2.72s9.22-.66,9.27-1.94-4-2.5-9.07-2.71S261,364.25,260.89,365.53Z" transform="translate(-4.48 -4.55)"/><rect class="cls-8" x="268.95" y="355.57" width="2.33" height="18.37" transform="translate(-110.27 614.59) rotate(-87.57)"/><path class="cls-12" d="M261,363.21c-.06,1.28,4,2.5,9.08,2.71s9.22-.65,9.27-1.93-4-2.5-9.08-2.72S261,361.92,261,363.21Z" transform="translate(-4.48 -4.55)"/><path class="cls-13" d="M261,363.21c-.06,1.28,4,2.5,9.08,2.71s9.22-.65,9.27-1.93-4-2.5-9.08-2.72S261,361.92,261,363.21Z" transform="translate(-4.48 -4.55)"/><path class="cls-12" d="M262.16,363.17a.43.43,0,0,0,.08.23c.61-.76,4-1.2,8-1s7.32.89,7.86,1.7a.4.4,0,0,0,.1-.22c0-.87-3.52-1.74-7.94-1.93S262.2,362.3,262.16,363.17Z" transform="translate(-4.48 -4.55)"/><path class="cls-8" d="M262.16,363.17a.43.43,0,0,0,.08.23c.61-.76,4-1.2,8-1s7.32.89,7.86,1.7a.4.4,0,0,0,.1-.22c0-.87-3.52-1.74-7.94-1.93S262.2,362.3,262.16,363.17Z" transform="translate(-4.48 -4.55)"/><path class="cls-14" d="M262.24,363.4c.55.8,3.85,1.53,7.86,1.7s7.38-.28,8-1c-.54-.81-3.84-1.53-7.86-1.7S262.85,362.64,262.24,363.4Z" transform="translate(-4.48 -4.55)"/></g><g id="Chart_1" data-name="Chart 1"><g class="cls-20"><path class="cls-8" d="M99.21,108.63v6a18,18,0,0,1,10.25,4.24l4.27-4.27A24,24,0,0,0,99.21,108.63Z" transform="translate(-4.48 -4.55)"/></g><g class="cls-21"><path class="cls-8" d="M96.3,150.69a18.09,18.09,0,0,1-16.56-16.56h-6a24.11,24.11,0,0,0,22.6,22.6Z" transform="translate(-4.48 -4.55)"/></g><path class="cls-8" d="M79.74,131.22A18.07,18.07,0,0,1,96.3,114.67v-6a24.09,24.09,0,0,0-22.6,22.59Z" transform="translate(-4.48 -4.55)"/><path class="cls-22" d="M79.74,131.22A18.07,18.07,0,0,1,96.3,114.67v-6a24.09,24.09,0,0,0-22.6,22.59Z" transform="translate(-4.48 -4.55)"/><path class="cls-23" d="M115.79,116.7,111.52,121a18.07,18.07,0,0,1-12.31,29.72v6a24.1,24.1,0,0,0,16.58-40Z" transform="translate(-4.48 -4.55)"/></g><g id="Arrow"><g class="cls-24"><polygon class="cls-8" points="137.1 97.71 144.75 108.08 188.82 89.78 231.79 105.07 270.73 79.89 273.52 83.6 282.76 68.46 262.03 66.84 265.22 71.03 226.25 95.97 183.92 80.95 137.1 97.71"/></g></g><g id="Symbol"><path class="cls-25" d="M322.26,108.72a9.7,9.7,0,1,0,9.7,9.7A9.69,9.69,0,0,0,322.26,108.72Zm0,14.54a4.85,4.85,0,1,1,4.85-4.84A4.85,4.85,0,0,1,322.26,123.26Z" transform="translate(-4.48 -4.55)"/><path class="cls-25" d="M346.72,137.17a9.7,9.7,0,1,0,9.7,9.7A9.7,9.7,0,0,0,346.72,137.17Zm0,14.55a4.85,4.85,0,1,1,4.85-4.85A4.85,4.85,0,0,1,346.72,151.72Z" transform="translate(-4.48 -4.55)"/><polygon class="cls-25" points="321.42 152.03 314.98 152.03 337.39 104.17 343.83 104.17 321.42 152.03"/></g><g id="Character"><g id="Character--inject-2"><path class="cls-26" d="M211.23,113c.27,1.24.51,2.31.81,3.44s.59,2.2.93,3.34c.65,2.19,1.4,4.36,2.23,6.58a53.89,53.89,0,0,0,6.74,12.92,25.54,25.54,0,0,0,2.77,3.11,15.6,15.6,0,0,0,3.81,2.68,17,17,0,0,0,8.62,1.68,24,24,0,0,0,7.57-1.78,28.89,28.89,0,0,0,3.32-1.59,13.56,13.56,0,0,0,1.57-1c.5-.36,1-.67,1.56-1.09l-2.64-4.72-1.4.37-1.47.35c-1,.22-2,.4-3,.54a20.8,20.8,0,0,1-5.46.1,8.89,8.89,0,0,1-4.06-1.46,8.67,8.67,0,0,1-1.43-1.28,17.49,17.49,0,0,1-1.46-2,34,34,0,0,1-2.65-5c-.82-1.81-1.54-3.73-2.22-5.68s-1.29-4-1.91-6l-.85-3c-.27-1-.57-2.06-.78-2.93Z" transform="translate(-4.48 -4.55)"/><path class="cls-27" d="M210.37,106.94c4.53-5.76,11.42-3.65,15.28,5.53a88.75,88.75,0,0,1,5.09,15.15l-16.14,5.67C210.36,124.61,205.7,112.85,210.37,106.94Z" transform="translate(-4.48 -4.55)"/><path class="cls-28" d="M217.11,116.58c-1.33-.91-4.05,4.34-5.31,10.53.88,2.16,1.84,4.22,2.79,6.15l9.71-3.41C222.7,124.05,220.1,118.62,217.11,116.58Z" transform="translate(-4.48 -4.55)"/><path class="cls-26" d="M249.35,134.22l3.53-1.92,1.23,7.88s-5.89,3.55-7.59.62l.18-2A6.45,6.45,0,0,1,249.35,134.22Z" transform="translate(-4.48 -4.55)"/><polygon class="cls-26" points="252.82 127.36 255.92 133.7 249.6 135.64 248.37 127.75 252.82 127.36"/><path class="cls-12" d="M210.3,101.78,202,100.62l-10.29.9a7.17,7.17,0,0,0-6.42,5.85A182.75,182.75,0,0,0,183.25,130c-.36,8.54.58,21.17,2,32.56l34.38-4.15c.33-30,2.59-39.3,2.87-47.24a7.12,7.12,0,0,0-5-7.06Z" transform="translate(-4.48 -4.55)"/><polygon class="cls-26" points="216.22 246 223.53 248.03 230.09 230.84 222.78 228.81 216.22 246"/><path class="cls-29" d="M231.28,250.29a3.8,3.8,0,0,0-2.34-1.42l-7.53-1.47a.69.69,0,0,0-.81.47l-2.33,6.86a1.51,1.51,0,0,0,.92,1.92l.05,0c2.78,1.09,4.65.71,9,1.55,2.67.53,8.29,2.3,12,2.15s3.74-3.87,2.17-4.14C236.84,255.35,232.56,252,231.28,250.29Z" transform="translate(-4.48 -4.55)"/><g class="cls-30"><polygon points="230.09 230.85 226.6 239.99 219.39 237.68 222.77 228.81 230.09 230.85"/></g><path class="cls-29" d="M252.81,184.71a49.31,49.31,0,0,1-1.47,8c-1.93,7.46-5.23,15.06-8,22.48-5.41,14.64-10.09,27.4-10.09,27.4l-10-3.47s9-42.35,15.07-46.69h-37.2a13.88,13.88,0,0,1-2.08-.14c6.41-.82,16.39-4.77,25.67-8.72,8.19-3.5,15.85-7,20-8.32h0C249.79,177.42,253.21,180.43,252.81,184.71Z" transform="translate(-4.48 -4.55)"/><path class="cls-31" d="M252.81,184.71a49.31,49.31,0,0,1-1.47,8c-1.93,7.46-5.23,15.06-8,22.48-5.41,14.64-10.09,27.4-10.09,27.4l-10-3.47s9-42.35,15.07-46.69h-37.2a13.88,13.88,0,0,1-2.08-.14c6.41-.82,16.39-4.77,25.67-8.72,8.19-3.5,15.85-7,20-8.32h0C249.79,177.42,253.21,180.43,252.81,184.71Z" transform="translate(-4.48 -4.55)"/><path class="cls-32" d="M244.73,175.3c-4.16,1.34-11.82,4.82-20,8.32-9.28,3.95-19.26,7.9-25.67,8.72-10.8-1.44-14.87-14.3-3.57-29.14,7.33,0,14.7,7,14.7,7S232.35,170.09,244.73,175.3Z" transform="translate(-4.48 -4.55)"/><polygon class="cls-26" points="267.18 231.22 275.37 231.22 266.79 210.68 261.24 220.11 267.18 231.22"/><path class="cls-29" d="M279.18,233.83l-9.61-2.18a.68.68,0,0,0-.81.43l-2.68,7.39a1.49,1.49,0,0,0,1,1.83h0c3.37.7,5,.87,9.25,1.83,2.61.59,9.19,2.32,12.78,3.13s4.53-2.7,3.1-3.37c-6.41-3-9.88-5.8-11.74-8.21A2.31,2.31,0,0,0,279.18,233.83Z" transform="translate(-4.48 -4.55)"/><g class="cls-30"><polygon points="266.79 210.69 270.44 219.44 263.08 223.55 261.24 220.12 266.79 210.69"/></g><path class="cls-29" d="M275,220.87l-9,5.45s-7.5-15.77-14.68-33.56a49.31,49.31,0,0,0,1.47-8c.4-4.28-3-7.29-8.07-9.4h0c-4.16,1.34-11.82,4.82-20,8.32-9.28,3.95-19.26,7.9-25.67,8.72a16.55,16.55,0,0,1-2.22.17c-12.32,0-16.58-10.8-11.6-29.13,7.33,0,19.88-.79,19.88-.79s24.22-5.82,41.65-3.83a19.66,19.66,0,0,1,17,15.75C268.22,196.76,275,220.87,275,220.87Z" transform="translate(-4.48 -4.55)"/><path class="cls-29" d="M275,220.87l-9,5.45s-7.5-15.77-14.68-33.56a49.31,49.31,0,0,0,1.47-8c.4-4.28-3-7.29-8.07-9.4h0c-4.16,1.34-11.82,4.82-20,8.32-9.28,3.95-19.26,7.9-25.67,8.72a16.55,16.55,0,0,1-2.22.17c-12.32,0-16.58-10.8-11.6-29.13,7.33,0,19.88-.79,19.88-.79s24.22-5.82,41.65-3.83a19.66,19.66,0,0,1,17,15.75C268.22,196.76,275,220.87,275,220.87Z" transform="translate(-4.48 -4.55)"/><path class="cls-8" d="M210.3,101.78,202,100.62l-10.29.9a7.17,7.17,0,0,0-6.42,5.85A182.75,182.75,0,0,0,183.25,130c-.36,8.54.58,21.17,2,32.56l34.38-4.15c.33-30,2.59-39.3,2.87-47.24a7.12,7.12,0,0,0-5-7.06Z" transform="translate(-4.48 -4.55)"/><path class="cls-29" d="M185.2,160.69l-.89,2.79c-.12.22.13.45.49.46l34.32-2.06c.29,0,.52-.12.55-.3l.36-2.81c0-.19-.21-.36-.52-.38l-33.76,2.08A.58.58,0,0,0,185.2,160.69Z" transform="translate(-4.48 -4.55)"/><path class="cls-31" d="M185.2,160.69l-.89,2.79c-.12.22.13.45.49.46l34.32-2.06c.29,0,.52-.12.55-.3l.36-2.81c0-.19-.21-.36-.52-.38l-33.76,2.08A.58.58,0,0,0,185.2,160.69Z" transform="translate(-4.48 -4.55)"/><path class="cls-28" d="M188.67,104.54c6.86-1.2,6.52,14.37,3.4,25.76-.91,3.29-4.81,1.92-6.13,1.06C181.62,128.54,180.16,109.51,188.67,104.54Z" transform="translate(-4.48 -4.55)"/><path class="cls-26" d="M187.85,127.59c.26,6.74-1.88,10.26,1.7,12.51s24.81,9.29,25.32,8.4c-1,1.63-2,3-3.05,4.64q-9.15-1.37-18.35-2.54c-4.47-.57-11.67-1.72-15.18-4.55-3.17-2.56-2.6-13.81-2.07-21.91C179.08,122.48,187.85,127.59,187.85,127.59Z" transform="translate(-4.48 -4.55)"/><path class="cls-8" d="M186,101.79c7.05-2.06,9.72,3.58,7.58,13.26a88.75,88.75,0,0,1-4.63,15.3l-14.74-4.65C175.81,116.18,178.8,103.91,186,101.79Z" transform="translate(-4.48 -4.55)"/><path class="cls-12" d="M196.23,101.75a6.06,6.06,0,0,0,1.06,4.23,18.29,18.29,0,0,0,3,3.26c1.4,1.28,3.06,2.64,4.93,2.4s2.73-1.1,3.42-3.16c1.49,2.38,1.56,3.57,3.18,3.72a3.63,3.63,0,0,0,2.72-1.43,5.91,5.91,0,0,0,2.13-4c.39-3-2.07-5.83-4.92-6.89a36,36,0,0,0-9-1.78C200.13,97.82,196.76,98.65,196.23,101.75Z" transform="translate(-4.48 -4.55)"/><path class="cls-33" d="M196.23,101.75a6.06,6.06,0,0,0,1.06,4.23,18.29,18.29,0,0,0,3,3.26c1.4,1.28,3.06,2.64,4.93,2.4s2.73-1.1,3.42-3.16c1.49,2.38,1.56,3.57,3.18,3.72a3.63,3.63,0,0,0,2.72-1.43,5.91,5.91,0,0,0,2.13-4c.39-3-2.07-5.83-4.92-6.89a36,36,0,0,0-9-1.78C200.13,97.82,196.76,98.65,196.23,101.75Z" transform="translate(-4.48 -4.55)"/><path class="cls-26" d="M203.44,87.24l3.73,4.3,5.07,5.87a6.5,6.5,0,0,0-1,2.07,3.59,3.59,0,0,0,1.4,4.5c.78.36,1.17,4.4-3.92,4a10.55,10.55,0,0,1-7.69-3.5c-.94-1.25-1.18-1.93-.22-3.3C203.53,97.3,203.74,91.7,203.44,87.24Z" transform="translate(-4.48 -4.55)"/><path class="cls-34" d="M211,96l-3.2-4.24-.13.41a11,11,0,0,0-.31,1.81c-.2,2.1,1.77,4.8,3.7,6l.15-.42a7.9,7.9,0,0,1,.94-2,.28.28,0,0,1,.1-.09Z" transform="translate(-4.48 -4.55)"/><path class="cls-26" d="M203.78,79.3c-.57,7-1.21,11,1.77,14.94,4.51,6,13.48,3.87,16.1-2.81,2.36-6,2.86-16.37-3.52-20a9.69,9.69,0,0,0-14.35,7.82Z" transform="translate(-4.48 -4.55)"/><path class="cls-29" d="M202.76,85.46l3,1.28h0c1-.41,1.22-1.62,1.15-2.73-.26-4.24,7.35-9.46,7.35-9.46s-8.1-2.65-10.52-3.06c-.85-.14-3.91,2.09-4.39,3.05a8,8,0,0,0,1,8.36A17,17,0,0,0,202.76,85.46Z" transform="translate(-4.48 -4.55)"/><path class="cls-26" d="M200.21,84.2a6.4,6.4,0,0,0,2,4.07c1.49,1.35,3.3-.13,3.51-2.1.18-1.76-.7-4.34-2.5-4.93S200,82.27,200.21,84.2Z" transform="translate(-4.48 -4.55)"/><path class="cls-29" d="M214.21,83.47c-.1.57.11,1.11.48,1.18s.72-.3.86-.87a.93.93,0,0,0-.48-1.19C214.7,82.51,214.32,82.9,214.21,83.47Z" transform="translate(-4.48 -4.55)"/><path class="cls-29" d="M220.63,84.89c-.12.57.1,1.1.48,1.18s.75-.31.86-.87-.11-1.1-.48-1.18S220.73,84.32,220.63,84.89Z" transform="translate(-4.48 -4.55)"/><path class="cls-35" d="M218.49,84.86a19.15,19.15,0,0,0,1.22,4.76,2.8,2.8,0,0,1-2.38-.24Z" transform="translate(-4.48 -4.55)"/><path class="cls-29" d="M215.71,92.63A5,5,0,0,1,212.82,90a.17.17,0,1,1,.32-.12,4.76,4.76,0,0,0,3.3,2.63.18.18,0,0,1-.05.35h0A5,5,0,0,1,215.71,92.63Z" transform="translate(-4.48 -4.55)"/><path class="cls-29" d="M213.33,81.18a.42.42,0,0,1-.14-.09.36.36,0,0,1,0-.49,3.29,3.29,0,0,1,3-.72.33.33,0,0,1,.23.42h0a.34.34,0,0,1-.43.22,2.59,2.59,0,0,0-2.34.59A.34.34,0,0,1,213.33,81.18Z" transform="translate(-4.48 -4.55)"/><path class="cls-29" d="M221.36,81.19a.47.47,0,0,1,0-.17.36.36,0,0,1,.43-.24,3.22,3.22,0,0,1,2.29,2,.33.33,0,0,1-.22.42.34.34,0,0,1-.43-.22,2.58,2.58,0,0,0-1.82-1.59A.33.33,0,0,1,221.36,81.19Z" transform="translate(-4.48 -4.55)"/></g><path class="cls-36" d="M223.47,160l43.88.13a3.15,3.15,0,0,0,3.07-2.81l2-22.21a2.54,2.54,0,0,0-2.56-2.82L226,132.14a3.14,3.14,0,0,0-3.07,2.8l-2,22.22A2.54,2.54,0,0,0,223.47,160Z" transform="translate(-4.48 -4.55)"/><path class="cls-37" d="M224.76,159.89l43.88.13a3.15,3.15,0,0,0,3.07-2.81l2-22.21a2.55,2.55,0,0,0-2.56-2.83l-43.88-.12a3.13,3.13,0,0,0-3.07,2.8l-2,22.22A2.55,2.55,0,0,0,224.76,159.89Z" transform="translate(-4.48 -4.55)"/><path class="cls-6" d="M251.05,146.34a3.1,3.1,0,1,1-2.77-3.39A3.1,3.1,0,0,1,251.05,146.34Z" transform="translate(-4.48 -4.55)"/><path class="cls-36" d="M269.25,160c0,1.33-.79,2.41-1.75,2.41h0l-45.29-.18c-.49,0-.89-.55-.89-1.2s.4-1.22.89-1.22Z" transform="translate(-4.48 -4.55)"/><path class="cls-8" d="M222,162.23H200.16a2.11,2.11,0,0,1-2.11-2.11h0a.32.32,0,0,1,.33-.32H222a1.22,1.22,0,0,1,1.22,1.21h0A1.22,1.22,0,0,1,222,162.23Z" transform="translate(-4.48 -4.55)"/><path class="cls-26" d="M210.18,145.39l3.62-1-.33,8.91s-7.86,1.85-8.35-1.77l1-1.95C207,147.84,208.19,145.89,210.18,145.39Z" transform="translate(-4.48 -4.55)"/><polygon class="cls-26" points="214.74 142.26 213.66 147.26 208.98 148.69 209.31 139.79 214.74 142.26"/><polygon class="cls-38" points="216.16 233.86 231.16 238.95 234.23 232.75 217.65 227.48 216.16 233.86"/><polygon class="cls-8" points="259.25 223.01 273.09 215.29 270.54 208.86 255.52 217.64 259.25 223.01"/><path class="cls-29" d="M224,79.23c2.05-.11,2.89-2.54,2.65-3.59a5.33,5.33,0,0,0-2.32-3.32c.66-2-.23-4.45-2.71-6.13a6.85,6.85,0,0,0-6-.44c0-1.81-3.32-3-5.46-.75a4.8,4.8,0,0,0-5.74.52,2,2,0,0,0-.63,1.93,4.73,4.73,0,0,0-3.89,7.35c.68,1,2.27,1,3.46.73a4.82,4.82,0,0,0,3.09,2.27c4,1.32,9.39.08,10.35,0a4,4,0,0,1,2.77.56,2.06,2.06,0,0,1-1.57.86,5.62,5.62,0,0,1-1.78-.09,6.17,6.17,0,0,0,4.53.93c.49-.11,1.59-.87,2.09-.91S224,79.31,224,79.23Z" transform="translate(-4.48 -4.55)"/></g></svg>